<svg width="160" height="241" viewBox="0 0 160 241" fill="none" xmlns="http://www.w3.org/2000/svg">
<path d="M160 235.042C160 237.844 157.51 240.334 154.708 240.334H5.29186C2.49031 240.334 0 237.844 0 235.042V5.31477C0 2.51321 2.49031 0.0229492 5.29186 0.0229492H154.708C157.51 0.0229492 160 2.51321 160 5.31477V235.042Z" fill="white"/>
<path d="M47.0021 110.84C45.4456 110.84 43.8892 111.151 42.6441 111.774C44.5118 109.595 45.4456 106.793 45.4456 103.68C45.4456 96.8321 39.8425 91.229 32.9943 91.229C26.146 91.229 20.5429 96.8321 20.5429 103.68C20.5429 106.793 21.788 109.595 23.3445 111.774C22.0993 111.151 20.5429 110.84 18.9865 110.84C12.1383 110.84 6.53516 116.443 6.53516 123.291C6.53516 130.139 12.1383 135.743 18.9865 135.743C24.9009 135.743 29.8814 131.696 31.1266 126.093C31.4378 132.007 31.7491 135.431 24.9009 141.657C28.9476 141.657 37.3523 141.657 40.7764 141.657C33.9281 135.431 34.5507 131.696 34.5507 126.093C35.7958 131.696 40.7764 136.054 46.6908 136.054C53.539 136.054 59.1421 130.451 59.1421 123.603C59.1421 116.443 53.539 110.84 47.0021 110.84Z" fill="url(#paint0_linear_1_4247)"/>
<path d="M92.7612 64.7704C92.1387 64.7704 91.5161 64.7704 90.8935 65.0816C91.5161 64.1478 92.1386 62.9027 92.1386 61.6575C92.1386 58.856 89.9597 56.3657 86.8469 56.3657C84.0453 56.3657 81.555 58.5447 81.555 61.6575C81.555 62.9027 81.8663 64.1478 82.8001 65.0816C82.1775 64.7704 81.555 64.7704 80.9324 64.7704C78.1308 64.7704 75.6406 66.9494 75.6406 70.0622C75.6406 72.8638 77.8196 75.354 80.9324 75.354C83.4227 75.354 85.6017 73.4863 85.913 71.3073C85.913 73.7976 86.2243 75.354 83.4227 77.8443C85.2904 77.8443 88.7146 77.8443 89.9597 77.8443C87.1581 75.0427 87.1581 73.7976 87.4694 71.3073C88.0919 73.7976 89.9597 75.354 92.4499 75.354C95.2515 75.354 97.7418 73.175 97.7418 70.0622C98.0531 66.9494 95.8741 64.7704 92.7612 64.7704Z" fill="url(#paint1_linear_1_4247)"/>
<path d="M92.7612 118C92.1387 118 91.5161 118 90.8935 118.311C91.5161 117.377 92.1386 116.132 92.1386 114.887C92.1386 112.085 89.9597 109.595 86.8469 109.595C84.0453 109.595 81.555 111.774 81.555 114.887C81.555 116.132 81.8663 117.377 82.8001 118.311C82.1775 118 81.555 118 80.9324 118C78.1308 118 75.6406 120.179 75.6406 123.292C75.6406 126.093 77.8196 128.584 80.9324 128.584C83.4227 128.584 85.6017 126.716 85.913 124.537C85.913 127.027 86.2243 128.584 83.4227 131.074C85.2904 131.074 88.7146 131.074 89.9597 131.074C87.1581 128.272 87.1581 127.027 87.4694 124.537C88.0919 127.027 89.9597 128.584 92.4499 128.584C95.2515 128.584 97.7418 126.405 97.7418 123.292C98.0531 120.179 95.8741 118 92.7612 118Z" fill="url(#paint2_linear_1_4247)"/>
<path d="M92.7612 171.229C92.1387 171.229 91.5161 171.229 90.8935 171.541C91.5161 170.607 92.1386 169.362 92.1386 168.117C92.1386 165.315 89.9597 162.825 86.8469 162.825C84.0453 162.825 81.555 165.004 81.555 168.117C81.555 169.362 81.8663 170.607 82.8001 171.541C82.1775 171.229 81.555 171.229 80.9324 171.229C78.1308 171.229 75.6406 173.408 75.6406 176.521C75.6406 179.323 77.8196 181.813 80.9324 181.813C83.4227 181.813 85.6017 179.945 85.913 177.766C85.913 180.257 86.2243 181.813 83.4227 184.303C85.2904 184.303 88.7146 184.303 89.9597 184.303C87.1581 181.502 87.1581 180.257 87.4694 177.766C88.0919 180.257 89.9597 181.813 92.4499 181.813C95.2515 181.813 97.7418 179.634 97.7418 176.521C98.0531 173.408 95.8741 171.229 92.7612 171.229Z" fill="url(#paint3_linear_1_4247)"/>
<path d="M137.277 64.7704C136.654 64.7704 136.032 64.7704 135.409 65.0816C136.032 64.1478 136.654 62.9027 136.654 61.6575C136.654 58.856 134.475 56.3657 131.362 56.3657C128.561 56.3657 126.071 58.5447 126.071 61.6575C126.071 62.9027 126.382 64.1478 127.316 65.0816C126.693 64.7704 126.071 64.7704 125.448 64.7704C122.647 64.7704 120.156 66.9494 120.156 70.0622C120.156 72.8638 122.335 75.354 125.448 75.354C127.938 75.354 130.117 73.4863 130.429 71.3073C130.429 73.7976 130.74 75.354 127.938 77.8443C129.806 77.8443 133.23 77.8443 134.475 77.8443C131.674 75.0427 131.674 73.7976 131.985 71.3073C132.608 73.7976 134.475 75.354 136.966 75.354C139.767 75.354 142.257 73.175 142.257 70.0622C142.257 66.9494 140.078 64.7704 137.277 64.7704Z" fill="url(#paint4_linear_1_4247)"/>
<path d="M137.277 118C136.654 118 136.032 118 135.409 118.311C136.032 117.377 136.654 116.132 136.654 114.887C136.654 112.085 134.475 109.595 131.362 109.595C128.561 109.595 126.071 111.774 126.071 114.887C126.071 116.132 126.382 117.377 127.316 118.311C126.693 118 126.071 118 125.448 118C122.647 118 120.156 120.179 120.156 123.292C120.156 126.093 122.335 128.584 125.448 128.584C127.938 128.584 130.117 126.716 130.429 124.537C130.429 127.027 130.74 128.584 127.938 131.074C129.806 131.074 133.23 131.074 134.475 131.074C131.674 128.272 131.674 127.027 131.985 124.537C132.608 127.027 134.475 128.584 136.966 128.584C139.767 128.584 142.257 126.405 142.257 123.292C142.257 120.179 140.078 118 137.277 118Z" fill="url(#paint5_linear_1_4247)"/>
<path d="M115.175 91.2291C114.553 91.2291 113.93 91.2291 113.308 91.5404C113.93 90.6065 114.553 89.3614 114.553 88.1163C114.553 85.3147 112.374 82.8245 109.261 82.8245C106.459 82.8245 103.969 85.0034 103.969 88.1163C103.969 89.3614 104.28 90.6065 105.214 91.5404C104.592 91.2291 103.969 91.2291 103.347 91.2291C100.545 91.2291 98.0547 93.4081 98.0547 96.5209C98.0547 99.3225 100.234 101.813 103.347 101.813C105.837 101.813 108.016 99.945 108.327 97.7661C108.327 100.256 108.638 101.813 105.837 104.303C107.704 104.303 111.129 104.303 112.374 104.303C109.572 101.501 109.572 100.256 109.884 97.7661C110.506 100.256 112.374 101.813 114.864 101.813C117.666 101.813 120.156 99.6338 120.156 96.5209C120.156 93.7194 117.977 91.2291 115.175 91.2291Z" fill="url(#paint6_linear_1_4247)"/>
<path d="M115.175 144.459C114.553 144.459 113.93 144.459 113.308 144.77C113.93 143.836 114.553 142.591 114.553 141.346C114.553 138.544 112.374 136.054 109.261 136.054C106.459 136.054 103.969 138.233 103.969 141.346C103.969 142.591 104.28 143.836 105.214 144.77C104.592 144.459 103.969 144.459 103.347 144.459C100.545 144.459 98.0547 146.638 98.0547 149.751C98.0547 152.552 100.234 155.042 103.347 155.042C105.837 155.042 108.016 153.175 108.327 150.996C108.327 153.486 108.638 155.042 105.837 157.533C107.704 157.533 111.129 157.533 112.374 157.533C109.572 154.731 109.572 153.486 109.884 150.996C110.506 153.486 112.374 155.042 114.864 155.042C117.666 155.042 120.156 152.863 120.156 149.751C120.156 146.949 117.977 144.459 115.175 144.459Z" fill="url(#paint7_linear_1_4247)"/>
<path d="M137.277 171.229C136.654 171.229 136.032 171.229 135.409 171.541C136.032 170.607 136.654 169.362 136.654 168.117C136.654 165.315 134.475 162.825 131.362 162.825C128.561 162.825 126.071 165.004 126.071 168.117C126.071 169.362 126.382 170.607 127.316 171.541C126.693 171.229 126.071 171.229 125.448 171.229C122.647 171.229 120.156 173.408 120.156 176.521C120.156 179.323 122.335 181.813 125.448 181.813C127.938 181.813 130.117 179.945 130.429 177.766C130.429 180.257 130.74 181.813 127.938 184.303C129.806 184.303 133.23 184.303 134.475 184.303C131.674 181.502 131.674 180.257 131.985 177.766C132.608 180.257 134.475 181.813 136.966 181.813C139.767 181.813 142.257 179.634 142.257 176.521C142.257 173.408 140.078 171.229 137.277 171.229Z" fill="url(#paint8_linear_1_4247)"/>
<path d="M43.8911 38.9334C50.428 42.9801 53.5409 48.5833 53.5409 55.4315C53.5409 61.0346 51.3619 65.7039 47.3152 69.4393C43.2685 72.8634 37.9767 74.7311 31.4397 74.7311C24.5915 74.7311 19.2997 72.8634 15.253 69.4393C11.2063 66.0152 9.02734 61.3459 9.02734 55.7428C9.02734 48.8945 12.1401 43.2914 18.6771 39.2447C15.8755 36.7545 14.0078 34.5755 12.4514 32.0852C11.2063 29.9062 10.5838 27.1047 10.5838 24.3031C10.5838 19.6339 12.4514 15.2759 15.8755 11.8518C19.6109 8.42763 24.5915 6.55994 30.8172 6.55994C37.0429 6.55994 42.0234 8.11636 45.7588 11.2292C49.4942 14.342 51.3619 18.7 51.3619 23.6806C51.9844 29.9062 49.1829 34.8868 43.8911 38.9334ZM39.5331 53.2525C39.5331 51.0735 38.5993 48.8945 37.0429 47.3381C35.4865 45.7817 33.3074 44.8478 31.1284 44.8478C28.9494 44.8478 27.0818 45.7817 25.5254 47.3381C23.9689 48.8945 23.0351 51.0735 23.0351 53.5638C23.0351 55.7428 23.9689 57.6105 25.5254 59.4782C27.0818 61.0346 28.9494 61.9684 31.1284 61.9684C33.3074 61.9684 35.4865 61.0346 37.0429 59.4782C38.5993 57.9218 39.5331 55.7428 39.5331 53.2525ZM38.288 25.8595C38.288 23.6805 37.6654 21.8128 36.4203 20.5677C35.1752 19.0113 33.3074 18.3887 31.4397 18.3887C29.572 18.3887 27.7043 19.0113 26.4592 20.2564C25.214 21.5015 24.5915 23.3693 24.5915 25.237C24.5915 27.1047 25.214 28.9724 26.4592 30.2175C27.7043 31.4626 29.572 32.3965 31.4397 32.3965C33.3074 32.3965 34.8639 31.7739 36.4203 30.5288C37.6654 29.2837 38.288 27.7272 38.288 25.8595Z" fill="url(#paint9_linear_1_4247)"/>
<defs>
<linearGradient id="paint0_linear_1_4247" x1="32.8386" y1="91.229" x2="32.8386" y2="141.657" gradientUnits="userSpaceOnUse">
<stop stop-color="#320807"/>
<stop offset="1"/>
</linearGradient>
<linearGradient id="paint1_linear_1_4247" x1="86.706" y1="56.3657" x2="86.706" y2="77.8443" gradientUnits="userSpaceOnUse">
<stop stop-color="#320807"/>
<stop offset="1"/>
</linearGradient>
<linearGradient id="paint2_linear_1_4247" x1="86.706" y1="109.595" x2="86.706" y2="131.074" gradientUnits="userSpaceOnUse">
<stop stop-color="#320807"/>
<stop offset="1"/>
</linearGradient>
<linearGradient id="paint3_linear_1_4247" x1="86.706" y1="162.825" x2="86.706" y2="184.303" gradientUnits="userSpaceOnUse">
<stop stop-color="#320807"/>
<stop offset="1"/>
</linearGradient>
<linearGradient id="paint4_linear_1_4247" x1="131.207" y1="56.3657" x2="131.207" y2="77.8443" gradientUnits="userSpaceOnUse">
<stop stop-color="#320807"/>
<stop offset="1"/>
</linearGradient>
<linearGradient id="paint5_linear_1_4247" x1="131.207" y1="109.595" x2="131.207" y2="131.074" gradientUnits="userSpaceOnUse">
<stop stop-color="#320807"/>
<stop offset="1"/>
</linearGradient>
<linearGradient id="paint6_linear_1_4247" x1="109.105" y1="82.8245" x2="109.105" y2="104.303" gradientUnits="userSpaceOnUse">
<stop stop-color="#320807"/>
<stop offset="1"/>
</linearGradient>
<linearGradient id="paint7_linear_1_4247" x1="109.105" y1="136.054" x2="109.105" y2="157.533" gradientUnits="userSpaceOnUse">
<stop stop-color="#320807"/>
<stop offset="1"/>
</linearGradient>
<linearGradient id="paint8_linear_1_4247" x1="131.207" y1="162.825" x2="131.207" y2="184.303" gradientUnits="userSpaceOnUse">
<stop stop-color="#320807"/>
<stop offset="1"/>
</linearGradient>
<linearGradient id="paint9_linear_1_4247" x1="31.2841" y1="6.55994" x2="31.2841" y2="74.7311" gradientUnits="userSpaceOnUse">
<stop stop-color="#320807"/>
<stop offset="1"/>
</linearGradient>
</defs>
</svg>
