<svg width="110" height="110" viewBox="0 0 110 110" fill="none" xmlns="http://www.w3.org/2000/svg">
<g filter="url(#filter0_d_1_3137)">
<path d="M55.2873 94.3445C79.2679 94.3445 98.708 74.9179 98.708 50.954C98.708 26.9901 79.2679 7.56348 55.2873 7.56348C31.3067 7.56348 11.8667 26.9901 11.8667 50.954C11.8667 74.9179 31.3067 94.3445 55.2873 94.3445Z" fill="url(#paint0_radial_1_3137)"/>
<path d="M55.2873 97.9628C81.2638 97.9628 102.326 76.9186 102.326 50.954C102.326 24.9894 81.2638 3.94515 55.2873 3.94515C29.3108 3.94515 8.24837 24.9894 8.24837 50.954C8.24837 76.9186 29.3108 97.9628 55.2873 97.9628Z" fill="url(#paint1_radial_1_3137)" stroke="url(#paint2_radial_1_3137)" stroke-width="7.23678"/>
<path d="M84.1298 48.6399C85.4867 64.5726 73.2744 78.4714 57.3306 79.8274C41.3869 81.1833 27.4785 68.9795 26.1216 53.0468C24.7647 37.1141 36.9769 23.2153 52.9207 21.8594C68.8645 20.8424 83.1121 32.7072 84.1298 48.6399Z" stroke="white" stroke-width="1.80919" stroke-miterlimit="10" stroke-dasharray="10.81 10.81"/>
<path d="M51.8965 7.62097C45.7904 7.95997 40.0235 9.65494 34.9351 12.3669L40.0235 20.8417C43.755 18.8078 48.1651 17.4518 52.9143 17.1128C52.9143 17.1128 52.9143 17.1128 53.2535 17.1128V7.62097C52.5751 7.62097 52.2358 7.62097 51.8965 7.62097Z" fill="white"/>
<path d="M13.2246 40.1648L23.0622 41.8598C24.4192 37.1139 26.4546 33.0459 29.5077 29.317L21.3661 23.5541C17.6346 28.639 14.9208 34.0629 13.2246 40.1648Z" fill="white"/>
<path d="M28.1516 70.335C25.0985 66.2671 23.0632 61.5212 22.3847 56.4363L12.8862 58.8092C14.2431 65.5891 16.957 71.352 20.6886 76.7759L28.1516 70.335Z" fill="white"/>
<path d="M35.9546 89.6576C42.0607 92.7085 48.506 94.4035 55.6299 94.4035V84.5727C50.2022 84.5727 44.7745 83.2167 40.0253 80.8438L35.9546 89.6576Z" fill="white"/>
<path d="M88.1962 78.8111L81.0724 72.0312C78.0193 75.7602 73.9486 78.8111 69.5386 81.1841L73.2701 90.3369C79.3762 87.625 84.4647 83.5571 88.1962 78.8111Z" fill="white"/>
<path d="M98.3732 47.6224C98.034 44.5715 97.6948 41.8595 97.0163 39.1476L87.1787 40.8426C87.8572 43.2155 88.5356 45.5885 88.5356 47.9614C88.8748 50.6734 88.5356 53.3853 88.1964 56.0973L97.6947 58.4703C98.3732 55.0803 98.7125 51.3514 98.3732 47.6224Z" fill="white"/>
<path d="M73.2717 11.6906L68.5225 20.1654C72.9324 22.1994 77.0032 24.9113 80.0562 28.6403L88.1977 22.8774C84.127 18.1314 79.0386 14.0635 73.2717 11.6906Z" fill="white"/>
<path d="M51.2617 42.7115C51.2617 44.2074 50.8789 45.5148 50.1133 46.6338C49.3595 47.7528 48.0167 49.0249 46.085 50.4501L44.3889 51.7222C42.9872 52.7822 41.9036 53.6421 41.138 54.3017C40.3842 54.9613 39.7363 55.6915 39.1945 56.4925C38.6527 57.2934 38.2817 58.1886 38.0815 59.178H48.0992L48.2582 53.0119H51.4737L51.2617 62.5349H34.2122C34.2357 60.3676 34.6068 58.489 35.3253 56.8988C36.0555 55.297 36.9213 53.9778 37.9224 52.9412C38.9236 51.9047 40.125 50.8564 41.5267 49.7964L44.1592 47.7999C45.3724 46.9165 46.2205 46.1096 46.7034 45.3794C47.1863 44.6373 47.4278 43.7952 47.4278 42.8529C47.4278 41.5219 47.0391 40.4854 46.2617 39.7433C45.4961 38.9895 44.436 38.6126 43.0815 38.6126C41.3382 38.6126 40.125 39.1249 39.4419 40.1497C38.7587 41.1744 38.4171 42.7645 38.4171 44.92V45.8211H34.9012V44.7963C34.9012 41.9577 35.5255 39.7433 36.774 38.1532C37.5279 37.2345 38.423 36.5572 39.4596 36.1214C40.4961 35.6856 41.7387 35.4677 43.1875 35.4677C44.9778 35.4677 46.4737 35.8093 47.6751 36.4924C48.8765 37.1638 49.7717 38.0472 50.3606 39.1426C50.9614 40.238 51.2617 41.4277 51.2617 42.7115ZM75.5268 49.2486C75.5268 52.1462 75.1499 54.6256 74.3961 56.6868C73.654 58.7481 72.5939 60.3146 71.2158 61.3865C69.8495 62.4466 68.2241 62.9766 66.3395 62.9766C63.3477 62.9766 61.0568 61.7399 59.4667 59.2663C57.8766 56.7928 57.0815 53.4536 57.0815 49.2486C57.0815 46.3393 57.4525 43.854 58.1946 41.7928C58.9484 39.7198 60.0203 38.1473 61.4102 37.0755C62.8118 36.0036 64.4549 35.4677 66.3395 35.4677C69.2842 35.4677 71.5515 36.6985 73.1417 39.1603C74.7318 41.622 75.5268 44.9848 75.5268 49.2486ZM66.3395 59.8494C68.0827 59.8494 69.4019 59.0249 70.2971 57.3759C71.2041 55.7269 71.6575 52.9707 71.6575 49.1073C71.6575 45.2793 71.1923 42.5702 70.2618 40.9801C69.3313 39.3782 68.0121 38.5772 66.3042 38.5772C64.4667 38.5772 63.1181 39.4724 62.2582 41.2628C61.4102 43.0413 60.9861 45.7033 60.9861 49.2486C60.9861 52.9707 61.4337 55.668 62.3289 57.3405C63.2241 59.0131 64.5609 59.8494 66.3395 59.8494Z" fill="white"/>
</g>
<defs>
<filter id="filter0_d_1_3137" x="0.629883" y="0.326782" width="109.316" height="109.315" filterUnits="userSpaceOnUse" color-interpolation-filters="sRGB">
<feFlood flood-opacity="0" result="BackgroundImageFix"/>
<feColorMatrix in="SourceAlpha" type="matrix" values="0 0 0 0 0 0 0 0 0 0 0 0 0 0 0 0 0 0 127 0" result="hardAlpha"/>
<feOffset dy="4"/>
<feGaussianBlur stdDeviation="2"/>
<feComposite in2="hardAlpha" operator="out"/>
<feColorMatrix type="matrix" values="0 0 0 0 0 0 0 0 0 0 0 0 0 0 0 0 0 0 0.25 0"/>
<feBlend mode="normal" in2="BackgroundImageFix" result="effect1_dropShadow_1_3137"/>
<feBlend mode="normal" in="SourceGraphic" in2="effect1_dropShadow_1_3137" result="shape"/>
</filter>
<radialGradient id="paint0_radial_1_3137" cx="0" cy="0" r="1" gradientUnits="userSpaceOnUse" gradientTransform="translate(55.2767 50.9433) scale(43.4235 43.3934)">
<stop offset="0.708333"/>
<stop offset="0.859375" stop-color="#00B0A5"/>
<stop offset="1" stop-color="#0A453E"/>
</radialGradient>
<radialGradient id="paint1_radial_1_3137" cx="0" cy="0" r="1" gradientUnits="userSpaceOnUse" gradientTransform="translate(55.2767 50.9433) scale(43.4235 43.3934)">
<stop offset="0.708333"/>
<stop offset="0.859375" stop-color="#00B0A5"/>
<stop offset="1" stop-color="#0A453E"/>
</radialGradient>
<radialGradient id="paint2_radial_1_3137" cx="0" cy="0" r="1" gradientUnits="userSpaceOnUse" gradientTransform="translate(55.2874 50.9724) rotate(119.204) scale(49.7303 49.7162)">
<stop offset="0.625" stop-color="#45D0D9"/>
<stop offset="1"/>
</radialGradient>
</defs>
</svg>
