<svg width="160" height="240" viewBox="0 0 160 240" fill="none" xmlns="http://www.w3.org/2000/svg">
<path d="M160 234.563C160 237.36 157.515 239.845 154.718 239.845H5.28159C2.48547 239.845 0 237.36 0 234.563V5.28192C0 2.48581 2.48547 0.000366211 5.28159 0.000366211H154.718C157.515 0.000366211 160 2.48581 160 5.28192V234.563Z" fill="white"/>
<path d="M50.0183 110.602C49.0862 109.67 48.1542 109.048 46.9115 108.116C39.1445 101.903 33.2416 93.2035 33.2416 93.2035C33.2416 93.2035 27.3387 101.592 19.5717 108.116C18.6397 109.048 17.397 109.67 16.4649 110.602C11.1834 114.64 7.14453 117.747 7.14453 123.961C7.14453 127.689 8.38721 131.106 11.1833 133.592C13.6688 136.077 17.397 137.631 21.1251 137.631C25.1639 137.631 28.5814 136.077 31.0668 133.281C30.7561 135.145 30.1348 137.631 29.8241 138.873C27.6493 144.466 24.2319 146.64 24.5426 146.64H41.63C41.9407 146.64 38.5232 144.155 36.3484 138.873C35.727 137.32 35.4164 135.145 35.1057 133.281C37.5911 136.077 41.3192 137.631 45.0474 137.631C48.7755 137.631 52.1931 136.077 54.9892 133.592C57.4746 131.106 59.028 127.689 59.028 123.961C59.028 117.747 54.9892 114.64 50.0183 110.602Z" fill="url(#paint0_linear_1_4475)"/>
<path d="M94.4474 155.65C94.1367 155.339 93.5152 155.029 93.2046 154.718C89.7871 151.922 87.3018 148.194 87.3018 148.194C87.3018 148.194 84.8163 151.922 81.3988 154.718C81.0881 155.029 80.4667 155.339 80.156 155.65C77.9812 157.514 76.1172 158.757 76.1172 161.553C76.1172 163.106 76.7387 164.66 77.9814 165.592C79.2241 166.835 80.7774 167.456 82.3308 167.456C83.8842 167.456 85.4377 166.835 86.6804 165.592C86.3697 166.524 86.3697 167.456 86.059 168.077C85.1269 170.563 83.5735 171.495 83.8842 171.495H91.3406C91.3406 171.495 90.0978 170.563 89.1658 168.077C88.8551 167.456 88.8551 166.524 88.5444 165.592C89.7871 166.835 91.3406 167.456 92.894 167.456C94.4474 167.456 96.0006 166.835 97.2434 165.592C98.4861 164.349 99.1076 163.106 99.1076 161.553C98.4862 158.757 96.6221 157.514 94.4474 155.65Z" fill="url(#paint1_linear_1_4475)"/>
<path d="M94.4474 76.1168C94.1367 75.8062 93.5152 75.4955 93.2046 75.1848C89.7871 72.3887 87.3018 68.6605 87.3018 68.6605C87.3018 68.6605 84.8163 72.3887 81.3988 75.1848C81.0881 75.4955 80.4667 75.8062 80.156 76.1168C77.9812 77.9809 76.1172 79.2236 76.1172 82.0198C76.1172 83.5732 76.7387 85.1266 77.9814 86.0586C79.2241 87.3013 80.7774 87.9227 82.3308 87.9227C83.8842 87.9227 85.4377 87.3013 86.6804 86.0586C86.3697 86.9906 86.3697 87.9227 86.059 88.544C85.1269 91.0295 83.5735 91.9615 83.8842 91.9615H91.3406C91.3406 91.9615 90.0978 91.0295 89.1658 88.544C88.8551 87.9227 88.8551 86.9906 88.5444 86.0586C89.7871 87.3013 91.3406 87.9227 92.894 87.9227C94.4474 87.9227 96.0006 87.3013 97.2434 86.0586C98.4861 84.8159 99.1076 83.5732 99.1076 82.0198C98.4862 79.2236 96.6221 77.6702 94.4474 76.1168Z" fill="url(#paint2_linear_1_4475)"/>
<path d="M138.565 155.65C138.254 155.339 137.632 155.029 137.322 154.718C133.904 151.922 131.419 148.194 131.419 148.194C131.419 148.194 128.933 151.922 125.516 154.718C125.205 155.029 124.584 155.339 124.273 155.65C122.098 157.514 120.234 158.757 120.234 161.553C120.234 163.106 120.856 164.66 122.098 165.592C123.341 166.835 124.895 167.456 126.448 167.456C128.001 167.456 129.555 166.835 130.798 165.592C130.487 166.524 130.487 167.456 130.176 168.077C129.244 170.563 127.691 171.495 128.001 171.495H135.458C135.458 171.495 134.215 170.563 133.283 168.077C132.972 167.456 132.972 166.524 132.662 165.592C133.904 166.835 135.458 167.456 137.011 167.456C138.565 167.456 140.118 166.835 141.361 165.592C142.603 164.349 143.225 163.106 143.225 161.553C142.603 158.757 140.739 157.514 138.565 155.65Z" fill="url(#paint3_linear_1_4475)"/>
<path d="M116.506 173.359C116.195 173.048 115.574 172.738 115.263 172.427C111.846 169.631 109.36 165.903 109.36 165.903C109.36 165.903 106.875 169.631 103.457 172.427C103.147 172.738 102.525 173.048 102.215 173.359C100.04 175.223 98.1758 176.466 98.1758 179.262C98.1758 180.815 98.7971 182.369 100.04 183.301C101.283 184.543 102.836 185.165 104.389 185.165C105.943 185.165 107.496 184.543 108.739 183.301C108.428 184.233 108.428 185.165 108.117 185.786C107.185 188.272 105.632 189.204 105.943 189.204H113.399C113.399 189.204 112.156 188.272 111.224 185.786C110.913 185.165 110.914 184.233 110.603 183.301C111.846 184.543 113.399 185.165 114.952 185.165C116.506 185.165 118.059 184.543 119.302 183.301C120.545 182.058 121.166 180.815 121.166 179.262C120.545 176.466 118.681 175.223 116.506 173.359Z" fill="url(#paint4_linear_1_4475)"/>
<path d="M138.565 76.1168C138.254 75.8062 137.632 75.4955 137.322 75.1848C133.904 72.3887 131.419 68.6605 131.419 68.6605C131.419 68.6605 128.933 72.3887 125.516 75.1848C125.205 75.4955 124.584 75.8062 124.273 76.1168C122.098 77.9809 120.234 79.2236 120.234 82.0198C120.234 83.5732 120.856 85.1266 122.098 86.0586C123.341 87.3013 124.895 87.9227 126.448 87.9227C128.001 87.9227 129.555 87.3013 130.798 86.0586C130.487 86.9906 130.487 87.9227 130.176 88.544C129.244 91.0295 127.691 91.9615 128.001 91.9615H135.458C135.458 91.9615 134.215 91.0295 133.283 88.544C132.972 87.9227 132.972 86.9906 132.662 86.0586C133.904 87.3013 135.458 87.9227 137.011 87.9227C138.565 87.9227 140.118 87.3013 141.361 86.0586C142.603 84.8159 143.225 83.5732 143.225 82.0198C142.603 79.2236 140.739 77.6702 138.565 76.1168Z" fill="url(#paint5_linear_1_4475)"/>
<path d="M94.4474 195.418C94.1367 195.107 93.5152 194.796 93.2046 194.486C89.7871 191.689 87.3018 187.961 87.3018 187.961C87.3018 187.961 84.8163 191.689 81.3988 194.486C81.0881 194.796 80.4667 195.107 80.156 195.418C77.9812 197.282 76.1172 198.524 76.1172 201.32C76.1172 202.874 76.7387 204.427 77.9814 205.359C79.2241 206.602 80.7774 207.223 82.3308 207.223C83.8842 207.223 85.4377 206.602 86.6804 205.359C86.3697 206.291 86.3697 207.223 86.059 207.845C85.1269 210.33 83.5735 211.262 83.8842 211.262H91.3406C91.3406 211.262 90.0978 210.33 89.1658 207.845C88.8551 207.223 88.8551 206.291 88.5444 205.359C89.7871 206.602 91.3406 207.223 92.894 207.223C94.4474 207.223 96.0006 206.602 97.2434 205.359C98.4861 204.117 99.1076 202.874 99.1076 201.32C98.4862 198.524 96.6221 197.282 94.4474 195.418Z" fill="url(#paint6_linear_1_4475)"/>
<path d="M94.4474 115.884C94.1367 115.574 93.5152 115.263 93.2046 114.952C89.7871 112.156 87.3018 108.428 87.3018 108.428C87.3018 108.428 84.8163 112.156 81.3988 114.952C81.0881 115.263 80.4667 115.574 80.156 115.884C77.9812 117.748 76.1172 118.991 76.1172 121.787C76.1172 123.341 76.7387 124.894 77.9814 125.826C79.2241 127.069 80.7774 127.69 82.3308 127.69C83.8842 127.69 85.4377 127.069 86.6804 125.826C86.3697 126.758 86.3697 127.69 86.059 128.312C85.1269 130.797 83.5735 131.729 83.8842 131.729H91.3406C91.3406 131.729 90.0978 130.797 89.1658 128.312C88.8551 127.69 88.8551 126.758 88.5444 125.826C89.7871 127.069 91.3406 127.69 92.894 127.69C94.4474 127.69 96.0006 127.069 97.2434 125.826C98.4861 124.583 99.1076 123.341 99.1076 121.787C98.4862 118.991 96.6221 117.748 94.4474 115.884Z" fill="url(#paint7_linear_1_4475)"/>
<path d="M138.565 195.418C138.254 195.107 137.632 194.796 137.322 194.486C133.904 191.689 131.419 187.961 131.419 187.961C131.419 187.961 128.933 191.689 125.516 194.486C125.205 194.796 124.584 195.107 124.273 195.418C122.098 197.282 120.234 198.524 120.234 201.32C120.234 202.874 120.856 204.427 122.098 205.359C123.341 206.602 124.895 207.223 126.448 207.223C128.001 207.223 129.555 206.602 130.798 205.359C130.487 206.291 130.487 207.223 130.176 207.845C129.244 210.33 127.691 211.262 128.001 211.262H135.458C135.458 211.262 134.215 210.33 133.283 207.845C132.972 207.223 132.972 206.291 132.662 205.359C133.904 206.602 135.458 207.223 137.011 207.223C138.565 207.223 140.118 206.602 141.361 205.359C142.603 204.117 143.225 202.874 143.225 201.32C142.603 198.524 140.739 197.282 138.565 195.418Z" fill="url(#paint8_linear_1_4475)"/>
<path d="M138.565 115.884C138.254 115.574 137.632 115.263 137.322 114.952C133.904 112.156 131.419 108.428 131.419 108.428C131.419 108.428 128.933 112.156 125.516 114.952C125.205 115.263 124.584 115.574 124.273 115.884C122.098 117.748 120.234 118.991 120.234 121.787C120.234 123.341 120.856 124.894 122.098 125.826C123.341 127.069 124.895 127.69 126.448 127.69C128.001 127.69 129.555 127.069 130.798 125.826C130.487 126.758 130.487 127.69 130.176 128.312C129.244 130.797 127.691 131.729 128.001 131.729H135.458C135.458 131.729 134.215 130.797 133.283 128.312C132.972 127.69 132.972 126.758 132.662 125.826C133.904 127.069 135.458 127.69 137.011 127.69C138.565 127.69 140.118 127.069 141.361 125.826C142.603 124.583 143.225 123.341 143.225 121.787C142.603 118.991 140.739 117.748 138.565 115.884Z" fill="url(#paint9_linear_1_4475)"/>
<path d="M116.506 98.1754C116.195 97.8647 115.574 97.5541 115.263 97.2434C111.846 94.4473 109.36 90.7191 109.36 90.7191C109.36 90.7191 106.875 94.4473 103.457 97.2434C103.147 97.5541 102.525 97.8647 102.215 98.1754C100.04 100.039 98.1758 101.282 98.1758 104.078C98.1758 105.632 98.7971 107.185 100.04 108.117C101.283 109.36 102.836 109.981 104.389 109.981C105.943 109.981 107.496 109.36 108.739 108.117C108.428 109.049 108.428 109.981 108.117 110.603C107.185 113.088 105.632 114.02 105.943 114.02H113.399C113.399 114.02 112.156 113.088 111.224 110.603C110.913 109.981 110.914 109.049 110.603 108.117C111.846 109.36 113.399 109.981 114.952 109.981C116.506 109.981 118.059 109.36 119.302 108.117C120.545 106.874 121.166 105.632 121.166 104.078C120.545 101.282 118.681 100.039 116.506 98.1754Z" fill="url(#paint10_linear_1_4475)"/>
<path d="M6.52266 7.45605H27.9595V73.6308H13.3576V19.5726H3.72656L6.52266 7.45605Z" fill="url(#paint11_linear_1_4475)"/>
<path d="M59.6478 6.52405C67.4148 6.52405 73.6284 9.63084 78.2886 15.5338C82.9488 21.4367 85.4342 29.5143 85.4342 39.7668C85.4342 51.5726 82.9488 60.2716 77.6672 65.8639C72.3857 71.4561 66.4828 74.2522 59.6478 74.2522C51.8809 74.2522 45.6672 71.1454 40.6964 65.2425C35.7255 59.0289 33.5508 51.2619 33.5508 41.3202C33.5508 30.7571 36.0362 22.3687 40.6964 16.1551C45.3566 9.94152 51.5703 6.52405 59.3372 6.52405H59.6478ZM71.4536 40.6988C71.4536 33.8638 70.5216 28.5823 68.3468 24.8541C66.1721 21.126 63.376 18.9512 59.6478 18.9512C55.9197 18.9512 52.8129 20.8153 50.6382 24.8541C48.4634 28.5823 47.2207 34.1745 47.2207 41.0095C47.2207 47.2231 48.4634 52.194 50.6382 55.9221C52.8129 59.6503 55.6091 61.5143 59.3372 61.5143C63.0654 61.5143 65.8615 59.6503 68.0362 55.9221C70.5217 52.194 71.4536 47.2231 71.4536 40.6988Z" fill="url(#paint12_linear_1_4475)"/>
<defs>
<linearGradient id="paint0_linear_1_4475" x1="33.0863" y1="93.2035" x2="33.0863" y2="146.64" gradientUnits="userSpaceOnUse">
<stop stop-color="#320807"/>
<stop offset="1"/>
</linearGradient>
<linearGradient id="paint1_linear_1_4475" x1="87.6124" y1="148.194" x2="87.6124" y2="171.495" gradientUnits="userSpaceOnUse">
<stop stop-color="#320807"/>
<stop offset="1"/>
</linearGradient>
<linearGradient id="paint2_linear_1_4475" x1="87.6124" y1="68.6605" x2="87.6124" y2="91.9615" gradientUnits="userSpaceOnUse">
<stop stop-color="#320807"/>
<stop offset="1"/>
</linearGradient>
<linearGradient id="paint3_linear_1_4475" x1="131.73" y1="148.194" x2="131.73" y2="171.495" gradientUnits="userSpaceOnUse">
<stop stop-color="#320807"/>
<stop offset="1"/>
</linearGradient>
<linearGradient id="paint4_linear_1_4475" x1="109.671" y1="165.903" x2="109.671" y2="189.204" gradientUnits="userSpaceOnUse">
<stop stop-color="#320807"/>
<stop offset="1"/>
</linearGradient>
<linearGradient id="paint5_linear_1_4475" x1="131.73" y1="68.6605" x2="131.73" y2="91.9615" gradientUnits="userSpaceOnUse">
<stop stop-color="#320807"/>
<stop offset="1"/>
</linearGradient>
<linearGradient id="paint6_linear_1_4475" x1="87.6124" y1="187.961" x2="87.6124" y2="211.262" gradientUnits="userSpaceOnUse">
<stop stop-color="#320807"/>
<stop offset="1"/>
</linearGradient>
<linearGradient id="paint7_linear_1_4475" x1="87.6124" y1="108.428" x2="87.6124" y2="131.729" gradientUnits="userSpaceOnUse">
<stop stop-color="#320807"/>
<stop offset="1"/>
</linearGradient>
<linearGradient id="paint8_linear_1_4475" x1="131.73" y1="187.961" x2="131.73" y2="211.262" gradientUnits="userSpaceOnUse">
<stop stop-color="#320807"/>
<stop offset="1"/>
</linearGradient>
<linearGradient id="paint9_linear_1_4475" x1="131.73" y1="108.428" x2="131.73" y2="131.729" gradientUnits="userSpaceOnUse">
<stop stop-color="#320807"/>
<stop offset="1"/>
</linearGradient>
<linearGradient id="paint10_linear_1_4475" x1="109.671" y1="90.7191" x2="109.671" y2="114.02" gradientUnits="userSpaceOnUse">
<stop stop-color="#320807"/>
<stop offset="1"/>
</linearGradient>
<linearGradient id="paint11_linear_1_4475" x1="15.843" y1="7.45605" x2="15.843" y2="73.6308" gradientUnits="userSpaceOnUse">
<stop stop-color="#320807"/>
<stop offset="1"/>
</linearGradient>
<linearGradient id="paint12_linear_1_4475" x1="59.4925" y1="6.52405" x2="59.4925" y2="74.2522" gradientUnits="userSpaceOnUse">
<stop stop-color="#320807"/>
<stop offset="1"/>
</linearGradient>
</defs>
</svg>
