<svg width="160" height="240" viewBox="0 0 160 240" fill="none" xmlns="http://www.w3.org/2000/svg">
<path d="M160 234.563C160 237.36 157.515 239.845 154.718 239.845H5.28159C2.48547 239.845 0 237.36 0 234.563V5.28192C0 2.48581 2.48547 0.000366211 5.28159 0.000366211H154.718C157.515 0.000366211 160 2.48581 160 5.28192V234.563Z" fill="white"/>
<path d="M49.7097 110.602C48.7776 109.67 47.8456 109.048 46.6029 108.116C38.8359 101.903 32.933 93.2035 32.933 93.2035C32.933 93.2035 27.0301 101.592 19.2631 108.116C18.3311 109.048 17.0884 109.67 16.1563 110.602C10.8748 114.64 6.83594 117.747 6.83594 123.961C6.83594 127.689 8.07862 131.106 10.8747 133.592C13.3602 136.077 17.0884 137.631 20.8165 137.631C24.8554 137.631 28.2728 136.077 30.7582 133.281C30.4475 135.145 29.8262 137.631 29.5155 138.873C27.3408 144.466 23.9232 146.64 24.2339 146.64H41.3213C41.632 146.64 38.2146 144.155 36.0398 138.873C35.4184 137.32 35.1078 135.145 34.7971 133.281C37.2825 136.077 41.0106 137.631 44.7388 137.631C48.4669 137.631 51.8845 136.077 54.6806 133.592C57.166 131.106 58.7194 127.689 58.7194 123.961C59.0301 117.747 54.9912 114.64 49.7097 110.602Z" fill="url(#paint0_linear_1_4452)"/>
<path d="M94.1348 169.009C93.8241 168.699 93.2027 168.388 92.8921 168.077C89.4746 165.281 86.9892 161.553 86.9892 161.553C86.9892 161.553 84.5038 165.281 81.0863 168.077C80.7756 168.388 80.1543 168.699 79.8436 169.009C77.6688 170.873 75.8047 172.116 75.8047 174.912C75.8047 176.466 76.4261 178.019 77.6688 178.951C78.9115 180.194 80.4649 180.815 82.0183 180.815C83.5717 180.815 85.1251 180.194 86.3678 178.951C86.0571 179.883 86.0572 180.815 85.7465 181.437C84.8144 183.922 83.261 184.854 83.5717 184.854H91.028C91.028 184.854 89.7853 183.922 88.8533 181.437C88.5426 180.815 88.5426 179.883 88.2319 178.951C89.4746 180.194 91.028 180.815 92.5814 180.815C94.1348 180.815 95.6882 180.194 96.931 178.951C98.1737 177.708 98.795 176.466 98.795 174.912C98.1736 172.116 96.3095 170.563 94.1348 169.009Z" fill="url(#paint1_linear_1_4452)"/>
<path d="M94.1348 62.7575C93.8241 62.4468 93.2027 62.1361 92.8921 61.8254C89.4746 59.0293 86.9892 55.3011 86.9892 55.3011C86.9892 55.3011 84.5038 59.0293 81.0863 61.8254C80.7756 62.1361 80.1543 62.4468 79.8436 62.7575C77.6688 64.6215 75.8047 65.8643 75.8047 68.6604C75.8047 70.2138 76.4261 71.7672 77.6688 72.6992C78.9115 73.9419 80.4649 74.5633 82.0183 74.5633C83.5717 74.5633 85.1251 73.9419 86.3678 72.6992C86.0571 73.6313 86.0572 74.5633 85.7465 75.1847C84.8144 77.6701 83.261 78.6021 83.5717 78.6021H91.028C91.028 78.6021 89.7853 77.6701 88.8533 75.1847C88.5426 74.5633 88.5426 73.6313 88.2319 72.6992C89.4746 73.9419 91.028 74.5633 92.5814 74.5633C94.1348 74.5633 95.6882 73.9419 96.931 72.6992C98.1737 71.4565 98.795 70.2138 98.795 68.6604C98.1736 65.8643 96.3095 64.6215 94.1348 62.7575Z" fill="url(#paint2_linear_1_4452)"/>
<path d="M94.1348 115.884C93.8241 115.574 93.2027 115.263 92.8921 114.952C89.4746 112.156 86.9892 108.428 86.9892 108.428C86.9892 108.428 84.5038 112.156 81.0863 114.952C80.7756 115.263 80.1543 115.574 79.8436 115.884C77.6688 117.748 75.8047 118.991 75.8047 121.787C75.8047 123.341 76.4261 124.894 77.6688 125.826C78.9115 127.069 80.4649 127.69 82.0183 127.69C83.5717 127.69 85.1251 127.069 86.3678 125.826C86.0571 126.758 86.0572 127.69 85.7465 128.312C84.8144 130.797 83.261 131.729 83.5717 131.729H91.028C91.028 131.729 89.7853 130.797 88.8533 128.312C88.5426 127.69 88.5426 126.758 88.2319 125.826C89.4746 127.069 91.028 127.69 92.5814 127.69C94.1348 127.69 95.6882 127.069 96.931 125.826C98.1737 124.583 98.795 123.341 98.795 121.787C98.1736 118.991 96.3095 117.748 94.1348 115.884Z" fill="url(#paint3_linear_1_4452)"/>
<path d="M138.564 169.009C138.254 168.699 137.632 168.388 137.322 168.077C133.904 165.281 131.419 161.553 131.419 161.553C131.419 161.553 128.933 165.281 125.516 168.077C125.205 168.388 124.584 168.699 124.273 169.009C122.098 170.873 120.234 172.116 120.234 174.912C120.234 176.466 120.856 178.019 122.098 178.951C123.341 180.194 124.895 180.815 126.448 180.815C128.001 180.815 129.555 180.194 130.797 178.951C130.487 179.883 130.487 180.815 130.176 181.437C129.244 183.922 127.691 184.854 128.001 184.854H135.458C135.458 184.854 134.215 183.922 133.283 181.437C132.972 180.815 132.972 179.883 132.662 178.951C133.904 180.194 135.458 180.815 137.011 180.815C138.564 180.815 140.118 180.194 141.361 178.951C142.603 177.708 143.225 176.466 143.225 174.912C142.293 172.116 140.739 170.563 138.564 169.009Z" fill="url(#paint4_linear_1_4452)"/>
<path d="M138.564 62.7575C138.254 62.4468 137.632 62.1361 137.322 61.8254C133.904 59.0293 131.419 55.3011 131.419 55.3011C131.419 55.3011 128.933 59.0293 125.516 61.8254C125.205 62.1361 124.584 62.4468 124.273 62.7575C122.098 64.6215 120.234 65.8643 120.234 68.6604C120.234 70.2138 120.856 71.7672 122.098 72.6992C123.341 73.9419 124.895 74.5633 126.448 74.5633C128.001 74.5633 129.555 73.9419 130.797 72.6992C130.487 73.6313 130.487 74.5633 130.176 75.1847C129.244 77.6701 127.691 78.6021 128.001 78.6021H135.458C135.458 78.6021 134.215 77.6701 133.283 75.1847C132.972 74.5633 132.972 73.6313 132.662 72.6992C133.904 73.9419 135.458 74.5633 137.011 74.5633C138.564 74.5633 140.118 73.9419 141.361 72.6992C142.603 71.4565 143.225 70.2138 143.225 68.6604C142.293 65.8643 140.739 64.6215 138.564 62.7575Z" fill="url(#paint5_linear_1_4452)"/>
<path d="M138.564 115.884C138.254 115.574 137.632 115.263 137.322 114.952C133.904 112.156 131.419 108.428 131.419 108.428C131.419 108.428 128.933 112.156 125.516 114.952C125.205 115.263 124.584 115.574 124.273 115.884C122.098 117.748 120.234 118.991 120.234 121.787C120.234 123.341 120.856 124.894 122.098 125.826C123.341 127.069 124.895 127.69 126.448 127.69C128.001 127.69 129.555 127.069 130.797 125.826C130.487 126.758 130.487 127.69 130.176 128.312C129.244 130.797 127.691 131.729 128.001 131.729H135.458C135.458 131.729 134.215 130.797 133.283 128.312C132.972 127.69 132.972 126.758 132.662 125.826C133.904 127.069 135.458 127.69 137.011 127.69C138.564 127.69 140.118 127.069 141.361 125.826C142.603 124.583 143.225 123.341 143.225 121.787C142.293 118.991 140.739 117.748 138.564 115.884Z" fill="url(#paint6_linear_1_4452)"/>
<path d="M116.193 89.1657C115.883 88.855 115.261 88.5443 114.951 88.2336C111.533 85.4375 109.048 81.7094 109.048 81.7094C109.048 81.7094 106.562 85.4375 103.145 88.2336C102.834 88.5443 102.213 88.855 101.902 89.1657C99.7273 91.0297 97.8633 92.2725 97.8633 95.0686C97.8633 96.622 98.4847 98.1754 99.7274 99.1074C100.97 100.35 102.523 100.971 104.077 100.971C105.63 100.971 107.184 100.35 108.426 99.1074C108.116 100.039 108.116 100.971 107.805 101.593C106.873 104.078 105.32 105.01 105.63 105.01H113.087C113.087 105.01 111.844 104.078 110.912 101.593C110.601 100.971 110.601 100.039 110.29 99.1074C111.533 100.35 113.087 100.971 114.64 100.971C116.193 100.971 117.747 100.35 118.989 99.1074C120.232 97.8647 120.854 96.622 120.854 95.0686C120.232 92.5831 118.679 91.0297 116.193 89.1657Z" fill="url(#paint7_linear_1_4452)"/>
<path d="M10.2507 6.21326H62.445L20.1925 74.5628L8.38672 67.1065L38.5226 18.3298H9.94012V6.21326H10.2507Z" fill="url(#paint8_linear_1_4452)"/>
<defs>
<linearGradient id="paint0_linear_1_4452" x1="32.7861" y1="93.2035" x2="32.7861" y2="146.64" gradientUnits="userSpaceOnUse">
<stop stop-color="#320807"/>
<stop offset="1"/>
</linearGradient>
<linearGradient id="paint1_linear_1_4452" x1="87.2998" y1="161.553" x2="87.2998" y2="184.854" gradientUnits="userSpaceOnUse">
<stop stop-color="#320807"/>
<stop offset="1"/>
</linearGradient>
<linearGradient id="paint2_linear_1_4452" x1="87.2998" y1="55.3011" x2="87.2998" y2="78.6021" gradientUnits="userSpaceOnUse">
<stop stop-color="#320807"/>
<stop offset="1"/>
</linearGradient>
<linearGradient id="paint3_linear_1_4452" x1="87.2998" y1="108.428" x2="87.2998" y2="131.729" gradientUnits="userSpaceOnUse">
<stop stop-color="#320807"/>
<stop offset="1"/>
</linearGradient>
<linearGradient id="paint4_linear_1_4452" x1="131.73" y1="161.553" x2="131.73" y2="184.854" gradientUnits="userSpaceOnUse">
<stop stop-color="#320807"/>
<stop offset="1"/>
</linearGradient>
<linearGradient id="paint5_linear_1_4452" x1="131.73" y1="55.3011" x2="131.73" y2="78.6021" gradientUnits="userSpaceOnUse">
<stop stop-color="#320807"/>
<stop offset="1"/>
</linearGradient>
<linearGradient id="paint6_linear_1_4452" x1="131.73" y1="108.428" x2="131.73" y2="131.729" gradientUnits="userSpaceOnUse">
<stop stop-color="#320807"/>
<stop offset="1"/>
</linearGradient>
<linearGradient id="paint7_linear_1_4452" x1="109.358" y1="81.7094" x2="109.358" y2="105.01" gradientUnits="userSpaceOnUse">
<stop stop-color="#320807"/>
<stop offset="1"/>
</linearGradient>
<linearGradient id="paint8_linear_1_4452" x1="35.4158" y1="6.21326" x2="35.4158" y2="74.5628" gradientUnits="userSpaceOnUse">
<stop stop-color="#320807"/>
<stop offset="1"/>
</linearGradient>
</defs>
</svg>
