<svg width="160" height="241" viewBox="0 0 160 241" fill="none" xmlns="http://www.w3.org/2000/svg">
<path d="M160 235.042C160 237.844 157.51 240.334 154.708 240.334H5.29186C2.49031 240.334 0 237.844 0 235.042V5.31487C0 2.51332 2.49031 0.0230103 5.29186 0.0230103H154.708C157.51 0.0230103 160 2.51332 160 5.31487V235.042Z" fill="white"/>
<path d="M26.7721 2.51324H36.7332L61.0133 61.9685H48.2506L43.5814 50.1396H20.8577L16.1884 61.9685H3.42578L26.7721 2.51324ZM31.7526 22.1241L24.9044 39.556H38.9121L31.7526 22.1241Z" fill="url(#paint0_linear_1_4528)"/>
<path d="M115.799 112.085C111.753 112.085 107.706 113.019 104.282 114.264C108.951 108.661 111.753 101.501 111.753 93.7192C111.753 76.2873 97.4337 61.9683 80.0018 61.9683C62.5699 61.9683 48.2508 76.2873 48.2508 93.7192C48.2508 101.501 51.0524 108.661 55.7217 114.264C51.9863 112.708 48.2508 112.085 44.2041 112.085C26.7722 112.085 12.4531 126.404 12.4531 143.836C12.4531 161.268 26.7722 175.587 44.2041 175.587C59.457 175.587 72.2197 164.692 75.3325 150.373C75.6438 165.315 76.8889 174.653 59.457 190.84C70.0407 190.84 91.8306 190.84 100.547 190.84C82.8033 174.342 84.0485 165.003 84.671 150.373C87.4726 165.003 100.235 175.587 115.799 175.587C133.231 175.587 147.55 161.268 147.55 143.836C147.55 126.404 133.231 112.085 115.799 112.085Z" fill="url(#paint1_linear_1_4528)"/>
<defs>
<linearGradient id="paint0_linear_1_4528" x1="32.2195" y1="2.51324" x2="32.2195" y2="61.9685" gradientUnits="userSpaceOnUse">
<stop stop-color="#320807"/>
<stop offset="1"/>
</linearGradient>
<linearGradient id="paint1_linear_1_4528" x1="80.0018" y1="61.9683" x2="80.0018" y2="190.84" gradientUnits="userSpaceOnUse">
<stop stop-color="#320807"/>
<stop offset="1"/>
</linearGradient>
</defs>
</svg>
