<svg width="160" height="241" viewBox="0 0 160 241" fill="none" xmlns="http://www.w3.org/2000/svg">
<path d="M160 235.497C160 238.293 157.515 240.779 154.718 240.779H5.28154C2.48543 240.779 0 238.293 0 235.497V6.21567C0 3.41956 2.48543 0.934082 5.28154 0.934082H154.718C157.515 0.934082 160 3.41956 160 6.21567V235.497Z" fill="white"/>
<path d="M46.9127 97.8662C36.9709 96.9342 33.8641 103.148 33.2428 105.323C32.3107 103.148 29.2039 96.9342 19.5729 97.8662C10.2525 99.4196 7.45636 107.808 8.3884 115.575C10.2525 128.002 29.2039 136.08 33.2428 143.536L33.5534 143.847L33.8641 143.536C37.903 135.769 56.5437 127.691 58.7185 115.575C59.3398 107.808 56.2331 99.7303 46.9127 97.8662Z" fill="url(#paint0_linear_1_4093)"/>
<path d="M102.524 109.983C97.8638 109.361 96.3104 112.468 95.9997 113.4C95.689 112.468 94.1356 109.361 89.4754 109.983C85.1259 110.915 83.5725 114.643 84.1939 118.371C85.1259 124.274 94.1356 128.002 95.9997 131.73C97.8638 128.002 106.873 124.274 107.806 118.371C108.427 114.643 106.873 110.604 102.524 109.983Z" fill="url(#paint1_linear_1_4093)"/>
<path d="M102.524 163.109C97.8638 162.488 96.3104 165.594 95.9997 166.526C95.689 165.594 94.1356 162.488 89.4754 163.109C85.1259 164.041 83.5725 167.769 84.1939 171.497C85.1259 177.4 94.1356 181.128 95.9997 184.856C97.8638 181.128 106.873 177.4 107.806 171.497C108.427 167.769 106.873 163.73 102.524 163.109Z" fill="url(#paint2_linear_1_4093)"/>
<path d="M102.524 56.8565C97.8638 56.2351 96.3104 59.3419 95.9997 60.274C95.689 59.3419 94.1356 56.2351 89.4754 56.8565C85.1259 57.7885 83.5725 61.5167 84.1939 65.2449C85.1259 71.1478 94.1356 74.8759 95.9997 78.604C97.8638 74.8759 106.873 71.1478 107.806 65.2449C108.427 61.5167 106.873 57.7885 102.524 56.8565Z" fill="url(#paint3_linear_1_4093)"/>
<path d="M22.3673 27.3421H9.00807C9.31875 21.4392 11.4935 16.4684 15.5324 12.7402C19.5712 9.01208 24.2314 7.14795 30.1343 7.14795C36.3479 7.14795 41.6294 9.01206 45.9789 12.4295C50.3285 15.847 52.5032 20.1965 52.5032 25.1674C52.5032 30.449 49.7071 35.4198 44.4255 39.7693C47.843 41.9441 50.3285 44.1189 51.8819 46.6043C53.4353 49.0897 54.3673 51.8859 54.3673 54.9927C54.3673 61.2063 52.1926 66.1771 48.1537 69.9053C44.1149 73.6334 38.5226 75.4975 31.6877 75.4975C25.4741 75.4975 20.1925 73.6334 16.1537 70.216C12.1149 66.4878 9.62944 61.5169 8.38672 55.3033H22.0566C23.61 61.5169 26.7168 64.6237 31.377 64.6237C33.5518 64.6237 35.7265 63.6917 37.2799 62.1383C38.8333 60.5849 39.7654 58.4101 39.7654 55.9247C39.7654 52.8179 38.8333 50.6432 36.9692 48.7791C35.1052 46.915 32.6197 45.9829 29.5129 45.9829H27.0275V34.7985H28.5809C31.6877 34.7985 34.1731 34.1771 36.0372 32.6237C37.9013 31.0703 38.8333 28.8956 38.8333 26.4101C38.8333 24.2354 38.212 22.0606 36.6586 20.5072C35.1052 18.9538 33.2411 18.0217 31.0663 18.0217C26.0955 17.7111 23.2993 20.8179 22.3673 27.3421Z" fill="url(#paint4_linear_1_4093)"/>
<defs>
<linearGradient id="paint0_linear_1_4093" x1="33.5068" y1="97.7717" x2="33.5068" y2="143.847" gradientUnits="userSpaceOnUse">
<stop stop-color="#FD4D1E"/>
<stop offset="1" stop-color="#AE1B06"/>
</linearGradient>
<linearGradient id="paint1_linear_1_4093" x1="95.9997" y1="109.901" x2="95.9997" y2="131.73" gradientUnits="userSpaceOnUse">
<stop stop-color="#FD4D1E"/>
<stop offset="1" stop-color="#AE1B06"/>
</linearGradient>
<linearGradient id="paint2_linear_1_4093" x1="95.9997" y1="163.027" x2="95.9997" y2="184.856" gradientUnits="userSpaceOnUse">
<stop stop-color="#FD4D1E"/>
<stop offset="1" stop-color="#AE1B06"/>
</linearGradient>
<linearGradient id="paint3_linear_1_4093" x1="95.9997" y1="56.775" x2="95.9997" y2="78.604" gradientUnits="userSpaceOnUse">
<stop stop-color="#FD4D1E"/>
<stop offset="1" stop-color="#AE1B06"/>
</linearGradient>
<linearGradient id="paint4_linear_1_4093" x1="31.377" y1="7.14795" x2="31.377" y2="75.4975" gradientUnits="userSpaceOnUse">
<stop stop-color="#FD4D1E"/>
<stop offset="1" stop-color="#AE1B06"/>
</linearGradient>
</defs>
</svg>
