<svg width="160" height="240" viewBox="0 0 160 240" fill="none" xmlns="http://www.w3.org/2000/svg">
<path d="M160 234.564C160 237.36 157.515 239.845 154.718 239.845H5.2814C2.48529 239.845 0 237.36 0 234.564V5.28217C0 2.48605 2.48529 0.000610352 5.2814 0.000610352H154.718C157.515 0.000610352 160 2.48605 160 5.28217V234.564Z" fill="white"/>
<path d="M50.0183 190.137C49.0862 189.205 48.1542 188.584 46.9115 187.652C39.1445 181.438 33.2415 172.739 33.2415 172.739C33.2415 172.739 27.3387 181.127 19.5717 187.652C18.6397 188.584 17.397 189.205 16.4649 190.137C11.1834 194.176 7.14453 197.283 7.14453 203.496C7.14453 207.224 8.69789 210.642 11.1833 213.127C13.6688 215.613 17.397 217.166 21.1251 217.166C25.1639 217.166 28.5815 215.613 31.0669 212.817C30.7562 214.681 30.1348 217.166 29.8241 218.409C27.6493 224.001 24.2318 226.176 24.5425 226.176H41.6299C41.9406 226.176 38.5231 223.69 36.3483 218.409C35.7269 216.855 35.4164 214.681 35.1057 212.817C37.5911 215.613 41.3193 217.166 45.0475 217.166C48.7756 217.166 52.193 215.613 54.9891 213.127C57.4745 210.642 59.0281 207.224 59.0281 203.496C59.0281 197.283 54.9892 194.176 50.0183 190.137Z" fill="url(#paint0_linear_1_4509)"/>
<path d="M113.089 101.283C111.225 99.7294 109.05 98.176 107.186 96.3119C92.2732 83.8847 80.1567 67.108 80.1567 67.108C80.1567 67.108 68.3508 83.8847 53.1275 96.3119C50.9527 98.176 49.0886 99.7294 47.2245 101.283C36.9721 109.36 29.2052 115.574 28.8945 127.691C28.8945 134.836 31.6906 141.36 36.6615 146.642C41.9431 151.613 48.7781 154.409 55.9237 154.72H56.2343C64.0013 154.72 70.8363 151.613 76.1179 146.331C75.1858 150.059 74.5643 154.72 73.6323 157.516C69.5934 168.39 62.7585 173.05 63.3799 173.05H97.244C97.5547 173.05 91.0305 168.39 86.9917 157.516C86.0596 154.72 85.1274 150.059 84.5061 146.331C89.7876 151.613 96.6227 154.72 104.079 154.72H104.39C111.846 154.72 118.681 151.924 123.652 146.642C128.933 141.671 131.729 134.836 131.419 127.691C131.108 115.574 123.341 109.36 113.089 101.283Z" fill="url(#paint1_linear_1_4509)"/>
<path d="M69.9025 69.5926L64.9315 63.6897C71.4557 56.8547 74.5627 48.4664 74.5627 38.5246C74.5627 28.8936 71.1451 20.5052 64.6209 13.9809C58.0966 7.45666 49.7082 4.03918 40.0771 4.03918C29.8247 4.03918 21.4363 7.45667 15.2227 14.6023C9.00914 21.4372 5.90234 29.5149 5.90234 37.9033C5.90234 48.4664 9.00925 56.8547 15.5335 63.6897C22.0578 70.5246 30.1355 73.6314 40.3879 73.6314C45.0481 73.6314 50.019 72.6994 55.9219 70.5246L61.2033 76.7382L69.9025 69.5926ZM55.3005 52.1945L48.7761 44.4275L39.1451 50.6411L46.2907 59.0295C43.4946 59.3402 41.3198 59.6508 39.4557 59.6508C34.1742 59.6508 30.1354 57.7868 26.7179 53.7479C23.3004 49.7091 21.7471 44.7382 21.7471 38.2139C21.7471 32.0004 23.611 27.0295 27.0285 23.3013C30.446 19.5732 35.1063 17.3984 40.6985 17.3984C46.2907 17.3984 50.951 19.2625 54.3685 23.3013C57.786 27.3402 59.6499 32.311 59.6499 39.146C59.0285 45.0489 57.7859 49.3984 55.3005 52.1945Z" fill="url(#paint2_linear_1_4509)"/>
<defs>
<linearGradient id="paint0_linear_1_4509" x1="33.0863" y1="172.739" x2="33.0863" y2="226.176" gradientUnits="userSpaceOnUse">
<stop stop-color="#320807"/>
<stop offset="1"/>
</linearGradient>
<linearGradient id="paint1_linear_1_4509" x1="80.1684" y1="67.108" x2="80.1684" y2="173.05" gradientUnits="userSpaceOnUse">
<stop stop-color="#320807"/>
<stop offset="1"/>
</linearGradient>
<linearGradient id="paint2_linear_1_4509" x1="40.2325" y1="4.03918" x2="40.2325" y2="76.7382" gradientUnits="userSpaceOnUse">
<stop stop-color="#320807"/>
<stop offset="1"/>
</linearGradient>
</defs>
</svg>
