<svg width="160" height="240" viewBox="0 0 160 240" fill="none" xmlns="http://www.w3.org/2000/svg">
<path d="M160 234.586C160 237.382 157.515 239.868 154.718 239.868H5.28159C2.48547 239.868 0 237.382 0 234.586V5.30449C0 2.50838 2.48547 0.0229492 5.28159 0.0229492H154.718C157.515 0.0229492 160 2.50838 160 5.30449V234.586Z" fill="white"/>
<path d="M47.2243 110.625C45.6709 110.625 44.1174 110.936 42.8747 111.557C44.7388 109.382 45.6709 106.586 45.6709 103.479C45.6709 96.6445 40.0787 91.0522 33.2437 91.0522C26.4088 91.0522 20.8165 96.6445 20.8165 103.479C20.8165 106.586 22.0592 109.382 23.6126 111.557C22.3699 110.936 20.8165 110.625 19.2631 110.625C12.4282 110.625 6.83594 116.217 6.83594 123.052C6.83594 129.887 12.4282 135.479 19.2631 135.479C25.166 135.479 30.1369 131.441 31.3796 125.848C31.6903 131.751 32.001 135.169 25.166 141.382C29.2049 141.382 37.5932 141.382 41.0107 141.382C34.1757 135.169 34.7971 131.441 34.7971 125.848C36.0398 131.441 41.0107 135.79 46.9136 135.79C53.7485 135.79 59.3408 130.198 59.3408 123.363C59.3408 116.217 53.7486 110.625 47.2243 110.625Z" fill="url(#paint0_linear_1_4275)"/>
<path d="M92.8921 78.6252C92.2707 78.6252 91.6493 78.6251 91.028 78.9358C91.6493 78.0038 92.2708 76.7611 92.2708 75.5184C92.2708 72.7222 90.096 70.2368 86.9892 70.2368C84.1931 70.2368 81.7076 72.4116 81.7076 75.5184C81.7076 76.7611 82.0183 78.0038 82.9504 78.9358C82.329 78.6251 81.7076 78.6252 81.0863 78.6252C78.2902 78.6252 75.8047 80.7999 75.8047 83.9067C75.8047 86.7028 77.9795 89.1882 81.0863 89.1882C83.5717 89.1882 85.7465 87.3242 86.0572 85.1494C86.0572 87.6348 86.3678 89.1882 83.5717 91.6737C85.4358 91.6737 88.8532 91.6737 90.096 91.6737C87.2998 88.8776 87.2999 87.6348 87.6106 85.1494C88.2319 87.6348 90.0959 89.1882 92.5814 89.1882C95.3775 89.1882 97.8629 87.0135 97.8629 83.9067C98.1736 80.7999 95.6882 78.6252 92.8921 78.6252Z" fill="url(#paint1_linear_1_4275)"/>
<path d="M92.8921 158.159C92.2707 158.159 91.6493 158.159 91.028 158.47C91.6493 157.538 92.2708 156.295 92.2708 155.053C92.2708 152.256 90.096 149.771 86.9892 149.771C84.1931 149.771 81.7076 151.946 81.7076 155.053C81.7076 156.295 82.0183 157.538 82.9504 158.47C82.329 158.159 81.7076 158.159 81.0863 158.159C78.2902 158.159 75.8047 160.334 75.8047 163.441C75.8047 166.237 77.9795 168.722 81.0863 168.722C83.5717 168.722 85.7465 166.858 86.0572 164.684C86.0572 167.169 86.3678 168.722 83.5717 171.208C85.4358 171.208 88.8532 171.208 90.096 171.208C87.2998 168.412 87.2999 167.169 87.6106 164.684C88.2319 167.169 90.0959 168.722 92.5814 168.722C95.3775 168.722 97.8629 166.548 97.8629 163.441C98.1736 160.334 95.6882 158.159 92.8921 158.159Z" fill="url(#paint2_linear_1_4275)"/>
<path d="M137.322 78.6252C136.7 78.6252 136.079 78.6251 135.458 78.9358C136.079 78.0038 136.7 76.7611 136.7 75.5184C136.7 72.7222 134.526 70.2368 131.419 70.2368C128.623 70.2368 126.137 72.4116 126.137 75.5184C126.137 76.7611 126.759 78.0038 127.38 78.9358C126.759 78.6251 126.137 78.6252 125.516 78.6252C122.72 78.6252 120.234 80.7999 120.234 83.9067C120.234 86.7028 122.409 89.1882 125.516 89.1882C128.001 89.1882 130.176 87.3242 130.487 85.1494C130.487 87.6348 130.797 89.1882 128.001 91.6737C129.865 91.6737 133.283 91.6737 134.526 91.6737C131.729 88.8776 131.729 87.6348 132.04 85.1494C132.662 87.6348 134.526 89.1882 137.011 89.1882C139.807 89.1882 142.293 87.0135 142.293 83.9067C142.293 80.7999 140.118 78.6252 137.322 78.6252Z" fill="url(#paint3_linear_1_4275)"/>
<path d="M137.322 158.159C136.7 158.159 136.079 158.159 135.458 158.47C136.079 157.538 136.7 156.295 136.7 155.053C136.7 152.256 134.526 149.771 131.419 149.771C128.623 149.771 126.137 151.946 126.137 155.053C126.137 156.295 126.759 157.538 127.38 158.47C126.759 158.159 126.137 158.159 125.516 158.159C122.72 158.159 120.234 160.334 120.234 163.441C120.234 166.237 122.409 168.722 125.516 168.722C128.001 168.722 130.176 166.858 130.487 164.684C130.487 167.169 130.797 168.722 128.001 171.208C129.865 171.208 133.283 171.208 134.526 171.208C131.729 168.412 131.729 167.169 132.04 164.684C132.662 167.169 134.526 168.722 137.011 168.722C139.807 168.722 142.293 166.548 142.293 163.441C142.293 160.334 140.118 158.159 137.322 158.159Z" fill="url(#paint4_linear_1_4275)"/>
<path d="M92.8921 118.392C92.2707 118.392 91.6493 118.392 91.028 118.702C91.6493 117.77 92.2708 116.528 92.2708 115.285C92.2708 112.489 90.096 110.003 86.9892 110.003C84.1931 110.003 81.7076 112.178 81.7076 115.285C81.7076 116.528 82.0183 117.77 82.9504 118.702C82.329 118.392 81.7076 118.392 81.0863 118.392C78.2902 118.392 75.8047 120.567 75.8047 123.673C75.8047 126.469 77.9795 128.955 81.0863 128.955C83.5717 128.955 85.7465 127.091 86.0572 124.916C86.0572 127.401 86.3678 128.955 83.5717 131.44C85.4358 131.44 88.8532 131.44 90.096 131.44C87.2998 128.644 87.2999 127.401 87.6106 124.916C88.2319 127.401 90.0959 128.955 92.5814 128.955C95.3775 128.955 97.8629 126.78 97.8629 123.673C98.1736 120.567 95.6882 118.392 92.8921 118.392Z" fill="url(#paint5_linear_1_4275)"/>
<path d="M92.8921 197.926C92.2707 197.926 91.6493 197.926 91.028 198.237C91.6493 197.305 92.2708 196.062 92.2708 194.819C92.2708 192.023 90.096 189.538 86.9892 189.538C84.1931 189.538 81.7076 191.712 81.7076 194.819C81.7076 196.062 82.0183 197.305 82.9504 198.237C82.329 197.926 81.7076 197.926 81.0863 197.926C78.2902 197.926 75.8047 200.101 75.8047 203.207C75.8047 206.004 77.9795 208.489 81.0863 208.489C83.5717 208.489 85.7465 206.625 86.0572 204.45C86.0572 206.936 86.3678 208.489 83.5717 210.974C85.4358 210.974 88.8532 210.974 90.096 210.974C87.2998 208.178 87.2999 206.936 87.6106 204.45C88.2319 206.936 90.0959 208.489 92.5814 208.489C95.3775 208.489 97.8629 206.314 97.8629 203.207C98.1736 200.101 95.6882 197.926 92.8921 197.926Z" fill="url(#paint6_linear_1_4275)"/>
<path d="M137.322 118.392C136.7 118.392 136.079 118.392 135.458 118.702C136.079 117.77 136.7 116.528 136.7 115.285C136.7 112.489 134.526 110.003 131.419 110.003C128.623 110.003 126.137 112.178 126.137 115.285C126.137 116.528 126.759 117.77 127.38 118.702C126.759 118.392 126.137 118.392 125.516 118.392C122.72 118.392 120.234 120.567 120.234 123.673C120.234 126.469 122.409 128.955 125.516 128.955C128.001 128.955 130.176 127.091 130.487 124.916C130.487 127.401 130.797 128.955 128.001 131.44C129.865 131.44 133.283 131.44 134.526 131.44C131.729 128.644 131.729 127.401 132.04 124.916C132.662 127.401 134.526 128.955 137.011 128.955C139.807 128.955 142.293 126.78 142.293 123.673C142.293 120.567 140.118 118.392 137.322 118.392Z" fill="url(#paint7_linear_1_4275)"/>
<path d="M114.951 100.683C114.329 100.683 113.708 100.683 113.087 100.993C113.708 100.061 114.329 98.8187 114.329 97.576C114.329 94.7799 112.155 92.2944 109.048 92.2944C106.252 92.2944 103.766 94.4692 103.766 97.576C103.766 98.8187 104.077 100.061 105.009 100.993C104.388 100.683 103.766 100.683 103.145 100.683C100.349 100.683 97.8633 102.858 97.8633 105.964C97.8633 108.76 100.038 111.246 103.145 111.246C105.63 111.246 107.805 109.382 108.116 107.207C108.116 109.692 108.426 111.246 105.63 113.731C107.494 113.731 110.912 113.731 112.155 113.731C109.358 110.935 109.358 109.692 109.669 107.207C110.29 109.692 112.155 111.246 114.64 111.246C117.436 111.246 119.922 109.071 119.922 105.964C120.232 102.858 118.057 100.683 114.951 100.683Z" fill="url(#paint8_linear_1_4275)"/>
<path d="M137.322 197.926C136.7 197.926 136.079 197.926 135.458 198.237C136.079 197.305 136.7 196.062 136.7 194.819C136.7 192.023 134.526 189.538 131.419 189.538C128.623 189.538 126.137 191.712 126.137 194.819C126.137 196.062 126.759 197.305 127.38 198.237C126.759 197.926 126.137 197.926 125.516 197.926C122.72 197.926 120.234 200.101 120.234 203.207C120.234 206.004 122.409 208.489 125.516 208.489C128.001 208.489 130.176 206.625 130.487 204.45C130.487 206.936 130.797 208.489 128.001 210.974C129.865 210.974 133.283 210.974 134.526 210.974C131.729 208.178 131.729 206.936 132.04 204.45C132.662 206.936 134.526 208.489 137.011 208.489C139.807 208.489 142.293 206.314 142.293 203.207C142.293 200.101 140.118 197.926 137.322 197.926Z" fill="url(#paint9_linear_1_4275)"/>
<path d="M34.7971 73.9647H17.0883L33.5543 51.5958C30.4475 51.9065 28.5835 52.2172 27.6514 52.2172C21.7485 52.2172 16.7777 50.0424 12.7388 45.6929C8.7 41.3433 6.83594 36.0618 6.83594 29.8482C6.83594 23.324 9.32136 17.7317 14.2922 13.3822C19.2631 9.03269 25.4767 6.85791 32.6223 6.85791C39.4573 6.85791 45.3602 9.03266 49.7097 13.6929C54.0592 18.0424 56.234 23.9453 56.234 31.0909C56.234 36.3725 54.9912 41.3434 52.5058 46.6249C50.0203 51.9065 47.8456 55.6346 45.9815 58.12L34.7971 73.9647ZM42.2534 30.7802C42.2534 27.9841 41.3214 25.4987 39.1466 23.3239C36.9718 21.1492 34.4864 20.2171 31.6903 20.2171C28.8942 20.2171 26.7194 21.1492 24.8553 23.3239C22.9912 25.4987 22.0592 27.9841 22.0592 30.7802C22.0592 33.5763 22.9912 36.0618 24.8553 37.9259C26.7194 39.7899 29.2048 41.0327 32.0009 41.0327C34.797 41.0327 37.2825 40.1006 39.4573 37.9259C41.3214 36.0618 42.2534 33.5763 42.2534 30.7802Z" fill="url(#paint10_linear_1_4275)"/>
<defs>
<linearGradient id="paint0_linear_1_4275" x1="33.0884" y1="91.0522" x2="33.0884" y2="141.382" gradientUnits="userSpaceOnUse">
<stop stop-color="#320807"/>
<stop offset="1"/>
</linearGradient>
<linearGradient id="paint1_linear_1_4275" x1="86.847" y1="70.2368" x2="86.847" y2="91.6737" gradientUnits="userSpaceOnUse">
<stop stop-color="#320807"/>
<stop offset="1"/>
</linearGradient>
<linearGradient id="paint2_linear_1_4275" x1="86.847" y1="149.771" x2="86.847" y2="171.208" gradientUnits="userSpaceOnUse">
<stop stop-color="#320807"/>
<stop offset="1"/>
</linearGradient>
<linearGradient id="paint3_linear_1_4275" x1="131.263" y1="70.2368" x2="131.263" y2="91.6737" gradientUnits="userSpaceOnUse">
<stop stop-color="#320807"/>
<stop offset="1"/>
</linearGradient>
<linearGradient id="paint4_linear_1_4275" x1="131.263" y1="149.771" x2="131.263" y2="171.208" gradientUnits="userSpaceOnUse">
<stop stop-color="#320807"/>
<stop offset="1"/>
</linearGradient>
<linearGradient id="paint5_linear_1_4275" x1="86.847" y1="110.003" x2="86.847" y2="131.44" gradientUnits="userSpaceOnUse">
<stop stop-color="#320807"/>
<stop offset="1"/>
</linearGradient>
<linearGradient id="paint6_linear_1_4275" x1="86.847" y1="189.538" x2="86.847" y2="210.974" gradientUnits="userSpaceOnUse">
<stop stop-color="#320807"/>
<stop offset="1"/>
</linearGradient>
<linearGradient id="paint7_linear_1_4275" x1="131.263" y1="110.003" x2="131.263" y2="131.44" gradientUnits="userSpaceOnUse">
<stop stop-color="#320807"/>
<stop offset="1"/>
</linearGradient>
<linearGradient id="paint8_linear_1_4275" x1="108.907" y1="92.2944" x2="108.907" y2="113.731" gradientUnits="userSpaceOnUse">
<stop stop-color="#320807"/>
<stop offset="1"/>
</linearGradient>
<linearGradient id="paint9_linear_1_4275" x1="131.263" y1="189.538" x2="131.263" y2="210.974" gradientUnits="userSpaceOnUse">
<stop stop-color="#320807"/>
<stop offset="1"/>
</linearGradient>
<linearGradient id="paint10_linear_1_4275" x1="31.535" y1="6.85791" x2="31.535" y2="73.9647" gradientUnits="userSpaceOnUse">
<stop stop-color="#320807"/>
<stop offset="1"/>
</linearGradient>
</defs>
</svg>
