<svg width="110" height="111" viewBox="0 0 110 111" fill="none" xmlns="http://www.w3.org/2000/svg">
<g filter="url(#filter0_d_1_3165)">
<path d="M55.2873 94.9744C79.2679 94.9744 98.708 75.5478 98.708 51.5839C98.708 27.62 79.2679 8.19336 55.2873 8.19336C31.3067 8.19336 11.8667 27.62 11.8667 51.5839C11.8667 75.5478 31.3067 94.9744 55.2873 94.9744Z" fill="url(#paint0_radial_1_3165)"/>
<path d="M55.2873 98.5928C81.2639 98.5928 102.326 77.5485 102.326 51.5839C102.326 25.6192 81.2639 4.57503 55.2873 4.57503C29.3108 4.57503 8.24837 25.6193 8.24837 51.5839C8.24837 77.5485 29.3108 98.5928 55.2873 98.5928Z" fill="url(#paint1_radial_1_3165)" stroke="url(#paint2_radial_1_3165)" stroke-width="7.23678"/>
<path d="M84.1308 49.2693C85.4877 65.202 73.2754 79.1008 57.3316 80.4568C41.3878 81.8128 27.4795 69.609 26.1226 53.6762C24.7656 37.7435 36.9779 23.8447 52.9217 22.4887C68.8655 21.4718 83.1131 33.3366 84.1308 49.2693Z" stroke="white" stroke-width="1.80919" stroke-miterlimit="10" stroke-dasharray="10.81 10.81"/>
<path d="M51.897 8.25085C45.7909 8.58985 40.024 10.2848 34.9355 12.9968L40.024 21.4716C43.7555 19.4377 48.1656 18.0817 52.9148 17.7427C52.9148 17.7427 52.9148 17.7427 53.254 17.7427V8.25085C52.5756 8.25085 52.2363 8.25085 51.897 8.25085Z" fill="white"/>
<path d="M13.2251 40.7947L23.0627 42.4897C24.4197 37.7437 26.4551 33.6758 29.5082 29.9469L21.3666 24.184C17.6351 29.2689 14.9212 34.6928 13.2251 40.7947Z" fill="white"/>
<path d="M28.1501 70.9649C25.097 66.897 23.0617 62.1511 22.3833 57.0662L12.8848 59.4391C14.2417 66.219 16.9556 71.9819 20.6871 77.4058L28.1501 70.9649Z" fill="white"/>
<path d="M35.9551 90.2876C42.0612 93.3386 48.5065 95.0335 55.6304 95.0335V85.2027C50.2027 85.2027 44.775 83.8467 40.0258 81.4738L35.9551 90.2876Z" fill="white"/>
<path d="M88.1962 79.441L81.0724 72.6611C78.0193 76.3901 73.9486 79.441 69.5386 81.814L73.2701 90.9668C79.3763 88.2549 84.4647 84.1869 88.1962 79.441Z" fill="white"/>
<path d="M98.3732 48.2524C98.034 45.2014 97.6948 42.4895 97.0164 39.7775L87.1787 41.4725C87.8572 43.8455 88.5356 46.2184 88.5356 48.5914C88.8748 51.3033 88.5356 54.0153 88.1964 56.7272L97.6947 59.1002C98.3732 55.7103 98.7125 51.9813 98.3732 48.2524Z" fill="white"/>
<path d="M73.2687 12.3205L68.5195 20.7954C72.9295 22.8293 77.0002 25.5413 80.0533 29.2702L88.1948 23.5073C84.1241 18.7614 79.0356 14.6935 73.2687 12.3205Z" fill="white"/>
<path d="M47.3046 43.6243V39.8963H39.1774L38.5943 47.7939C40.1609 46.4865 41.9807 45.8328 44.0537 45.8328C45.7145 45.8328 47.1574 46.2332 48.3823 47.0342C49.6191 47.8233 50.5614 48.8834 51.2092 50.2144C51.8688 51.5336 52.1986 52.9942 52.1986 54.596C52.1986 56.3746 51.8276 57.9471 51.0855 59.3134C50.3552 60.6797 49.2952 61.7398 47.9053 62.4936C46.5154 63.2356 44.8959 63.6067 43.0466 63.6067C40.3375 63.6067 38.2056 62.8411 36.6508 61.3098C35.0961 59.7669 34.2362 57.5525 34.0713 54.6667H37.4989C37.7227 56.4924 38.3175 57.9235 39.2834 58.96C40.2492 59.9965 41.5154 60.5148 43.082 60.5148C44.6485 60.5148 45.9265 59.9789 46.9159 58.907C47.9053 57.8352 48.4 56.4217 48.4 54.6667C48.4 52.8528 47.9347 51.457 47.0042 50.4794C46.0737 49.5018 44.8841 49.013 43.4353 49.013C41.3152 49.013 39.5425 50.0907 38.1173 52.2462C37.3281 51.4688 36.4035 50.8033 35.3434 50.2497L36.4212 36.5748H50.6085V43.6243H47.3046ZM75.5273 49.8787C75.5273 52.7762 75.1504 55.2556 74.3966 57.3169C73.6545 59.3782 72.5944 60.9447 71.2163 62.0166C69.85 63.0766 68.2246 63.6067 66.34 63.6067C63.3482 63.6067 61.0573 62.3699 59.4672 59.8964C57.8771 57.4229 57.082 54.0837 57.082 49.8787C57.082 46.9694 57.453 44.4841 58.1951 42.4229C58.9489 40.3498 60.0208 38.7774 61.4106 37.7055C62.8123 36.6337 64.4554 36.0977 66.34 36.0977C69.2846 36.0977 71.552 37.3286 73.1421 39.7903C74.7323 42.2521 75.5273 45.6149 75.5273 49.8787ZM66.34 60.4795C68.0832 60.4795 69.4024 59.655 70.2976 58.0059C71.2046 56.3569 71.658 53.6008 71.658 49.7374C71.658 45.9093 71.1928 43.2002 70.2623 41.6101C69.3318 40.0082 68.0126 39.2073 66.3047 39.2073C64.4672 39.2073 63.1185 40.1025 62.2587 41.8928C61.4106 43.6714 60.9866 46.3334 60.9866 49.8787C60.9866 53.6008 61.4342 56.2981 62.3294 57.9706C63.2246 59.6432 64.5614 60.4795 66.34 60.4795Z" fill="white"/>
</g>
<defs>
<filter id="filter0_d_1_3165" x="0.629883" y="0.956604" width="109.316" height="109.315" filterUnits="userSpaceOnUse" color-interpolation-filters="sRGB">
<feFlood flood-opacity="0" result="BackgroundImageFix"/>
<feColorMatrix in="SourceAlpha" type="matrix" values="0 0 0 0 0 0 0 0 0 0 0 0 0 0 0 0 0 0 127 0" result="hardAlpha"/>
<feOffset dy="4"/>
<feGaussianBlur stdDeviation="2"/>
<feComposite in2="hardAlpha" operator="out"/>
<feColorMatrix type="matrix" values="0 0 0 0 0 0 0 0 0 0 0 0 0 0 0 0 0 0 0.25 0"/>
<feBlend mode="normal" in2="BackgroundImageFix" result="effect1_dropShadow_1_3165"/>
<feBlend mode="normal" in="SourceGraphic" in2="effect1_dropShadow_1_3165" result="shape"/>
</filter>
<radialGradient id="paint0_radial_1_3165" cx="0" cy="0" r="1" gradientUnits="userSpaceOnUse" gradientTransform="translate(55.2767 51.5732) scale(43.4235 43.3934)">
<stop offset="0.692708"/>
<stop offset="0.859375" stop-color="#38B000"/>
<stop offset="1" stop-color="#0B450A"/>
</radialGradient>
<radialGradient id="paint1_radial_1_3165" cx="0" cy="0" r="1" gradientUnits="userSpaceOnUse" gradientTransform="translate(55.2767 51.5732) scale(43.4235 43.3934)">
<stop offset="0.692708"/>
<stop offset="0.859375" stop-color="#38B000"/>
<stop offset="1" stop-color="#0B450A"/>
</radialGradient>
<radialGradient id="paint2_radial_1_3165" cx="0" cy="0" r="1" gradientUnits="userSpaceOnUse" gradientTransform="translate(55.2874 51.6023) rotate(119.204) scale(49.7303 49.7162)">
<stop offset="0.625" stop-color="#6BD945"/>
<stop offset="1"/>
</radialGradient>
</defs>
</svg>
