<svg width="160" height="240" viewBox="0 0 160 240" fill="none" xmlns="http://www.w3.org/2000/svg">
<path d="M160 234.564C160 237.36 157.515 239.845 154.718 239.845H5.28156C2.48544 239.845 0 237.36 0 234.564V5.28204C0 2.48593 2.48544 0.000488281 5.28156 0.000488281H154.718C157.515 0.000488281 160 2.48593 160 5.28204V234.564Z" fill="white"/>
<path d="M50.0183 110.602C49.0863 109.67 48.1542 109.048 46.9115 108.116C39.1445 101.903 33.2416 93.2036 33.2416 93.2036C33.2416 93.2036 27.3387 101.592 19.5717 108.116C18.6397 109.048 17.397 109.67 16.4649 110.602C11.1834 114.64 7.14453 117.747 7.14453 123.961C7.14453 127.689 8.38725 131.107 11.1834 133.592C13.6688 136.077 17.397 137.631 21.1251 137.631C25.1639 137.631 28.5814 136.077 31.0669 133.281C30.7562 135.145 30.1348 137.631 29.8241 138.873C27.6494 144.466 24.2319 146.64 24.5426 146.64H41.63C41.9407 146.64 38.5232 144.155 36.3484 138.873C35.7271 137.32 35.4164 135.145 35.1057 133.281C37.5911 136.077 41.3193 137.631 45.0474 137.631C48.7756 137.631 52.1931 136.077 54.9892 133.592C57.4746 131.107 59.028 127.689 59.028 123.961C59.028 117.747 54.9892 114.64 50.0183 110.602Z" fill="url(#paint0_linear_1_4411)"/>
<path d="M103.147 155.65C102.836 155.34 102.214 155.029 101.904 154.718C98.4863 151.922 96.0009 148.194 96.0009 148.194C96.0009 148.194 93.5154 151.922 90.098 154.718C89.7873 155.029 89.1659 155.34 88.8552 155.65C86.6805 157.514 84.8164 158.757 84.8164 161.553C84.8164 163.107 85.4378 164.66 86.6805 165.592C87.9232 166.835 89.4766 167.456 91.03 167.456C92.5834 167.456 94.1368 166.835 95.3795 165.592C94.7582 166.214 94.7582 167.146 94.4475 167.767C93.5154 170.252 91.962 171.184 92.2727 171.184H99.729C99.729 171.184 98.4863 170.252 97.5543 167.767C97.2436 167.146 97.2436 166.214 96.9329 165.281C98.1756 166.524 99.729 167.146 101.282 167.146C102.836 167.146 104.389 166.524 105.632 165.281C106.875 164.039 107.496 162.796 107.496 161.243C107.185 158.757 105.321 157.514 103.147 155.65Z" fill="url(#paint1_linear_1_4411)"/>
<path d="M103.147 76.1172C102.836 75.8065 102.214 75.4958 101.904 75.1852C98.4863 72.3891 96.0009 68.6609 96.0009 68.6609C96.0009 68.6609 93.5154 72.3891 90.098 75.1852C89.7873 75.4958 89.1659 75.8065 88.8552 76.1172C86.6805 77.9813 84.8164 79.224 84.8164 82.0201C84.8164 83.5735 85.4378 85.1269 86.6805 86.059C87.9232 87.3017 89.4766 87.923 91.03 87.923C92.5834 87.923 94.1368 87.3017 95.3795 86.059C95.0688 86.991 95.0688 87.923 94.7582 88.5444C93.8261 91.0298 92.2727 91.9619 92.5834 91.9619H100.04C100.04 91.9619 98.797 91.0298 97.865 88.5444C97.5543 87.923 97.5543 86.991 97.2436 86.059C98.4863 87.3017 100.04 87.923 101.593 87.923C103.147 87.923 104.7 87.3017 105.943 86.059C107.185 84.8162 107.807 83.5735 107.807 82.0201C107.185 79.224 105.321 77.6706 103.147 76.1172Z" fill="url(#paint2_linear_1_4411)"/>
<path d="M35.1054 61.8266H54.0569V74.2538H7.76562L30.4452 45.6713C33.8627 41.3217 36.0375 37.9043 37.5909 35.4188C39.1443 32.6227 39.7656 30.1373 39.7656 27.9625C39.7656 25.4771 38.8336 23.3023 37.2802 21.7489C35.7268 20.1955 33.552 19.2635 31.0666 19.2635C28.2705 19.2635 26.0957 20.1955 24.853 22.3703C23.6103 24.545 22.6782 27.6518 22.3676 32.312H7.76562C7.76562 24.2344 9.94038 18.0208 14.9113 13.6712C19.5714 9.32173 25.4744 7.14697 32.62 7.14697C39.1443 7.14697 44.4258 9.01105 48.4647 12.7392C52.5035 16.4674 54.6782 21.4382 54.6782 27.3412C54.6782 33.2441 52.1928 39.4577 47.5326 46.6033L43.4938 52.5062C41.9404 54.681 40.0763 57.4771 37.5909 60.5839L35.1054 61.8266Z" fill="url(#paint3_linear_1_4411)"/>
<defs>
<linearGradient id="paint0_linear_1_4411" x1="33.0863" y1="93.2036" x2="33.0863" y2="146.64" gradientUnits="userSpaceOnUse">
<stop stop-color="#320807"/>
<stop offset="1"/>
</linearGradient>
<linearGradient id="paint1_linear_1_4411" x1="96.1562" y1="148.194" x2="96.1562" y2="171.184" gradientUnits="userSpaceOnUse">
<stop stop-color="#320807"/>
<stop offset="1"/>
</linearGradient>
<linearGradient id="paint2_linear_1_4411" x1="96.3116" y1="68.6609" x2="96.3116" y2="91.9619" gradientUnits="userSpaceOnUse">
<stop stop-color="#320807"/>
<stop offset="1"/>
</linearGradient>
<linearGradient id="paint3_linear_1_4411" x1="31.2219" y1="7.14697" x2="31.2219" y2="74.2538" gradientUnits="userSpaceOnUse">
<stop stop-color="#320807"/>
<stop offset="1"/>
</linearGradient>
</defs>
</svg>
