<svg width="160" height="240" viewBox="0 0 160 240" fill="none" xmlns="http://www.w3.org/2000/svg">
<path d="M160 234.563C160 237.36 157.515 239.845 154.718 239.845H5.28154C2.48543 239.845 0 237.36 0 234.563V5.28192C0 2.4858 2.48543 0.000366211 5.28154 0.000366211H154.718C157.515 0.000366211 160 2.4858 160 5.28192V234.563Z" fill="white"/>
<path d="M49.7098 110.602C48.7777 109.669 47.8457 109.048 46.603 108.116C38.836 101.903 32.933 93.2035 32.933 93.2035C32.933 93.2035 27.0301 101.592 19.2631 108.116C18.3311 109.048 17.0884 109.669 16.1563 110.602C10.8748 114.64 6.83594 117.747 6.83594 123.961C6.83594 127.689 8.07871 131.106 10.8748 133.592C13.3603 136.077 17.0884 137.631 20.8165 137.631C24.8554 137.631 28.2729 136.077 30.7583 133.281C30.4476 135.145 29.8263 137.631 29.5156 138.873C27.3408 144.466 23.9233 146.64 24.234 146.64H41.3214C41.6321 146.64 38.2146 144.155 36.0398 138.873C35.4184 137.32 35.1078 135.145 34.7971 133.281C37.2825 136.077 41.0107 137.631 44.7389 137.631C48.467 137.631 51.8844 136.077 54.6806 133.592C57.166 131.106 58.7195 127.689 58.7195 123.961C59.0301 117.747 54.9913 114.64 49.7098 110.602Z" fill="url(#paint0_linear_1_4442)"/>
<path d="M94.1348 169.009C93.8241 168.699 93.2027 168.388 92.8921 168.077C89.4746 165.281 86.9892 161.553 86.9892 161.553C86.9892 161.553 84.5037 165.281 81.0862 168.077C80.7755 168.388 80.1542 168.699 79.8435 169.009C77.6687 170.873 75.8047 172.116 75.8047 174.912C75.8047 176.466 76.4261 178.019 77.6688 178.951C78.9115 180.194 80.4649 180.815 82.0183 180.815C83.5717 180.815 85.1251 180.194 86.3678 178.951C86.0571 179.883 86.0571 180.815 85.7464 181.437C84.8143 183.922 83.261 184.854 83.5717 184.854H91.028C91.028 184.854 89.7852 183.922 88.8532 181.437C88.5425 180.815 88.5425 179.883 88.2319 178.951C89.4746 180.194 91.028 180.815 92.5814 180.815C94.1348 180.815 95.6881 180.194 96.9309 178.951C98.1736 177.708 98.795 176.466 98.795 174.912C98.1736 172.116 96.6202 170.563 94.1348 169.009Z" fill="url(#paint1_linear_1_4442)"/>
<path d="M94.1348 62.7575C93.8241 62.4468 93.2027 62.1361 92.8921 61.8254C89.4746 59.0293 86.9892 55.3011 86.9892 55.3011C86.9892 55.3011 84.5037 59.0293 81.0862 61.8254C80.7755 62.1361 80.1542 62.4468 79.8435 62.7575C77.6687 64.6215 75.8047 65.8642 75.8047 68.6604C75.8047 70.2138 76.4261 71.7672 77.6688 72.6992C78.9115 73.9419 80.4649 74.5633 82.0183 74.5633C83.5717 74.5633 85.1251 73.9419 86.3678 72.6992C86.0571 73.6312 86.0571 74.5633 85.7464 75.1846C84.8143 77.6701 83.261 78.6021 83.5717 78.6021H91.028C91.028 78.6021 89.7852 77.6701 88.8532 75.1846C88.5425 74.5633 88.5425 73.6312 88.2319 72.6992C89.4746 73.9419 91.028 74.5633 92.5814 74.5633C94.1348 74.5633 95.6881 73.9419 96.9309 72.6992C98.1736 71.4565 98.795 70.2138 98.795 68.6604C98.1736 65.8642 96.6202 64.6215 94.1348 62.7575Z" fill="url(#paint2_linear_1_4442)"/>
<path d="M94.1348 115.884C93.8241 115.574 93.2027 115.263 92.8921 114.952C89.4746 112.156 86.9892 108.428 86.9892 108.428C86.9892 108.428 84.5037 112.156 81.0862 114.952C80.7755 115.263 80.1542 115.574 79.8435 115.884C77.6687 117.748 75.8047 118.991 75.8047 121.787C75.8047 123.341 76.4261 124.894 77.6688 125.826C78.9115 127.069 80.4649 127.69 82.0183 127.69C83.5717 127.69 85.1251 127.069 86.3678 125.826C86.0571 126.758 86.0571 127.69 85.7464 128.312C84.8143 130.797 83.261 131.729 83.5717 131.729H91.028C91.028 131.729 89.7852 130.797 88.8532 128.312C88.5425 127.69 88.5425 126.758 88.2319 125.826C89.4746 127.069 91.028 127.69 92.5814 127.69C94.1348 127.69 95.6881 127.069 96.9309 125.826C98.1736 124.583 98.795 123.341 98.795 121.787C98.1736 118.991 96.6202 117.748 94.1348 115.884Z" fill="url(#paint3_linear_1_4442)"/>
<path d="M138.564 169.009C138.254 168.699 137.632 168.388 137.322 168.077C133.904 165.281 131.419 161.553 131.419 161.553C131.419 161.553 128.933 165.281 125.516 168.077C125.205 168.388 124.584 168.699 124.273 169.009C122.099 170.873 120.234 172.116 120.234 174.912C120.234 176.466 120.856 178.019 122.098 178.951C123.341 180.194 124.895 180.815 126.448 180.815C128.001 180.815 129.555 180.194 130.797 178.951C130.487 179.883 130.487 180.815 130.176 181.437C129.244 183.922 127.691 184.854 128.001 184.854H135.458C135.458 184.854 134.215 183.922 133.283 181.437C132.972 180.815 132.972 179.883 132.662 178.951C133.904 180.194 135.458 180.815 137.011 180.815C138.564 180.815 140.118 180.194 141.361 178.951C142.603 177.708 143.225 176.466 143.225 174.912C142.603 172.116 140.739 170.563 138.564 169.009Z" fill="url(#paint4_linear_1_4442)"/>
<path d="M138.564 62.7575C138.254 62.4468 137.632 62.1361 137.322 61.8254C133.904 59.0293 131.419 55.3011 131.419 55.3011C131.419 55.3011 128.933 59.0293 125.516 61.8254C125.205 62.1361 124.584 62.4468 124.273 62.7575C122.099 64.6215 120.234 65.8642 120.234 68.6604C120.234 70.2138 120.856 71.7672 122.098 72.6992C123.341 73.9419 124.895 74.5633 126.448 74.5633C128.001 74.5633 129.555 73.9419 130.797 72.6992C130.487 73.6312 130.487 74.5633 130.176 75.1846C129.244 77.6701 127.691 78.6021 128.001 78.6021H135.458C135.458 78.6021 134.215 77.6701 133.283 75.1846C132.972 74.5633 132.972 73.6312 132.662 72.6992C133.904 73.9419 135.458 74.5633 137.011 74.5633C138.564 74.5633 140.118 73.9419 141.361 72.6992C142.603 71.4565 143.225 70.2138 143.225 68.6604C142.603 65.8642 140.739 64.6215 138.564 62.7575Z" fill="url(#paint5_linear_1_4442)"/>
<path d="M138.564 115.884C138.254 115.574 137.632 115.263 137.322 114.952C133.904 112.156 131.419 108.428 131.419 108.428C131.419 108.428 128.933 112.156 125.516 114.952C125.205 115.263 124.584 115.574 124.273 115.884C122.099 117.748 120.234 118.991 120.234 121.787C120.234 123.341 120.856 124.894 122.098 125.826C123.341 127.069 124.895 127.69 126.448 127.69C128.001 127.69 129.555 127.069 130.797 125.826C130.487 126.758 130.487 127.69 130.176 128.312C129.244 130.797 127.691 131.729 128.001 131.729H135.458C135.458 131.729 134.215 130.797 133.283 128.312C132.972 127.69 132.972 126.758 132.662 125.826C133.904 127.069 135.458 127.69 137.011 127.69C138.564 127.69 140.118 127.069 141.361 125.826C142.603 124.583 143.225 123.341 143.225 121.787C142.603 118.991 140.739 117.748 138.564 115.884Z" fill="url(#paint6_linear_1_4442)"/>
<path d="M27.9624 6.8363H45.3604L28.8944 29.2052C31.0692 28.8946 33.2439 28.5839 35.108 28.5839C40.7002 28.5839 45.6711 30.7586 50.0206 35.1081C54.0594 39.4576 56.2342 44.4285 56.2342 50.3314C56.2342 57.1664 53.7488 62.7586 48.7779 67.4188C43.807 71.7683 37.5934 74.2538 30.1371 74.2538C23.3022 74.2538 17.3992 72.079 13.0497 67.7295C8.38954 63.38 6.21484 57.7877 6.21484 50.9528C6.21484 45.9819 7.45749 41.011 9.63224 35.7295C11.807 30.4479 14.2925 26.0984 17.0886 22.3703L27.9624 6.8363ZM41.0109 50.0207C41.0109 46.914 40.0789 44.4285 38.2148 42.5644C36.3507 40.3897 33.8653 39.4577 31.0692 39.4577C27.9624 39.4577 25.477 40.3897 23.3022 42.5644C21.1275 44.7392 20.1954 47.2246 20.1954 50.0207C20.1954 52.8169 21.1275 55.3023 23.3022 57.4771C25.477 59.6518 27.9624 60.5839 31.0692 60.5839C33.8653 60.5839 36.04 59.6518 37.9041 57.4771C40.0789 55.3023 41.0109 52.8169 41.0109 50.0207Z" fill="url(#paint7_linear_1_4442)"/>
<defs>
<linearGradient id="paint0_linear_1_4442" x1="32.7861" y1="93.2035" x2="32.7861" y2="146.64" gradientUnits="userSpaceOnUse">
<stop stop-color="#320807"/>
<stop offset="1"/>
</linearGradient>
<linearGradient id="paint1_linear_1_4442" x1="87.2998" y1="161.553" x2="87.2998" y2="184.854" gradientUnits="userSpaceOnUse">
<stop stop-color="#320807"/>
<stop offset="1"/>
</linearGradient>
<linearGradient id="paint2_linear_1_4442" x1="87.2998" y1="55.3011" x2="87.2998" y2="78.6021" gradientUnits="userSpaceOnUse">
<stop stop-color="#320807"/>
<stop offset="1"/>
</linearGradient>
<linearGradient id="paint3_linear_1_4442" x1="87.2998" y1="108.428" x2="87.2998" y2="131.729" gradientUnits="userSpaceOnUse">
<stop stop-color="#320807"/>
<stop offset="1"/>
</linearGradient>
<linearGradient id="paint4_linear_1_4442" x1="131.73" y1="161.553" x2="131.73" y2="184.854" gradientUnits="userSpaceOnUse">
<stop stop-color="#320807"/>
<stop offset="1"/>
</linearGradient>
<linearGradient id="paint5_linear_1_4442" x1="131.73" y1="55.3011" x2="131.73" y2="78.6021" gradientUnits="userSpaceOnUse">
<stop stop-color="#320807"/>
<stop offset="1"/>
</linearGradient>
<linearGradient id="paint6_linear_1_4442" x1="131.73" y1="108.428" x2="131.73" y2="131.729" gradientUnits="userSpaceOnUse">
<stop stop-color="#320807"/>
<stop offset="1"/>
</linearGradient>
<linearGradient id="paint7_linear_1_4442" x1="31.2245" y1="6.8363" x2="31.2245" y2="74.2538" gradientUnits="userSpaceOnUse">
<stop stop-color="#320807"/>
<stop offset="1"/>
</linearGradient>
</defs>
</svg>
