<svg width="160" height="240" viewBox="0 0 160 240" fill="none" xmlns="http://www.w3.org/2000/svg">
<path d="M160 234.563C160 237.36 157.515 239.845 154.718 239.845H5.28159C2.48547 239.845 0 237.36 0 234.563V5.28192C0 2.48581 2.48547 0.000366211 5.28159 0.000366211H154.718C157.515 0.000366211 160 2.48581 160 5.28192V234.563Z" fill="white"/>
<path d="M49.7097 110.602C48.7776 109.67 47.8456 109.048 46.6029 108.116C38.8359 101.903 32.933 93.2035 32.933 93.2035C32.933 93.2035 27.0301 101.592 19.2631 108.116C18.3311 109.048 17.0884 109.67 16.1563 110.602C10.8748 114.64 6.83594 117.747 6.83594 123.961C6.83594 127.689 8.07862 131.106 10.8747 133.592C13.3602 136.077 17.0884 137.631 20.8165 137.631C24.8554 137.631 28.2728 136.077 30.7583 133.281C30.4476 135.145 29.8262 137.631 29.5155 138.873C27.3408 144.466 23.9233 146.64 24.234 146.64H41.3213C41.632 146.64 38.2146 144.155 36.0398 138.873C35.4184 137.32 35.1078 135.145 34.7971 133.281C37.2825 136.077 41.0107 137.631 44.7388 137.631C48.467 137.631 51.8845 136.077 54.6806 133.592C57.166 131.106 58.7194 127.689 58.7194 123.961C59.0301 117.747 54.9912 114.64 49.7097 110.602Z" fill="url(#paint0_linear_1_4433)"/>
<path d="M94.1348 155.65C93.8241 155.339 93.2027 155.029 92.8921 154.718C89.4746 151.922 86.9891 148.194 86.9891 148.194C86.9891 148.194 84.5037 151.922 81.0862 154.718C80.7756 155.029 80.1542 155.339 79.8435 155.65C77.6688 157.514 75.8047 158.757 75.8047 161.553C75.8047 163.106 76.426 164.66 77.6687 165.592C78.9115 166.835 80.4649 167.456 82.0183 167.456C83.5717 167.456 85.1251 166.835 86.3678 165.592C86.0571 166.524 86.0571 167.456 85.7464 168.077C84.8144 170.563 83.261 171.495 83.5717 171.495H91.028C91.028 171.495 89.7853 170.563 88.8532 168.077C88.5425 167.456 88.5426 166.524 88.2319 165.592C89.4746 166.835 91.028 167.456 92.5814 167.456C94.1348 167.456 95.6882 166.835 96.9309 165.592C98.1736 164.349 98.795 163.106 98.795 161.553C98.1736 158.757 96.6202 157.514 94.1348 155.65Z" fill="url(#paint1_linear_1_4433)"/>
<path d="M94.1348 76.1168C93.8241 75.8062 93.2027 75.4955 92.8921 75.1848C89.4746 72.3887 86.9891 68.6605 86.9891 68.6605C86.9891 68.6605 84.5037 72.3887 81.0862 75.1848C80.7756 75.4955 80.1542 75.8062 79.8435 76.1168C77.6688 77.9809 75.8047 79.2236 75.8047 82.0198C75.8047 83.5732 76.426 85.1266 77.6687 86.0586C78.9115 87.3013 80.4649 87.9227 82.0183 87.9227C83.5717 87.9227 85.1251 87.3013 86.3678 86.0586C86.0571 86.9906 86.0571 87.9227 85.7464 88.544C84.8144 91.0295 83.261 91.9615 83.5717 91.9615H91.028C91.028 91.9615 89.7853 91.0295 88.8532 88.544C88.5425 87.9227 88.5426 86.9906 88.2319 86.0586C89.4746 87.3013 91.028 87.9227 92.5814 87.9227C94.1348 87.9227 95.6882 87.3013 96.9309 86.0586C98.1736 84.8159 98.795 83.5732 98.795 82.0198C98.1736 79.2236 96.6202 77.6702 94.1348 76.1168Z" fill="url(#paint2_linear_1_4433)"/>
<path d="M116.506 115.884C116.195 115.574 115.574 115.263 115.263 114.952C111.846 112.156 109.36 108.428 109.36 108.428C109.36 108.428 106.875 112.156 103.457 114.952C103.147 115.263 102.525 115.574 102.215 115.884C100.04 117.748 98.1758 118.991 98.1758 121.787C98.1758 123.341 98.7972 124.894 100.04 125.826C101.283 127.069 102.836 127.69 104.389 127.69C105.943 127.69 107.496 127.069 108.739 125.826C108.428 126.758 108.428 127.69 108.118 128.312C107.185 130.797 105.632 131.729 105.943 131.729H113.399C113.399 131.729 112.156 130.797 111.224 128.312C110.914 127.69 110.914 126.758 110.603 125.826C111.846 127.069 113.399 127.69 114.952 127.69C116.506 127.69 118.059 127.069 119.302 125.826C120.545 124.583 121.166 123.341 121.166 121.787C120.234 118.991 118.681 117.748 116.506 115.884Z" fill="url(#paint3_linear_1_4433)"/>
<path d="M138.564 155.65C138.254 155.339 137.632 155.029 137.322 154.718C133.904 151.922 131.419 148.194 131.419 148.194C131.419 148.194 128.933 151.922 125.516 154.718C125.205 155.029 124.584 155.339 124.273 155.65C122.098 157.514 120.234 158.757 120.234 161.553C120.234 163.106 120.856 164.66 122.098 165.592C123.341 166.835 124.895 167.456 126.448 167.456C128.001 167.456 129.555 166.835 130.797 165.592C130.487 166.524 130.487 167.456 130.176 168.077C129.244 170.563 127.691 171.495 128.001 171.495H135.458C135.458 171.495 134.215 170.563 133.283 168.077C132.972 167.456 132.972 166.524 132.662 165.592C133.904 166.835 135.458 167.456 137.011 167.456C138.564 167.456 140.118 166.835 141.361 165.592C142.603 164.349 143.225 163.106 143.225 161.553C142.603 158.757 140.739 157.514 138.564 155.65Z" fill="url(#paint4_linear_1_4433)"/>
<path d="M138.564 76.1168C138.254 75.8062 137.632 75.4955 137.322 75.1848C133.904 72.3887 131.419 68.6605 131.419 68.6605C131.419 68.6605 128.933 72.3887 125.516 75.1848C125.205 75.4955 124.584 75.8062 124.273 76.1168C122.098 77.9809 120.234 79.2236 120.234 82.0198C120.234 83.5732 120.856 85.1266 122.098 86.0586C123.341 87.3013 124.895 87.9227 126.448 87.9227C128.001 87.9227 129.555 87.3013 130.797 86.0586C130.487 86.9906 130.487 87.9227 130.176 88.544C129.244 91.0295 127.691 91.9615 128.001 91.9615H135.458C135.458 91.9615 134.215 91.0295 133.283 88.544C132.972 87.9227 132.972 86.9906 132.662 86.0586C133.904 87.3013 135.458 87.9227 137.011 87.9227C138.564 87.9227 140.118 87.3013 141.361 86.0586C142.603 84.8159 143.225 83.5732 143.225 82.0198C142.603 79.2236 140.739 77.6702 138.564 76.1168Z" fill="url(#paint5_linear_1_4433)"/>
<path d="M17.7087 6.8363H50.3301V18.9528H30.4465L29.8252 26.7198C37.2815 26.7198 43.1844 28.8946 47.2233 33.2441C51.2621 37.5936 53.4369 42.8751 53.4369 48.778C53.4369 55.613 50.9514 61.5159 45.6699 66.4868C40.3883 71.4577 34.1747 73.9431 27.0291 73.9431C23.6116 73.9431 20.8155 73.3217 18.0194 72.3897C15.5339 71.4577 12.4271 69.9043 9.32031 67.7295L10.8737 52.5062C18.0193 57.1664 23.6116 59.6518 27.9611 59.6518C30.7572 59.6518 33.5533 58.7198 35.7281 56.545C37.9028 54.3703 39.1456 51.8848 39.1456 49.0887C39.1456 45.9819 37.9028 43.1858 35.7281 41.3217C33.5533 39.147 30.7572 38.2149 27.3397 38.2149C23.3009 38.2149 19.2621 39.147 14.6019 41.0111L17.7087 6.8363Z" fill="url(#paint6_linear_1_4433)"/>
<defs>
<linearGradient id="paint0_linear_1_4433" x1="32.7861" y1="93.2035" x2="32.7861" y2="146.64" gradientUnits="userSpaceOnUse">
<stop stop-color="#320807"/>
<stop offset="1"/>
</linearGradient>
<linearGradient id="paint1_linear_1_4433" x1="87.2998" y1="148.194" x2="87.2998" y2="171.495" gradientUnits="userSpaceOnUse">
<stop stop-color="#320807"/>
<stop offset="1"/>
</linearGradient>
<linearGradient id="paint2_linear_1_4433" x1="87.2998" y1="68.6605" x2="87.2998" y2="91.9615" gradientUnits="userSpaceOnUse">
<stop stop-color="#320807"/>
<stop offset="1"/>
</linearGradient>
<linearGradient id="paint3_linear_1_4433" x1="109.671" y1="108.428" x2="109.671" y2="131.729" gradientUnits="userSpaceOnUse">
<stop stop-color="#320807"/>
<stop offset="1"/>
</linearGradient>
<linearGradient id="paint4_linear_1_4433" x1="131.73" y1="148.194" x2="131.73" y2="171.495" gradientUnits="userSpaceOnUse">
<stop stop-color="#320807"/>
<stop offset="1"/>
</linearGradient>
<linearGradient id="paint5_linear_1_4433" x1="131.73" y1="68.6605" x2="131.73" y2="91.9615" gradientUnits="userSpaceOnUse">
<stop stop-color="#320807"/>
<stop offset="1"/>
</linearGradient>
<linearGradient id="paint6_linear_1_4433" x1="31.3786" y1="6.8363" x2="31.3786" y2="73.9431" gradientUnits="userSpaceOnUse">
<stop stop-color="#320807"/>
<stop offset="1"/>
</linearGradient>
</defs>
</svg>
