<svg width="160" height="240" viewBox="0 0 160 240" fill="none" xmlns="http://www.w3.org/2000/svg">
<path d="M160 234.586C160 237.382 157.515 239.868 154.718 239.868H5.2814C2.48529 239.868 0 237.382 0 234.586V5.30449C0 2.50838 2.48529 0.0229492 5.2814 0.0229492H154.718C157.515 0.0229492 160 2.50838 160 5.30449V234.586Z" fill="white"/>
<path d="M46.9118 194.197C45.3584 194.197 43.8049 194.508 42.5622 195.129C44.4263 192.955 45.3584 190.158 45.3584 187.052C45.3584 180.217 39.7662 174.625 32.9312 174.625C26.0963 174.625 20.504 180.217 20.504 187.052C20.504 190.158 21.7468 192.955 23.3002 195.129C22.0575 194.508 20.504 194.197 18.9506 194.197C12.1157 194.197 6.52344 199.79 6.52344 206.624C6.52344 213.459 12.1157 219.052 18.9506 219.052C24.8535 219.052 29.8245 215.013 31.0672 209.421C31.3779 215.323 31.6886 218.741 24.8536 224.955C28.8924 224.955 37.2807 224.955 40.6982 224.955C33.8632 218.741 34.4846 215.013 34.4846 209.421C35.7273 215.013 40.6983 219.362 46.6012 219.362C53.4361 219.362 58.7176 213.77 58.7176 206.935C59.3389 199.479 53.7467 194.197 46.9118 194.197Z" fill="url(#paint0_linear_1_4293)"/>
<path d="M108.117 117.77C105.01 117.77 101.903 118.392 99.1068 119.635C102.835 115.285 105.01 109.693 105.01 103.479C105.01 89.8093 93.8253 78.6249 80.1554 78.6249C66.4855 78.6249 55.301 89.8093 55.301 103.479C55.301 109.693 57.4757 115.285 61.2038 119.635C58.4077 118.392 55.301 117.77 52.1942 117.77C38.5243 117.77 27.3398 128.955 27.3398 142.625C27.3398 156.295 38.5243 167.479 52.1942 167.479C64.3107 167.479 74.2524 159.091 76.7378 147.596C77.0485 159.402 77.9805 166.858 64.3106 179.285C72.699 179.285 89.7864 179.285 96.6214 179.285C82.6408 166.237 83.5728 159.091 84.1942 147.285C86.3689 158.78 96.6214 167.169 108.738 167.169C122.408 167.169 133.592 155.984 133.592 142.314C132.971 128.955 121.786 117.77 108.117 117.77Z" fill="url(#paint1_linear_1_4293)"/>
<path d="M69.9025 69.6151L64.9315 63.7122C71.4557 56.8773 74.5627 48.4889 74.5627 38.5472C74.5627 28.9161 71.1451 20.5278 64.6209 14.0035C58.0966 7.47923 49.7082 4.06177 40.0771 4.06177C29.8247 4.06177 21.4363 7.47922 15.2227 14.6249C9.00914 21.4598 5.90234 29.5375 5.90234 37.9258C5.90234 48.4889 9.00925 56.8773 15.5335 63.7122C22.0578 70.5472 30.1355 73.654 40.3879 73.654C45.0481 73.654 50.019 72.7219 55.9219 70.5472L61.2033 76.7608L69.9025 69.6151ZM55.3005 52.2171L48.7761 44.4501L39.1451 50.6637L46.2907 59.0521C43.4946 59.3627 41.3198 59.6734 39.4557 59.6734C34.1742 59.6734 30.1354 57.8093 26.7179 53.7705C23.3004 49.7317 21.7471 44.7608 21.7471 38.2365C21.7471 32.0229 23.611 27.0521 27.0285 23.3239C30.446 19.5957 35.1063 17.421 40.6985 17.421C46.2907 17.421 50.951 19.2851 54.3685 23.3239C57.786 27.3627 59.6499 32.3336 59.6499 39.1686C59.0285 45.0715 57.7859 49.421 55.3005 52.2171Z" fill="url(#paint2_linear_1_4293)"/>
<defs>
<linearGradient id="paint0_linear_1_4293" x1="32.6441" y1="174.625" x2="32.6441" y2="224.955" gradientUnits="userSpaceOnUse">
<stop stop-color="#320807"/>
<stop offset="1"/>
</linearGradient>
<linearGradient id="paint1_linear_1_4293" x1="80.4661" y1="78.6249" x2="80.4661" y2="179.285" gradientUnits="userSpaceOnUse">
<stop stop-color="#320807"/>
<stop offset="1"/>
</linearGradient>
<linearGradient id="paint2_linear_1_4293" x1="40.2325" y1="4.06177" x2="40.2325" y2="76.7608" gradientUnits="userSpaceOnUse">
<stop stop-color="#320807"/>
<stop offset="1"/>
</linearGradient>
</defs>
</svg>
