<svg width="110" height="110" viewBox="0 0 110 110" fill="none" xmlns="http://www.w3.org/2000/svg">
<g filter="url(#filter0_d_1_3193)">
<path d="M55.2888 94.6044C79.2693 94.6044 98.7095 75.1778 98.7095 51.2139C98.7095 27.25 79.2693 7.82336 55.2888 7.82336C31.3082 7.82336 11.8682 27.25 11.8682 51.2139C11.8682 75.1778 31.3082 94.6044 55.2888 94.6044Z" fill="url(#paint0_radial_1_3193)"/>
<path d="M55.2888 98.2227C81.2653 98.2227 102.328 77.1785 102.328 51.2139C102.328 25.2492 81.2653 4.20504 55.2888 4.20504C29.3122 4.20504 8.24984 25.2492 8.24984 51.2139C8.24984 77.1785 29.3122 98.2227 55.2888 98.2227Z" fill="url(#paint1_radial_1_3193)" stroke="url(#paint2_radial_1_3193)" stroke-width="7.23678"/>
<path d="M84.1288 48.8995C85.4857 64.8323 73.2735 78.731 57.3297 80.087C41.3859 81.443 27.4775 69.2392 26.1206 53.3065C24.7637 37.3737 36.9759 23.475 52.9197 22.119C68.8635 21.102 83.1111 32.9668 84.1288 48.8995Z" stroke="white" stroke-width="1.80919" stroke-miterlimit="10" stroke-dasharray="10.81 10.81"/>
<path d="M51.8965 7.88104C45.7904 8.22004 40.0235 9.91501 34.9351 12.627L40.0235 21.1018C43.755 19.0679 48.1651 17.7119 52.9143 17.3729C52.9143 17.3729 52.9143 17.3729 53.2535 17.3729V7.88104C52.5751 7.88104 52.2358 7.88104 51.8965 7.88104Z" fill="white"/>
<path d="M13.2227 40.4247L23.0603 42.1197C24.4172 37.3737 26.4527 33.3058 29.5057 29.5769L21.3641 23.814C17.6326 28.8989 14.9188 34.3228 13.2227 40.4247Z" fill="white"/>
<path d="M28.1511 70.5952C25.098 66.5272 23.0627 61.7813 22.3842 56.6964L12.8857 59.0694C14.2427 65.8493 16.9566 71.6122 20.6881 77.0361L28.1511 70.5952Z" fill="white"/>
<path d="M35.9565 89.918C42.0627 92.969 48.508 94.6639 55.6318 94.6639V84.8331C50.2041 84.8331 44.7764 83.4771 40.0272 81.1042L35.9565 89.918Z" fill="white"/>
<path d="M88.1962 79.071L81.0724 72.2911C78.0193 76.0201 73.9486 79.071 69.5386 81.444L73.2701 90.5968C79.3762 87.8849 84.4647 83.8169 88.1962 79.071Z" fill="white"/>
<path d="M98.3747 47.8826C98.0355 44.8316 97.6963 42.1197 97.0178 39.4077L87.1802 41.1027C87.8586 43.4756 88.5371 45.8486 88.5371 48.2216C88.8763 50.9335 88.5371 53.6455 88.1978 56.3574L97.6962 58.7304C98.3747 55.3404 98.7139 51.6115 98.3747 47.8826Z" fill="white"/>
<path d="M73.2697 11.9507L68.5205 20.4255C72.9305 22.4595 77.0012 25.1715 80.0543 28.9004L88.1958 23.1375C84.125 18.3916 79.0366 14.3236 73.2697 11.9507Z" fill="white"/>
<path d="M40.4739 60.1699V62.7706H31.866V60.1699H34.7919V44.0426H31.866V41.4985H37.7177V60.1699H40.4739ZM62.0146 52.1416C62.0146 54.4596 61.713 56.4432 61.11 58.0922C60.5163 59.7412 59.6683 60.9944 58.5658 61.8519C57.4727 62.7 56.1724 63.124 54.6647 63.124C52.2713 63.124 50.4386 62.1346 49.1665 60.1558C47.8944 58.177 47.2583 55.5056 47.2583 52.1416C47.2583 49.8142 47.5551 47.8259 48.1488 46.1769C48.7519 44.5185 49.6093 43.2605 50.7212 42.4031C51.8426 41.5456 53.1571 41.1168 54.6647 41.1168C57.0204 41.1168 58.8343 42.1015 60.1064 44.0709C61.3785 46.0403 62.0146 48.7305 62.0146 52.1416ZM54.6647 60.6222C56.0593 60.6222 57.1147 59.9626 57.8308 58.6434C58.5564 57.3242 58.9191 55.1192 58.9191 52.0285C58.9191 48.9661 58.5469 46.7988 57.8025 45.5268C57.0581 44.2452 56.0028 43.6045 54.6364 43.6045C53.1665 43.6045 52.0876 44.3206 51.3997 45.7529C50.7212 47.1758 50.382 49.3053 50.382 52.1416C50.382 55.1192 50.7401 57.2771 51.4562 58.6151C52.1724 59.9532 53.2419 60.6222 54.6647 60.6222ZM80.8132 52.1416C80.8132 54.4596 80.5117 56.4432 79.9086 58.0922C79.315 59.7412 78.4669 60.9944 77.3644 61.8519C76.2714 62.7 74.971 63.124 73.4634 63.124C71.07 63.124 69.2372 62.1346 67.9651 60.1558C66.693 58.177 66.057 55.5056 66.057 52.1416C66.057 49.8142 66.3538 47.8259 66.9474 46.1769C67.5505 44.5185 68.408 43.2605 69.5199 42.4031C70.6412 41.5456 71.9557 41.1168 73.4634 41.1168C75.8191 41.1168 77.633 42.1015 78.9051 44.0709C80.1772 46.0403 80.8132 48.7305 80.8132 52.1416ZM73.4634 60.6222C74.858 60.6222 75.9133 59.9626 76.6295 58.6434C77.355 57.3242 77.7178 55.1192 77.7178 52.0285C77.7178 48.9661 77.3456 46.7988 76.6012 45.5268C75.8568 44.2452 74.8014 43.6045 73.4351 43.6045C71.9651 43.6045 70.8862 44.3206 70.1983 45.7529C69.5199 47.1758 69.1807 49.3053 69.1807 52.1416C69.1807 55.1192 69.5387 57.2771 70.2549 58.6151C70.971 59.9532 72.0405 60.6222 73.4634 60.6222Z" fill="white"/>
</g>
<defs>
<filter id="filter0_d_1_3193" x="0.630859" y="0.586365" width="109.315" height="109.315" filterUnits="userSpaceOnUse" color-interpolation-filters="sRGB">
<feFlood flood-opacity="0" result="BackgroundImageFix"/>
<feColorMatrix in="SourceAlpha" type="matrix" values="0 0 0 0 0 0 0 0 0 0 0 0 0 0 0 0 0 0 127 0" result="hardAlpha"/>
<feOffset dy="4"/>
<feGaussianBlur stdDeviation="2"/>
<feComposite in2="hardAlpha" operator="out"/>
<feColorMatrix type="matrix" values="0 0 0 0 0 0 0 0 0 0 0 0 0 0 0 0 0 0 0.25 0"/>
<feBlend mode="normal" in2="BackgroundImageFix" result="effect1_dropShadow_1_3193"/>
<feBlend mode="normal" in="SourceGraphic" in2="effect1_dropShadow_1_3193" result="shape"/>
</filter>
<radialGradient id="paint0_radial_1_3193" cx="0" cy="0" r="1" gradientUnits="userSpaceOnUse" gradientTransform="translate(55.2781 51.2032) scale(43.4235 43.3934)">
<stop offset="0.354167"/>
<stop offset="0.859375" stop-color="#FFD600"/>
<stop offset="1" stop-color="#45380A"/>
</radialGradient>
<radialGradient id="paint1_radial_1_3193" cx="0" cy="0" r="1" gradientUnits="userSpaceOnUse" gradientTransform="translate(55.2781 51.2032) scale(43.4235 43.3934)">
<stop offset="0.755208"/>
<stop offset="0.875" stop-color="#FFD600"/>
<stop offset="1" stop-color="#45380A"/>
</radialGradient>
<radialGradient id="paint2_radial_1_3193" cx="0" cy="0" r="1" gradientUnits="userSpaceOnUse" gradientTransform="translate(55.2888 51.2323) rotate(119.204) scale(49.7303 49.7162)">
<stop offset="0.625" stop-color="#E2C21B"/>
<stop offset="1"/>
</radialGradient>
</defs>
</svg>
