<svg width="160" height="240" viewBox="0 0 160 240" fill="none" xmlns="http://www.w3.org/2000/svg">
<path d="M160 234.586C160 237.382 157.515 239.868 154.718 239.868H5.28156C2.48544 239.868 0 237.382 0 234.586V5.30449C0 2.50838 2.48544 0.0229492 5.28156 0.0229492H154.718C157.515 0.0229492 160 2.50838 160 5.30449V234.586Z" fill="white"/>
<path d="M35.1054 61.848H54.0569V74.2752H7.76562L30.4452 45.6927C33.8627 41.3432 36.0375 37.9257 37.5909 35.4403C39.1443 32.6442 39.7656 30.1587 39.7656 27.984C39.7656 25.4985 38.8336 23.3238 37.2802 21.7704C35.7268 20.217 33.552 19.2849 31.0666 19.2849C28.2705 19.2849 26.0957 20.217 24.853 22.3917C23.6103 24.5665 22.6782 27.6733 22.3676 32.3335H7.76562C7.76562 24.2558 9.94038 18.0422 14.9113 13.6927C19.5714 9.34319 25.4744 7.16846 32.62 7.16846C39.1443 7.16846 44.4258 9.03254 48.4647 12.7607C52.5035 16.4889 54.6782 21.4597 54.6782 27.3626C54.6782 33.2655 52.1928 39.4791 47.5326 46.6248L43.4938 52.5277C41.9404 54.7024 40.0763 57.4985 37.5909 60.6053L35.1054 61.848Z" fill="url(#paint0_linear_1_4194)"/>
<path d="M46.9118 110.625C45.3584 110.625 43.805 110.936 42.5623 111.557C44.4264 109.382 45.3584 106.586 45.3584 103.479C45.3584 96.6445 39.7662 91.0522 32.9312 91.0522C26.0963 91.0522 20.504 96.6445 20.504 103.479C20.504 106.586 21.7467 109.382 23.3001 111.557C22.0574 110.936 20.504 110.625 18.9506 110.625C12.1157 110.625 6.52344 116.217 6.52344 123.052C6.52344 129.887 12.1157 135.479 18.9506 135.479C24.8535 135.479 29.8244 131.441 31.0671 125.848C31.3778 131.751 31.6885 135.169 24.8535 141.382C28.8924 141.382 37.2807 141.382 40.6982 141.382C33.8632 135.169 34.4846 131.441 34.4846 125.848C35.7273 131.441 40.6982 135.79 46.6011 135.79C53.4361 135.79 59.0283 130.198 59.0283 123.363C59.339 116.217 53.7467 110.625 46.9118 110.625Z" fill="url(#paint1_linear_1_4194)"/>
<path d="M101.904 78.6252C101.282 78.6252 100.661 78.6251 100.04 78.9358C100.661 78.0038 101.282 76.7611 101.282 75.5184C101.282 72.7222 99.1077 70.2368 96.0009 70.2368C93.2048 70.2368 90.7193 72.4116 90.7193 75.5184C90.7193 76.7611 91.03 78.0038 91.962 78.9358C91.3407 78.6251 90.7193 78.6252 90.098 78.6252C87.3018 78.6252 84.8164 80.7999 84.8164 83.9067C84.8164 86.7028 86.9912 89.1882 90.098 89.1882C92.5834 89.1882 94.7582 87.3242 95.0688 85.1494C95.0688 87.6348 95.3795 89.1882 92.5834 91.6737C94.4475 91.6737 97.865 91.6737 99.1077 91.6737C96.3116 88.8776 96.3116 87.6348 96.6222 85.1494C97.2436 87.6348 99.1077 89.1882 101.593 89.1882C104.389 89.1882 106.875 87.0135 106.875 83.9067C106.875 80.7999 104.7 78.6252 101.904 78.6252Z" fill="url(#paint2_linear_1_4194)"/>
<path d="M101.904 158.159C101.282 158.159 100.661 158.159 100.04 158.47C100.661 157.538 101.282 156.295 101.282 155.053C101.282 152.256 99.1077 149.771 96.0009 149.771C93.2048 149.771 90.7193 151.946 90.7193 155.053C90.7193 156.295 91.03 157.538 91.962 158.47C91.3407 158.159 90.7193 158.159 90.098 158.159C87.3018 158.159 84.8164 160.334 84.8164 163.441C84.8164 166.237 86.9912 168.722 90.098 168.722C92.5834 168.722 94.7582 166.858 95.0688 164.684C95.0688 167.169 95.3795 168.722 92.5834 171.208C94.4475 171.208 97.865 171.208 99.1077 171.208C96.3116 168.412 96.3116 167.169 96.6222 164.684C97.2436 167.169 99.1077 168.722 101.593 168.722C104.389 168.722 106.875 166.548 106.875 163.441C106.875 160.334 104.7 158.159 101.904 158.159Z" fill="url(#paint3_linear_1_4194)"/>
<defs>
<linearGradient id="paint0_linear_1_4194" x1="31.2219" y1="7.16846" x2="31.2219" y2="74.2752" gradientUnits="userSpaceOnUse">
<stop stop-color="#320807"/>
<stop offset="1"/>
</linearGradient>
<linearGradient id="paint1_linear_1_4194" x1="32.782" y1="91.0522" x2="32.782" y2="141.382" gradientUnits="userSpaceOnUse">
<stop stop-color="#320807"/>
<stop offset="1"/>
</linearGradient>
<linearGradient id="paint2_linear_1_4194" x1="95.8455" y1="70.2368" x2="95.8455" y2="91.6737" gradientUnits="userSpaceOnUse">
<stop stop-color="#320807"/>
<stop offset="1"/>
</linearGradient>
<linearGradient id="paint3_linear_1_4194" x1="95.8455" y1="149.771" x2="95.8455" y2="171.208" gradientUnits="userSpaceOnUse">
<stop stop-color="#320807"/>
<stop offset="1"/>
</linearGradient>
</defs>
</svg>
