<svg width="160" height="241" viewBox="0 0 160 241" fill="none" xmlns="http://www.w3.org/2000/svg">
<path d="M160 235.497C160 238.293 157.515 240.779 154.718 240.779H5.28159C2.48547 240.779 0 238.293 0 235.497V6.21567C0 3.41956 2.48547 0.934082 5.28159 0.934082H154.718C157.515 0.934082 160 3.41956 160 6.21567V235.497Z" fill="white"/>
<path d="M46.9127 97.8662C36.9709 96.9342 33.8641 103.148 33.2428 105.323C32.3107 103.148 29.2039 96.9342 19.5728 97.8662C10.2524 99.4196 7.45636 107.808 8.3884 115.575C10.2525 128.002 29.2039 136.08 33.2428 143.536L33.5534 143.847L33.8641 143.536C37.903 135.769 56.5437 127.691 58.7185 115.575C59.0292 107.808 55.9224 99.7303 46.9127 97.8662Z" fill="url(#paint0_linear_1_4108)"/>
<path d="M93.5162 71.7695C88.856 71.1481 87.3025 74.2549 86.9919 75.187C86.6812 74.2549 85.1278 71.1481 80.4676 71.7695C76.1181 72.7015 74.5647 76.4296 75.1861 80.1578C76.1181 86.0607 85.1278 89.7889 86.9919 93.517C88.8559 89.7889 97.8657 86.0607 98.7977 80.1578C99.4191 76.7403 97.8657 72.7015 93.5162 71.7695Z" fill="url(#paint1_linear_1_4108)"/>
<path d="M115.571 109.982C110.911 109.361 109.357 112.468 109.047 113.4C108.736 112.468 107.183 109.361 102.522 109.982C98.1728 110.914 96.6194 114.643 97.2408 118.371C98.1728 124.274 107.183 128.002 109.047 131.73C110.911 128.002 119.92 124.274 120.852 118.371C121.474 114.643 120.231 110.604 115.571 109.982Z" fill="url(#paint2_linear_1_4108)"/>
<path d="M93.5162 151.614C88.856 150.993 87.3025 154.1 86.9919 155.032C86.6812 154.1 85.1278 150.993 80.4676 151.614C76.1181 152.546 74.5647 156.274 75.1861 160.003C76.1181 165.906 85.1278 169.634 86.9919 173.362C88.8559 169.634 97.8657 165.906 98.7977 160.003C99.4191 156.274 97.8657 152.236 93.5162 151.614Z" fill="url(#paint3_linear_1_4108)"/>
<path d="M137.942 71.7691C133.282 71.1478 131.728 74.2546 131.418 75.1866C131.107 74.2546 129.554 71.1478 124.893 71.7691C120.544 72.7012 118.99 76.4293 119.612 80.1574C120.544 86.0603 129.554 89.7885 131.418 93.5167C133.282 89.7885 142.291 86.0603 143.224 80.1574C143.534 76.7399 142.291 72.7012 137.942 71.7691Z" fill="url(#paint4_linear_1_4108)"/>
<path d="M137.942 151.614C133.282 150.992 131.728 154.099 131.418 155.031C131.107 154.099 129.554 150.992 124.893 151.614C120.544 152.546 118.99 156.274 119.612 160.002C120.544 165.905 129.554 169.633 131.418 173.361C133.282 169.633 142.291 165.905 143.224 160.002C143.534 156.274 142.291 152.235 137.942 151.614Z" fill="url(#paint5_linear_1_4108)"/>
<path d="M17.7087 7.76907H50.3301V19.8856H30.4465L29.8252 27.6525C37.2815 27.6525 43.1844 29.8273 47.2233 34.1768C51.2621 38.5264 53.4369 43.8079 53.4369 49.7108C53.4369 56.5458 50.9514 62.4487 45.6699 67.4196C40.3883 72.3905 34.1747 74.8759 27.0291 74.8759C23.6116 74.8759 20.8155 74.2545 18.0194 73.3225C15.5339 72.3904 12.4271 70.8371 9.32031 68.6623L10.8737 53.439C18.0193 58.0992 23.6116 60.5846 27.9611 60.5846C30.7572 60.5846 33.5533 59.6526 35.7281 57.4778C37.9028 55.3031 39.1456 52.8176 39.1456 50.0215C39.1456 46.9147 37.9028 44.1186 35.7281 42.2545C33.5533 40.0798 30.7572 39.1477 27.3397 39.1477C23.3009 39.1477 19.2621 40.0798 14.6019 41.9438L17.7087 7.76907Z" fill="url(#paint6_linear_1_4108)"/>
<defs>
<linearGradient id="paint0_linear_1_4108" x1="33.4791" y1="97.7717" x2="33.4791" y2="143.847" gradientUnits="userSpaceOnUse">
<stop stop-color="#FD4D1E"/>
<stop offset="1" stop-color="#AE1B06"/>
</linearGradient>
<linearGradient id="paint1_linear_1_4108" x1="86.9919" y1="71.688" x2="86.9919" y2="93.517" gradientUnits="userSpaceOnUse">
<stop stop-color="#FD4D1E"/>
<stop offset="1" stop-color="#AE1B06"/>
</linearGradient>
<linearGradient id="paint2_linear_1_4108" x1="109.055" y1="109.901" x2="109.055" y2="131.73" gradientUnits="userSpaceOnUse">
<stop stop-color="#FD4D1E"/>
<stop offset="1" stop-color="#AE1B06"/>
</linearGradient>
<linearGradient id="paint3_linear_1_4108" x1="86.9919" y1="151.533" x2="86.9919" y2="173.362" gradientUnits="userSpaceOnUse">
<stop stop-color="#FD4D1E"/>
<stop offset="1" stop-color="#AE1B06"/>
</linearGradient>
<linearGradient id="paint4_linear_1_4108" x1="131.375" y1="71.6877" x2="131.375" y2="93.5167" gradientUnits="userSpaceOnUse">
<stop stop-color="#FD4D1E"/>
<stop offset="1" stop-color="#AE1B06"/>
</linearGradient>
<linearGradient id="paint5_linear_1_4108" x1="131.375" y1="151.532" x2="131.375" y2="173.361" gradientUnits="userSpaceOnUse">
<stop stop-color="#FD4D1E"/>
<stop offset="1" stop-color="#AE1B06"/>
</linearGradient>
<linearGradient id="paint6_linear_1_4108" x1="31.3786" y1="7.76907" x2="31.3786" y2="74.8759" gradientUnits="userSpaceOnUse">
<stop stop-color="#FD4D1E"/>
<stop offset="1" stop-color="#AE1B06"/>
</linearGradient>
</defs>
</svg>
