<svg width="160" height="240" viewBox="0 0 160 240" fill="none" xmlns="http://www.w3.org/2000/svg">
<path d="M160 234.564C160 237.36 157.515 239.845 154.718 239.845H5.28159C2.48547 239.845 0 237.36 0 234.564V5.28204C0 2.48593 2.48547 0.000488281 5.28159 0.000488281H154.718C157.515 0.000488281 160 2.48593 160 5.28204V234.564Z" fill="white"/>
<path d="M49.7097 190.137C48.7776 189.205 47.8456 188.583 46.6029 187.651C38.8359 181.438 32.9329 172.739 32.9329 172.739C32.9329 172.739 27.0301 181.127 19.2631 187.651C18.3311 188.583 17.0884 189.205 16.1563 190.137C10.8748 194.176 6.83594 197.282 6.83594 203.496C6.83594 207.224 8.07862 210.642 10.8747 213.127C13.3602 215.613 17.0884 217.166 20.8165 217.166C24.8554 217.166 28.2727 215.613 30.7581 212.816C30.4474 214.681 29.8262 217.166 29.5155 218.409C27.3408 224.001 23.9232 226.176 24.2339 226.176H41.3213C41.632 226.176 38.2145 223.69 36.0397 218.409C35.4184 216.855 35.1078 214.681 34.7971 212.816C37.2825 215.613 41.0105 217.166 44.7387 217.166C48.4669 217.166 51.8844 215.613 54.6805 213.127C57.1659 210.642 58.7193 207.224 58.7193 203.496C59.03 197.282 54.9912 194.176 49.7097 190.137Z" fill="url(#paint0_linear_1_4515)"/>
<path d="M113.089 101.283C111.225 99.7293 109.05 98.1759 107.186 96.3118C92.2732 83.8846 80.1567 67.1079 80.1567 67.1079C80.1567 67.1079 68.3508 83.8846 53.1275 96.3118C50.9527 98.1759 49.0888 99.7293 47.2247 101.283C36.9723 109.36 29.2052 115.574 28.8945 127.69C28.8945 134.836 31.6906 141.36 36.6615 146.642C41.9431 151.613 48.7781 154.409 55.9237 154.72H56.2343C64.0013 154.72 70.8363 151.613 76.1179 146.331C75.1858 150.059 74.5645 154.72 73.6325 157.516C69.5936 168.389 62.7585 173.05 63.3799 173.05H97.244C97.5547 173.05 91.0305 168.389 86.9917 157.516C86.0596 154.72 85.1276 150.059 84.5063 146.331C89.7878 151.613 96.6227 154.72 104.079 154.72H104.39C111.846 154.72 118.681 151.923 123.652 146.642C128.933 141.671 131.729 134.836 131.729 127.69C131.108 115.574 123.03 109.36 113.089 101.283Z" fill="url(#paint1_linear_1_4515)"/>
<path d="M7.45703 6.21338H22.059V35.1066H22.3698L44.7386 6.21338H62.7582L36.9716 38.8347L64.0008 74.2522H46.292L22.3698 42.2522H22.059V74.2522H7.45703V6.21338Z" fill="url(#paint2_linear_1_4515)"/>
<defs>
<linearGradient id="paint0_linear_1_4515" x1="32.786" y1="172.739" x2="32.786" y2="226.176" gradientUnits="userSpaceOnUse">
<stop stop-color="#320807"/>
<stop offset="1"/>
</linearGradient>
<linearGradient id="paint1_linear_1_4515" x1="80.312" y1="67.1079" x2="80.312" y2="173.05" gradientUnits="userSpaceOnUse">
<stop stop-color="#320807"/>
<stop offset="1"/>
</linearGradient>
<linearGradient id="paint2_linear_1_4515" x1="35.7289" y1="6.21338" x2="35.7289" y2="74.2522" gradientUnits="userSpaceOnUse">
<stop stop-color="#320807"/>
<stop offset="1"/>
</linearGradient>
</defs>
</svg>
