<svg width="160" height="241" viewBox="0 0 160 241" fill="none" xmlns="http://www.w3.org/2000/svg">
<path d="M160 235.33C160 238.132 157.51 240.622 154.708 240.622H5.29186C2.49031 240.622 0 238.132 0 235.33V5.60267C0 2.80111 2.49031 0.310852 5.29186 0.310852H154.708C157.51 0.310852 160 2.80111 160 5.60267V235.33Z" fill="white"/>
<path d="M55.7209 120.467C48.2501 127.315 37.9777 141.323 32.9971 151.595C28.0166 141.323 17.7443 127.315 10.2734 120.467C17.7443 113.618 28.0166 99.6106 32.9971 89.3382C37.9777 99.6106 48.2501 113.618 55.7209 120.467Z" fill="url(#paint0_linear_1_4354)"/>
<path d="M96.4974 173.696C93.3845 176.497 89.3378 182.1 87.1588 186.458C84.9798 182.1 80.9332 176.497 77.8203 173.696C80.9332 170.894 84.9798 165.291 87.1588 160.933C89.0265 164.98 93.3845 170.583 96.4974 173.696Z" fill="url(#paint1_linear_1_4354)"/>
<path d="M96.4974 67.2376C93.3845 70.0391 89.3378 75.6422 87.1588 80.0002C84.9798 75.6422 80.9332 70.0391 77.8203 67.2376C80.9332 64.436 84.9798 58.8329 87.1588 54.4749C89.0265 58.8329 93.3845 64.436 96.4974 67.2376Z" fill="url(#paint2_linear_1_4354)"/>
<path d="M96.4974 120.466C93.3845 123.268 89.3378 128.871 87.1588 133.229C84.9798 128.871 80.9332 123.268 77.8203 120.466C80.9332 117.664 84.9798 112.061 87.1588 107.703C89.0265 111.75 93.3845 117.664 96.4974 120.466Z" fill="url(#paint3_linear_1_4354)"/>
<path d="M140.7 173.696C137.588 176.498 133.541 182.101 131.362 186.459C129.183 182.101 125.136 176.498 122.023 173.696C125.136 170.894 129.183 165.291 131.362 160.933C133.541 164.98 137.588 170.583 140.7 173.696Z" fill="url(#paint4_linear_1_4354)"/>
<path d="M140.7 67.2376C137.588 70.0391 133.541 75.6422 131.362 80.0002C129.183 75.6422 125.136 70.0391 122.023 67.2376C125.136 64.436 129.183 58.8329 131.362 54.4749C133.541 58.8329 137.588 64.436 140.7 67.2376Z" fill="url(#paint5_linear_1_4354)"/>
<path d="M140.7 120.466C137.588 123.268 133.541 128.871 131.362 133.229C129.183 128.871 125.136 123.268 122.023 120.466C125.136 117.665 129.183 112.062 131.362 107.704C133.541 111.75 137.588 117.665 140.7 120.466Z" fill="url(#paint6_linear_1_4354)"/>
<path d="M118.599 93.6966C115.486 96.4981 111.439 102.101 109.26 106.459C107.081 102.101 103.035 96.4981 99.9219 93.6966C103.035 90.895 107.081 85.2919 109.26 80.9339C111.439 85.2919 115.486 90.895 118.599 93.6966Z" fill="url(#paint7_linear_1_4354)"/>
<path d="M118.599 146.926C115.486 149.727 111.439 155.33 109.26 159.688C107.081 155.33 103.035 149.727 99.9219 146.926C103.035 144.124 107.081 138.521 109.26 134.163C111.439 138.521 115.486 144.124 118.599 146.926Z" fill="url(#paint8_linear_1_4354)"/>
<path d="M43.8911 38.9101C50.428 42.9568 53.5409 48.5599 53.5409 55.4081C53.5409 61.0112 51.3619 65.6805 47.3152 69.4159C43.2685 72.84 37.9767 74.7077 31.4397 74.7077C24.5915 74.7077 19.2997 72.84 15.253 69.4159C11.2063 65.9918 9.02734 61.3225 9.02734 55.7194C9.02734 48.8712 12.1401 43.2681 18.6771 39.2214C15.8755 36.7311 14.0078 34.5521 12.4514 32.3731C11.2063 30.1941 10.5838 27.3926 10.5838 24.591C10.5838 19.9218 12.4514 15.5638 15.8755 12.1397C19.6109 8.71553 24.5915 6.84784 30.8172 6.84784C37.0429 6.84784 42.0234 8.40426 45.7588 11.5171C49.4942 14.6299 51.3619 18.9879 51.3619 23.9685C51.9844 29.8828 49.1829 34.8634 43.8911 38.9101ZM39.5331 53.5404C39.5331 51.3614 38.5993 49.1824 37.0429 47.626C35.4865 46.0696 33.3074 45.1357 31.1284 45.1357C28.9494 45.1357 27.0818 46.0696 25.5254 47.626C23.9689 49.4937 23.0351 51.3614 23.0351 53.8517C23.0351 56.0307 23.9689 57.8984 25.5254 59.7661C27.0818 61.6338 28.9494 62.2564 31.1284 62.2564C33.3074 62.2564 35.4865 61.3225 37.0429 59.7661C38.5993 57.8984 39.5331 55.7194 39.5331 53.5404ZM38.288 26.1474C38.288 23.9684 37.6654 22.1007 36.4203 20.8556C35.1752 19.2992 33.3074 18.6766 31.4397 18.6766C29.572 18.6766 27.7043 19.2992 26.4592 20.5443C25.214 21.7895 24.5915 23.6572 24.5915 25.5249C24.5915 27.3926 25.214 29.2603 26.4592 30.5054C27.7043 31.7505 29.572 32.6844 31.4397 32.6844C33.3074 32.6844 34.8639 32.0618 36.4203 30.8167C37.6654 29.2603 38.288 27.7038 38.288 26.1474Z" fill="url(#paint9_linear_1_4354)"/>
<defs>
<linearGradient id="paint0_linear_1_4354" x1="32.9972" y1="89.3382" x2="32.9972" y2="151.595" gradientUnits="userSpaceOnUse">
<stop stop-color="#FD4D1E"/>
<stop offset="1" stop-color="#AE1B06"/>
</linearGradient>
<linearGradient id="paint1_linear_1_4354" x1="87.1588" y1="160.933" x2="87.1588" y2="186.458" gradientUnits="userSpaceOnUse">
<stop stop-color="#FD4D1E"/>
<stop offset="1" stop-color="#AE1B06"/>
</linearGradient>
<linearGradient id="paint2_linear_1_4354" x1="87.1588" y1="54.4749" x2="87.1588" y2="80.0002" gradientUnits="userSpaceOnUse">
<stop stop-color="#FD4D1E"/>
<stop offset="1" stop-color="#AE1B06"/>
</linearGradient>
<linearGradient id="paint3_linear_1_4354" x1="87.1588" y1="107.703" x2="87.1588" y2="133.229" gradientUnits="userSpaceOnUse">
<stop stop-color="#FD4D1E"/>
<stop offset="1" stop-color="#AE1B06"/>
</linearGradient>
<linearGradient id="paint4_linear_1_4354" x1="131.362" y1="160.933" x2="131.362" y2="186.459" gradientUnits="userSpaceOnUse">
<stop stop-color="#FD4D1E"/>
<stop offset="1" stop-color="#AE1B06"/>
</linearGradient>
<linearGradient id="paint5_linear_1_4354" x1="131.362" y1="54.4749" x2="131.362" y2="80.0002" gradientUnits="userSpaceOnUse">
<stop stop-color="#FD4D1E"/>
<stop offset="1" stop-color="#AE1B06"/>
</linearGradient>
<linearGradient id="paint6_linear_1_4354" x1="131.362" y1="107.704" x2="131.362" y2="133.229" gradientUnits="userSpaceOnUse">
<stop stop-color="#FD4D1E"/>
<stop offset="1" stop-color="#AE1B06"/>
</linearGradient>
<linearGradient id="paint7_linear_1_4354" x1="109.26" y1="80.9339" x2="109.26" y2="106.459" gradientUnits="userSpaceOnUse">
<stop stop-color="#FD4D1E"/>
<stop offset="1" stop-color="#AE1B06"/>
</linearGradient>
<linearGradient id="paint8_linear_1_4354" x1="109.26" y1="134.163" x2="109.26" y2="159.688" gradientUnits="userSpaceOnUse">
<stop stop-color="#FD4D1E"/>
<stop offset="1" stop-color="#AE1B06"/>
</linearGradient>
<linearGradient id="paint9_linear_1_4354" x1="31.2841" y1="6.84784" x2="31.2841" y2="74.7077" gradientUnits="userSpaceOnUse">
<stop stop-color="#FD4D1E"/>
<stop offset="1" stop-color="#AE1B06"/>
</linearGradient>
</defs>
</svg>
