<svg width="160" height="241" viewBox="0 0 160 241" fill="none" xmlns="http://www.w3.org/2000/svg">
<path d="M160 235.497C160 238.293 157.515 240.779 154.718 240.779H5.28154C2.48543 240.779 0 238.293 0 235.497V6.21567C0 3.41956 2.48543 0.934082 5.28154 0.934082H154.718C157.515 0.934082 160 3.41956 160 6.21567V235.497Z" fill="white"/>
<path d="M46.9126 97.8662C36.9709 96.9341 33.8641 103.148 33.2428 105.322C32.3107 103.148 29.2039 96.9341 19.5729 97.8662C10.2525 99.4196 7.45636 107.808 8.3884 115.575C10.2525 128.002 29.2039 136.08 33.2428 143.536L33.5535 143.847L33.8642 143.536C37.903 135.769 56.5438 127.691 58.7185 115.575C59.0292 107.808 55.9223 99.7303 46.9126 97.8662Z" fill="url(#paint0_linear_1_4117)"/>
<path d="M93.5161 109.982C88.856 109.361 87.3026 112.468 86.992 113.4C86.6813 112.468 85.1279 109.361 80.4677 109.982C76.1182 110.914 74.5647 114.643 75.1861 118.371C76.1181 124.274 85.1279 128.002 86.992 131.73C88.856 128.002 97.8657 124.274 98.7977 118.371C99.4191 114.643 97.8657 110.604 93.5161 109.982Z" fill="url(#paint1_linear_1_4117)"/>
<path d="M93.5161 163.109C88.856 162.488 87.3026 165.595 86.992 166.527C86.6813 165.595 85.1279 162.488 80.4677 163.109C76.1182 164.041 74.5647 167.77 75.1861 171.498C76.1181 177.401 85.1279 181.129 86.992 184.857C88.856 181.129 97.8657 177.401 98.7977 171.498C99.4191 167.77 97.8657 163.731 93.5161 163.109Z" fill="url(#paint2_linear_1_4117)"/>
<path d="M93.5161 56.8564C88.856 56.235 87.3026 59.3418 86.992 60.2739C86.6813 59.3418 85.1279 56.235 80.4677 56.8564C76.1182 57.7884 74.5647 61.5166 75.1861 65.2448C76.1181 71.1477 85.1279 74.8758 86.992 78.6039C88.856 74.8758 97.8657 71.1477 98.7977 65.2448C99.4191 61.5166 97.8657 57.7884 93.5161 56.8564Z" fill="url(#paint3_linear_1_4117)"/>
<path d="M137.942 109.983C133.282 109.361 131.728 112.468 131.418 113.4C131.107 112.468 129.554 109.361 124.893 109.983C120.544 110.915 118.991 114.643 119.612 118.371C120.544 124.274 129.554 128.002 131.418 131.73C133.282 128.002 142.291 124.274 143.223 118.371C143.534 114.643 142.291 110.604 137.942 109.983Z" fill="url(#paint4_linear_1_4117)"/>
<path d="M137.942 163.109C133.282 162.488 131.728 165.595 131.418 166.527C131.107 165.595 129.554 162.488 124.893 163.109C120.544 164.041 118.991 167.77 119.612 171.498C120.544 177.401 129.554 181.129 131.418 184.857C133.282 181.129 142.291 177.401 143.223 171.498C143.534 167.77 142.291 163.731 137.942 163.109Z" fill="url(#paint5_linear_1_4117)"/>
<path d="M137.942 56.8565C133.282 56.2351 131.728 59.3419 131.418 60.274C131.107 59.3419 129.554 56.2351 124.893 56.8565C120.544 57.7885 118.991 61.5167 119.612 65.2449C120.544 71.1478 129.554 74.8759 131.418 78.604C133.282 74.8759 142.291 71.1478 143.223 65.2449C143.534 61.5167 142.291 57.7885 137.942 56.8565Z" fill="url(#paint6_linear_1_4117)"/>
<path d="M27.9624 7.76904H45.3604L28.8944 30.138C31.0692 29.8273 33.2439 29.5166 35.108 29.5166C40.7002 29.5166 45.6711 31.6914 50.0206 36.0409C54.0594 40.3904 56.2342 45.3613 56.2342 51.2642C56.2342 58.0991 53.7488 63.6914 48.7779 68.3516C43.807 72.7011 37.5934 75.1865 30.1371 75.1865C23.3022 75.1865 17.3992 73.0118 13.0497 68.6623C8.38954 64.3127 6.21484 58.7205 6.21484 51.8856C6.21484 46.9147 7.45749 41.9438 9.63224 36.6622C11.807 31.3806 14.2925 27.0312 17.0886 23.303L27.9624 7.76904ZM41.0109 50.9535C41.0109 47.8467 40.0789 45.3613 38.2148 43.4972C36.3507 41.3224 33.8653 40.3904 31.0692 40.3904C27.9624 40.3904 25.477 41.3224 23.3022 43.4972C21.1275 45.6719 20.1954 48.1574 20.1954 50.9535C20.1954 53.7496 21.1275 56.235 23.3022 58.4098C25.477 60.5845 27.9624 61.5166 31.0692 61.5166C33.8653 61.5166 36.04 60.5845 37.9041 58.4098C40.0789 56.235 41.0109 53.7496 41.0109 50.9535Z" fill="url(#paint7_linear_1_4117)"/>
<defs>
<linearGradient id="paint0_linear_1_4117" x1="33.4791" y1="97.7716" x2="33.4791" y2="143.847" gradientUnits="userSpaceOnUse">
<stop stop-color="#FD4D1E"/>
<stop offset="1" stop-color="#AE1B06"/>
</linearGradient>
<linearGradient id="paint1_linear_1_4117" x1="86.9919" y1="109.901" x2="86.9919" y2="131.73" gradientUnits="userSpaceOnUse">
<stop stop-color="#FD4D1E"/>
<stop offset="1" stop-color="#AE1B06"/>
</linearGradient>
<linearGradient id="paint2_linear_1_4117" x1="86.9919" y1="163.028" x2="86.9919" y2="184.857" gradientUnits="userSpaceOnUse">
<stop stop-color="#FD4D1E"/>
<stop offset="1" stop-color="#AE1B06"/>
</linearGradient>
<linearGradient id="paint3_linear_1_4117" x1="86.9919" y1="56.7749" x2="86.9919" y2="78.6039" gradientUnits="userSpaceOnUse">
<stop stop-color="#FD4D1E"/>
<stop offset="1" stop-color="#AE1B06"/>
</linearGradient>
<linearGradient id="paint4_linear_1_4117" x1="131.375" y1="109.901" x2="131.375" y2="131.73" gradientUnits="userSpaceOnUse">
<stop stop-color="#FD4D1E"/>
<stop offset="1" stop-color="#AE1B06"/>
</linearGradient>
<linearGradient id="paint5_linear_1_4117" x1="131.375" y1="163.028" x2="131.375" y2="184.857" gradientUnits="userSpaceOnUse">
<stop stop-color="#FD4D1E"/>
<stop offset="1" stop-color="#AE1B06"/>
</linearGradient>
<linearGradient id="paint6_linear_1_4117" x1="131.375" y1="56.775" x2="131.375" y2="78.604" gradientUnits="userSpaceOnUse">
<stop stop-color="#FD4D1E"/>
<stop offset="1" stop-color="#AE1B06"/>
</linearGradient>
<linearGradient id="paint7_linear_1_4117" x1="31.2245" y1="7.76904" x2="31.2245" y2="75.1865" gradientUnits="userSpaceOnUse">
<stop stop-color="#FD4D1E"/>
<stop offset="1" stop-color="#AE1B06"/>
</linearGradient>
</defs>
</svg>
