<svg width="160" height="241" viewBox="0 0 160 241" fill="none" xmlns="http://www.w3.org/2000/svg">
<path d="M160 234.874C160 237.67 157.515 240.156 154.719 240.156H5.28159C2.48547 240.156 0 237.67 0 234.874V5.59276C0 2.79665 2.48547 0.311218 5.28159 0.311218H154.719C157.515 0.311218 160 2.79665 160 5.59276V234.874Z" fill="white"/>
<path d="M35.4179 5.90344H50.0198V54.0588C50.0198 60.2724 48.1557 65.2433 44.7382 69.2821C41.3208 73.0102 36.6605 74.8743 31.0683 74.8743C27.0294 74.8743 23.3013 73.6316 20.1945 71.1462C17.0877 68.6608 14.6024 65.2433 12.7383 60.2724L23.3013 52.1947V52.5054C23.3013 52.5054 23.6121 53.4374 24.2335 54.6802C24.8548 55.9229 25.7868 57.4763 26.7189 58.719C27.6509 59.9617 28.5829 60.5831 29.8257 60.5831C31.3791 60.5831 32.6217 59.9617 33.8645 58.4083C34.7965 57.1656 35.4179 55.3015 35.4179 53.1268V5.90344Z" fill="url(#paint0_linear_1_4395)"/>
<path d="M55.9216 199.767C48.4653 206.602 38.2129 220.583 33.2421 230.835C28.2712 220.583 18.0188 206.602 10.5625 199.767C18.0188 192.933 28.2712 178.952 33.2421 168.7C38.2129 178.952 48.4653 192.933 55.9216 199.767Z" fill="url(#paint1_linear_1_4395)"/>
<path d="M125.203 120.234C110.29 133.903 90.0958 161.243 80.154 181.748C70.2123 161.243 50.0181 133.903 35.1055 120.234C50.0181 106.564 70.2123 79.2239 80.154 58.7191C90.0958 79.2239 109.979 106.564 125.203 120.234Z" fill="url(#paint2_linear_1_4395)"/>
<defs>
<linearGradient id="paint0_linear_1_4395" x1="31.3791" y1="5.90344" x2="31.3791" y2="74.8743" gradientUnits="userSpaceOnUse">
<stop stop-color="#FD4D1E"/>
<stop offset="1" stop-color="#AE1B06"/>
</linearGradient>
<linearGradient id="paint1_linear_1_4395" x1="33.2421" y1="168.7" x2="33.2421" y2="230.835" gradientUnits="userSpaceOnUse">
<stop stop-color="#FD4D1E"/>
<stop offset="1" stop-color="#AE1B06"/>
</linearGradient>
<linearGradient id="paint2_linear_1_4395" x1="80.154" y1="58.7191" x2="80.154" y2="181.748" gradientUnits="userSpaceOnUse">
<stop stop-color="#FD4D1E"/>
<stop offset="1" stop-color="#AE1B06"/>
</linearGradient>
</defs>
</svg>
