<svg width="160" height="240" viewBox="0 0 160 240" fill="none" xmlns="http://www.w3.org/2000/svg">
<path d="M160 234.586C160 237.382 157.515 239.868 154.718 239.868H5.28159C2.48547 239.868 0 237.382 0 234.586V5.30449C0 2.50838 2.48547 0.0229492 5.28159 0.0229492H154.718C157.515 0.0229492 160 2.50838 160 5.30449V234.586Z" fill="white"/>
<path d="M46.9118 194.197C45.3584 194.197 43.8051 194.508 42.5624 195.129C44.4265 192.955 45.3584 190.158 45.3584 187.052C45.3584 180.217 39.7662 174.625 32.9312 174.625C26.0963 174.625 20.504 180.217 20.504 187.052C20.504 190.158 21.7468 192.955 23.3002 195.129C22.0575 194.508 20.504 194.197 18.9506 194.197C12.1157 194.197 6.52344 199.79 6.52344 206.624C6.52344 213.459 12.1157 219.052 18.9506 219.052C24.8535 219.052 29.8245 215.013 31.0672 209.421C31.3779 215.323 31.6886 218.741 24.8536 224.955C28.8924 224.955 37.2807 224.955 40.6982 224.955C33.8632 218.741 34.4846 215.013 34.4846 209.421C35.7273 215.013 40.6983 219.362 46.6012 219.362C53.4361 219.362 59.0284 213.77 59.0284 206.935C59.3391 199.479 53.7467 194.197 46.9118 194.197Z" fill="url(#paint0_linear_1_4298)"/>
<path d="M108.117 117.77C105.01 117.77 101.903 118.392 99.1068 119.635C102.835 115.285 105.01 109.693 105.01 103.479C105.01 89.8093 93.8253 78.6249 80.1554 78.6249C66.4855 78.6249 55.301 89.8093 55.301 103.479C55.301 109.693 57.4758 115.285 61.204 119.635C58.4079 118.392 55.301 117.77 52.1942 117.77C38.5243 117.77 27.3398 128.955 27.3398 142.625C27.3398 156.295 38.5243 167.479 52.1942 167.479C64.3107 167.479 74.2525 159.091 76.738 147.596C77.0487 159.402 77.9807 166.858 64.3108 179.285C72.6991 179.285 89.7864 179.285 96.6214 179.285C82.6408 166.237 83.5728 159.091 84.1942 147.285C86.3689 158.78 96.6214 167.169 108.738 167.169C122.408 167.169 133.592 155.984 133.592 142.314C132.971 128.955 121.786 117.77 108.117 117.77Z" fill="url(#paint1_linear_1_4298)"/>
<path d="M7.45703 6.54736H22.059V35.1299H22.3698L44.7386 6.54736H62.7582L36.9716 39.1687L64.0008 74.5862H46.292L22.3698 42.5862H22.059V74.5862H7.45703V6.54736Z" fill="url(#paint2_linear_1_4298)"/>
<defs>
<linearGradient id="paint0_linear_1_4298" x1="32.7821" y1="174.625" x2="32.7821" y2="224.955" gradientUnits="userSpaceOnUse">
<stop stop-color="#320807"/>
<stop offset="1"/>
</linearGradient>
<linearGradient id="paint1_linear_1_4298" x1="80.4661" y1="78.6249" x2="80.4661" y2="179.285" gradientUnits="userSpaceOnUse">
<stop stop-color="#320807"/>
<stop offset="1"/>
</linearGradient>
<linearGradient id="paint2_linear_1_4298" x1="35.7289" y1="6.54736" x2="35.7289" y2="74.5862" gradientUnits="userSpaceOnUse">
<stop stop-color="#320807"/>
<stop offset="1"/>
</linearGradient>
</defs>
</svg>
