<svg width="160" height="240" viewBox="0 0 160 240" fill="none" xmlns="http://www.w3.org/2000/svg">
<path d="M160 234.586C160 237.382 157.515 239.868 154.718 239.868H5.28154C2.48543 239.868 0 237.382 0 234.586V5.30455C0 2.50844 2.48543 0.0230103 5.28154 0.0230103H154.718C157.515 0.0230103 160 2.50844 160 5.30455V234.586Z" fill="white"/>
<path d="M46.9118 110.625C45.3584 110.625 43.805 110.936 42.5623 111.557C44.4263 109.382 45.3584 106.586 45.3584 103.479C45.3584 96.6445 39.7662 91.0523 32.9312 91.0523C26.0963 91.0523 20.504 96.6445 20.504 103.479C20.504 106.586 21.7467 109.382 23.3001 111.557C22.0574 110.936 20.504 110.625 18.9506 110.625C12.1157 110.625 6.52344 116.217 6.52344 123.052C6.52344 129.887 12.1157 135.479 18.9506 135.479C24.8535 135.479 29.8244 131.441 31.0671 125.848C31.3778 131.751 31.6885 135.169 24.8535 141.382C28.8924 141.382 37.2807 141.382 40.6982 141.382C33.8632 135.169 34.4846 131.441 34.4846 125.848C35.7273 131.441 40.6982 135.79 46.6011 135.79C53.4361 135.79 59.0283 130.198 59.0283 123.363C59.339 116.217 53.7467 110.625 46.9118 110.625Z" fill="url(#paint0_linear_1_4202)"/>
<path d="M101.591 64.6448C100.97 64.6448 100.349 64.6447 99.7272 64.9554C100.349 64.0234 100.97 62.7807 100.97 61.538C100.97 58.7418 98.7952 56.2564 95.6884 56.2564C92.8923 56.2564 90.4068 58.4312 90.4068 61.538C90.4068 62.7807 90.7175 64.0234 91.6495 64.9554C91.0282 64.6447 90.4068 64.6448 89.7855 64.6448C86.9893 64.6448 84.5039 66.8195 84.5039 69.9263C84.5039 72.7224 86.6787 75.2078 89.7855 75.2078C92.2709 75.2078 94.4457 73.3438 94.7563 71.169C94.7563 73.6544 95.067 75.2078 92.2709 77.6933C94.135 77.6933 97.5524 77.6933 98.7952 77.6933C95.999 74.8972 95.9991 73.6544 96.3097 71.169C96.9311 73.6544 98.7952 75.2078 101.281 75.2078C104.077 75.2078 106.562 73.0331 106.562 69.9263C106.873 66.8195 104.698 64.6448 101.591 64.6448Z" fill="url(#paint1_linear_1_4202)"/>
<path d="M101.591 117.771C100.97 117.771 100.349 117.771 99.7272 118.081C100.349 117.149 100.97 115.907 100.97 114.664C100.97 111.868 98.7952 109.382 95.6884 109.382C92.8923 109.382 90.4068 111.557 90.4068 114.664C90.4068 115.907 90.7175 117.149 91.6495 118.081C91.0282 117.771 90.4068 117.771 89.7855 117.771C86.9893 117.771 84.5039 119.946 84.5039 123.052C84.5039 125.848 86.6787 128.334 89.7855 128.334C92.2709 128.334 94.4457 126.47 94.7563 124.295C94.7563 126.78 95.067 128.334 92.2709 130.819C94.135 130.819 97.5524 130.819 98.7952 130.819C95.999 128.023 95.9991 126.78 96.3097 124.295C96.9311 126.78 98.7952 128.334 101.281 128.334C104.077 128.334 106.562 126.159 106.562 123.052C106.873 119.946 104.698 117.771 101.591 117.771Z" fill="url(#paint2_linear_1_4202)"/>
<path d="M101.591 170.897C100.97 170.897 100.349 170.897 99.7272 171.207C100.349 170.275 100.97 169.033 100.97 167.79C100.97 164.994 98.7952 162.508 95.6884 162.508C92.8923 162.508 90.4068 164.683 90.4068 167.79C90.4068 169.033 90.7175 170.275 91.6495 171.207C91.0282 170.897 90.4068 170.897 89.7855 170.897C86.9893 170.897 84.5039 173.071 84.5039 176.178C84.5039 178.974 86.6787 181.46 89.7855 181.46C92.2709 181.46 94.4457 179.596 94.7563 177.421C94.7563 179.906 95.067 181.46 92.2709 183.945C94.135 183.945 97.5524 183.945 98.7952 183.945C95.999 181.149 95.9991 179.906 96.3097 177.421C96.9311 179.906 98.7952 181.46 101.281 181.46C104.077 181.46 106.562 179.285 106.562 176.178C106.873 173.071 104.698 170.897 101.591 170.897Z" fill="url(#paint3_linear_1_4202)"/>
<path d="M22.3673 26.4311H9.00807C9.31875 20.5281 11.4935 15.5573 15.5324 11.8291C19.5712 8.10096 24.2314 6.23688 30.1343 6.23688C36.3479 6.23688 41.6294 8.10095 45.9789 11.5184C50.3285 14.9359 52.5032 19.2854 52.5032 24.2563C52.5032 29.5379 49.7071 34.5087 44.4255 38.8582C47.843 41.033 50.3285 43.2077 51.8819 45.6932C53.4353 48.1786 54.3673 50.664 54.3673 54.0815C54.3673 60.2951 52.1926 65.266 48.1537 68.9941C44.1149 72.7223 38.5226 74.5864 31.6877 74.5864C25.4741 74.5864 20.1925 72.7223 16.1537 69.3048C12.1149 65.5767 9.62944 60.9165 8.38672 54.3922H22.0566C23.61 60.6058 26.7168 63.7126 31.377 63.7126C33.5518 63.7126 35.7265 62.7806 37.2799 61.2272C38.8333 59.6738 39.7654 57.499 39.7654 55.0136C39.7654 51.9068 38.8333 49.732 36.9692 47.5573C35.1052 45.6932 32.6197 44.7611 29.5129 44.7611H27.0275V33.5767H28.5809C31.6877 33.5767 34.1731 32.9553 36.0372 31.4019C37.9013 29.8485 38.8333 27.6738 38.8333 25.1884C38.8333 23.0136 38.212 20.8388 36.6586 19.2854C35.1052 17.732 33.2411 16.8 31.0663 16.8C26.0955 16.8 23.2993 20.2175 22.3673 26.4311Z" fill="url(#paint4_linear_1_4202)"/>
<defs>
<linearGradient id="paint0_linear_1_4202" x1="32.782" y1="91.0523" x2="32.782" y2="141.382" gradientUnits="userSpaceOnUse">
<stop stop-color="#320807"/>
<stop offset="1"/>
</linearGradient>
<linearGradient id="paint1_linear_1_4202" x1="95.5478" y1="56.2564" x2="95.5478" y2="77.6933" gradientUnits="userSpaceOnUse">
<stop stop-color="#320807"/>
<stop offset="1"/>
</linearGradient>
<linearGradient id="paint2_linear_1_4202" x1="95.5478" y1="109.382" x2="95.5478" y2="130.819" gradientUnits="userSpaceOnUse">
<stop stop-color="#320807"/>
<stop offset="1"/>
</linearGradient>
<linearGradient id="paint3_linear_1_4202" x1="95.5478" y1="162.508" x2="95.5478" y2="183.945" gradientUnits="userSpaceOnUse">
<stop stop-color="#320807"/>
<stop offset="1"/>
</linearGradient>
<linearGradient id="paint4_linear_1_4202" x1="31.377" y1="6.23688" x2="31.377" y2="74.5864" gradientUnits="userSpaceOnUse">
<stop stop-color="#320807"/>
<stop offset="1"/>
</linearGradient>
</defs>
</svg>
