<svg width="110" height="111" viewBox="0 0 110 111" fill="none" xmlns="http://www.w3.org/2000/svg">
<g filter="url(#filter0_d_1_3207)">
<path d="M55.2883 94.939C79.2696 94.939 98.7104 75.508 98.7104 51.5386C98.7104 27.5692 79.2696 8.13818 55.2883 8.13818C31.3069 8.13818 11.8662 27.5692 11.8662 51.5386C11.8662 75.508 31.3069 94.939 55.2883 94.939Z" fill="url(#paint0_radial_1_3207)"/>
<path d="M55.2883 98.5575C81.2664 98.5575 102.329 77.5081 102.329 51.5386C102.329 25.5691 81.2664 4.51968 55.2883 4.51968C29.3102 4.51968 8.2477 25.5691 8.2477 51.5386C8.2477 77.5081 29.3102 98.5575 55.2883 98.5575Z" fill="url(#paint1_radial_1_3207)" stroke="url(#paint2_radial_1_3207)" stroke-width="7.23678"/>
<path d="M84.0874 49.2102C85.4443 65.1452 73.2326 79.046 57.2896 80.4022C41.3466 81.7583 27.4389 69.5528 26.082 53.6177C24.7252 37.6827 36.9368 23.7819 52.8798 22.4258C68.8228 21.4086 83.0698 33.2752 84.0874 49.2102Z" stroke="white" stroke-width="1.80919" stroke-miterlimit="10" stroke-dasharray="10.81 10.81"/>
<path d="M51.8596 8.18411C45.7537 8.52316 39.9871 10.2184 34.8989 12.9307L39.9871 21.4068C43.7185 19.3725 48.1282 18.0164 52.8772 17.6773C52.8772 17.6773 52.8772 17.6773 53.2164 17.6773V8.18411C52.538 8.18411 52.1988 8.18411 51.8596 8.18411Z" fill="white"/>
<path d="M13.188 40.7312L23.0252 42.4264C24.382 37.6798 26.4173 33.6113 29.4702 29.8818L21.3291 24.1181C17.5978 29.2038 14.8841 34.6284 13.188 40.7312Z" fill="white"/>
<path d="M28.1142 70.9084C25.0613 66.8399 23.026 62.0932 22.3475 57.0076L12.8496 59.3809C14.2065 66.1618 16.9201 71.9255 20.6515 77.3502L28.1142 70.9084Z" fill="white"/>
<path d="M35.9146 90.2328C42.0204 93.2842 48.4654 94.9794 55.5889 94.9794V85.1471C50.1615 85.1471 44.7341 83.7909 39.9851 81.4176L35.9146 90.2328Z" fill="white"/>
<path d="M88.1567 79.3832L81.0332 72.6023C77.9803 76.3318 73.9098 79.3832 69.5 81.7565L73.2313 90.9106C79.3372 88.1983 84.4253 84.1298 88.1567 79.3832Z" fill="white"/>
<path d="M98.3361 48.1914C97.9969 45.14 97.6577 42.4277 96.9793 39.7153L87.1421 41.4105C87.8205 43.7839 88.499 46.1572 88.499 48.5305C88.8382 51.2428 88.4989 53.9552 88.1597 56.6675L97.6577 59.0408C98.3361 55.6504 98.6753 51.9209 98.3361 48.1914Z" fill="white"/>
<path d="M73.2314 12.2549L68.4824 20.731C72.8922 22.7652 76.9628 25.4776 80.0157 29.207L88.1568 23.4433C84.0862 18.6967 78.998 14.6282 73.2314 12.2549Z" fill="white"/>
<path d="M47.5055 62.2158V65.4667H36.7458V62.2158H40.403V42.0567H36.7458V38.8765H44.0603V62.2158H47.5055ZM73.9791 52.1804C73.9791 55.078 73.6022 57.5574 72.8484 59.6186C72.1063 61.6799 71.0462 63.2464 69.6681 64.3183C68.3018 65.3784 66.6764 65.9084 64.7918 65.9084C61.8 65.9084 59.5091 64.6716 57.919 62.1981C56.3289 59.7246 55.5338 56.3854 55.5338 52.1804C55.5338 49.2711 55.9048 46.7858 56.6469 44.7246C57.4007 42.6515 58.4726 41.0791 59.8624 40.0072C61.2641 38.9354 62.9072 38.3995 64.7918 38.3995C67.7364 38.3995 70.0038 39.6303 71.5939 42.0921C73.184 44.5538 73.9791 47.9166 73.9791 52.1804ZM64.7918 62.7812C66.535 62.7812 67.8542 61.9567 68.7494 60.3077C69.6564 58.6587 70.1098 55.9025 70.1098 52.0391C70.1098 48.211 69.6446 45.502 68.7141 43.9119C67.7836 42.31 66.4644 41.509 64.7565 41.509C62.919 41.509 61.5703 42.4042 60.7105 44.1945C59.8624 45.9731 59.4384 48.6351 59.4384 52.1804C59.4384 55.9025 59.886 58.5998 60.7812 60.2723C61.6763 61.9449 63.0132 62.7812 64.7918 62.7812Z" fill="white"/>
</g>
<defs>
<filter id="filter0_d_1_3207" x="0.629395" y="0.901184" width="109.318" height="109.315" filterUnits="userSpaceOnUse" color-interpolation-filters="sRGB">
<feFlood flood-opacity="0" result="BackgroundImageFix"/>
<feColorMatrix in="SourceAlpha" type="matrix" values="0 0 0 0 0 0 0 0 0 0 0 0 0 0 0 0 0 0 127 0" result="hardAlpha"/>
<feOffset dy="4"/>
<feGaussianBlur stdDeviation="2"/>
<feComposite in2="hardAlpha" operator="out"/>
<feColorMatrix type="matrix" values="0 0 0 0 0 0 0 0 0 0 0 0 0 0 0 0 0 0 0.25 0"/>
<feBlend mode="normal" in2="BackgroundImageFix" result="effect1_dropShadow_1_3207"/>
<feBlend mode="normal" in="SourceGraphic" in2="effect1_dropShadow_1_3207" result="shape"/>
</filter>
<radialGradient id="paint0_radial_1_3207" cx="0" cy="0" r="1" gradientUnits="userSpaceOnUse" gradientTransform="translate(55.2776 51.5279) scale(43.4249 43.4032)">
<stop offset="0.692708"/>
<stop offset="0.796875" stop-color="#455CD9"/>
<stop offset="1" stop-color="#031576"/>
</radialGradient>
<radialGradient id="paint1_radial_1_3207" cx="0" cy="0" r="1" gradientUnits="userSpaceOnUse" gradientTransform="translate(55.2776 51.5279) scale(43.4249 43.4032)">
<stop offset="0.692708"/>
<stop offset="0.796875" stop-color="#455CD9"/>
<stop offset="1" stop-color="#031576"/>
</radialGradient>
<radialGradient id="paint2_radial_1_3207" cx="0" cy="0" r="1" gradientUnits="userSpaceOnUse" gradientTransform="translate(55.2883 51.557) rotate(119.199) scale(49.7393 49.7201)">
<stop offset="0.625" stop-color="#455CD9"/>
<stop offset="1"/>
</radialGradient>
</defs>
</svg>
