<svg width="160" height="241" viewBox="0 0 160 241" fill="none" xmlns="http://www.w3.org/2000/svg">
<path d="M160 235.497C160 238.293 157.515 240.779 154.718 240.779H5.28159C2.48547 240.779 0 238.293 0 235.497V6.21567C0 3.41956 2.48547 0.934082 5.28159 0.934082H154.718C157.515 0.934082 160 3.41956 160 6.21567V235.497Z" fill="white"/>
<path d="M46.9127 97.8662C36.9709 96.9342 33.8641 103.148 33.2428 105.323C32.3107 103.148 29.2039 96.9342 19.5728 97.8662C10.2524 99.4196 7.45636 107.808 8.3884 115.575C10.2525 128.002 29.2039 136.08 33.2428 143.536L33.5534 143.847L33.8641 143.536C37.9029 135.769 56.5437 127.691 58.7184 115.575C59.3398 107.808 56.233 99.7303 46.9127 97.8662Z" fill="url(#paint0_linear_1_4166)"/>
<path d="M93.8248 71.7691C89.1646 71.1478 87.6112 74.2546 87.3005 75.1866C86.9899 74.2546 85.4365 71.1478 80.7763 71.7691C76.4267 72.7012 74.8733 76.4293 75.4947 80.1574C76.4267 86.0603 85.4365 89.7885 87.3005 93.5167C89.1646 89.7885 98.1743 86.0603 99.1063 80.1574C99.7277 76.7399 98.1743 72.7012 93.8248 71.7691Z" fill="url(#paint1_linear_1_4166)"/>
<path d="M93.8248 151.614C89.1646 150.992 87.6112 154.099 87.3005 155.031C86.9899 154.099 85.4365 150.992 80.7763 151.614C76.4267 152.546 74.8733 156.274 75.4947 160.002C76.4267 165.905 85.4365 169.633 87.3005 173.361C89.1646 169.633 98.1743 165.905 99.1063 160.002C99.7277 156.274 98.1743 152.235 93.8248 151.614Z" fill="url(#paint2_linear_1_4166)"/>
<path d="M137.942 71.7691C133.282 71.1478 131.728 74.2546 131.418 75.1866C131.107 74.2546 129.554 71.1478 124.893 71.7691C120.544 72.7012 118.99 76.4293 119.612 80.1574C120.544 86.0603 129.554 89.7885 131.418 93.5167C133.282 89.7885 142.291 86.0603 143.224 80.1574C143.845 76.7399 142.291 72.7012 137.942 71.7691Z" fill="url(#paint3_linear_1_4166)"/>
<path d="M137.942 151.614C133.282 150.992 131.728 154.099 131.418 155.031C131.107 154.099 129.554 150.992 124.893 151.614C120.544 152.546 118.99 156.274 119.612 160.002C120.544 165.905 129.554 169.633 131.418 173.361C133.282 169.633 142.291 165.905 143.224 160.002C143.845 156.274 142.291 152.235 137.942 151.614Z" fill="url(#paint4_linear_1_4166)"/>
<path d="M93.8248 111.847C89.1646 111.225 87.6112 114.332 87.3005 115.264C86.9899 114.332 85.4365 111.225 80.7763 111.847C76.4267 112.779 74.8733 116.507 75.4947 120.235C76.4267 126.138 85.4365 129.866 87.3005 133.594C89.1646 129.866 98.1743 126.138 99.1063 120.235C99.7277 116.507 98.1743 112.468 93.8248 111.847Z" fill="url(#paint5_linear_1_4166)"/>
<path d="M93.8248 191.381C89.1646 190.759 87.6112 193.866 87.3005 194.798C86.9899 193.866 85.4365 190.759 80.7763 191.381C76.4267 192.313 74.8733 196.041 75.4947 199.769C76.4267 205.672 85.4365 209.4 87.3005 213.128C89.1646 209.4 98.1743 205.672 99.1063 199.769C99.7277 196.041 98.1743 192.002 93.8248 191.381Z" fill="url(#paint6_linear_1_4166)"/>
<path d="M137.942 111.847C133.282 111.225 131.728 114.332 131.418 115.264C131.107 114.332 129.554 111.225 124.893 111.847C120.544 112.779 118.99 116.507 119.612 120.235C120.544 126.138 129.554 129.866 131.418 133.594C133.282 129.866 142.291 126.138 143.224 120.235C143.845 116.507 142.291 112.468 137.942 111.847Z" fill="url(#paint7_linear_1_4166)"/>
<path d="M115.883 94.138C111.223 93.5167 109.67 96.6235 109.359 97.5555C109.048 96.6235 107.495 93.5167 102.835 94.138C98.4853 95.0701 96.9319 98.7983 97.5533 102.526C98.4853 108.429 107.495 112.157 109.359 115.886C111.223 112.157 120.233 108.429 121.165 102.526C121.786 98.7983 120.233 94.7594 115.883 94.138Z" fill="url(#paint8_linear_1_4166)"/>
<path d="M137.942 191.381C133.282 190.759 131.728 193.866 131.418 194.798C131.107 193.866 129.554 190.759 124.893 191.381C120.544 192.313 118.99 196.041 119.612 199.769C120.544 205.672 129.554 209.4 131.418 213.128C133.282 209.4 142.291 205.672 143.224 199.769C143.845 196.041 142.291 192.002 137.942 191.381Z" fill="url(#paint9_linear_1_4166)"/>
<path d="M34.7971 74.8759H17.0883L33.5543 52.5069C30.4475 52.8176 28.5835 53.1283 27.6514 53.1283C21.7485 53.1283 16.7777 50.9535 12.7388 46.604C8.7 42.2545 6.83594 36.9729 6.83594 30.7593C6.83594 24.235 9.32136 18.6428 14.2922 14.2933C19.2631 9.94382 25.4767 7.76904 32.6223 7.76904C39.4573 7.76904 45.3602 9.94384 49.7097 14.604C54.0592 18.9535 56.234 24.8564 56.234 32.002C56.234 37.2836 54.9912 42.2544 52.5058 47.536C50.0203 52.8175 47.8456 56.5457 45.9815 59.0312L34.7971 74.8759ZM42.2534 31.6914C42.2534 28.8953 41.3214 26.4098 39.1466 24.235C36.9718 22.0603 34.4864 21.1282 31.6903 21.1282C28.8942 21.1282 26.7194 22.0603 24.8553 24.235C22.9912 26.4098 22.0592 28.8953 22.0592 31.6914C22.0592 34.4875 22.9912 36.9729 24.8553 38.837C26.7194 40.7011 29.2048 41.9438 32.0009 41.9438C34.797 41.9438 37.2825 41.0118 39.4573 38.837C41.3214 36.6622 42.2534 34.4875 42.2534 31.6914Z" fill="url(#paint10_linear_1_4166)"/>
<defs>
<linearGradient id="paint0_linear_1_4166" x1="33.5067" y1="97.7717" x2="33.5067" y2="143.847" gradientUnits="userSpaceOnUse">
<stop stop-color="#FD4D1E"/>
<stop offset="1" stop-color="#AE1B06"/>
</linearGradient>
<linearGradient id="paint1_linear_1_4166" x1="87.3005" y1="71.6877" x2="87.3005" y2="93.5167" gradientUnits="userSpaceOnUse">
<stop stop-color="#FD4D1E"/>
<stop offset="1" stop-color="#AE1B06"/>
</linearGradient>
<linearGradient id="paint2_linear_1_4166" x1="87.3005" y1="151.532" x2="87.3005" y2="173.361" gradientUnits="userSpaceOnUse">
<stop stop-color="#FD4D1E"/>
<stop offset="1" stop-color="#AE1B06"/>
</linearGradient>
<linearGradient id="paint3_linear_1_4166" x1="131.418" y1="71.6877" x2="131.418" y2="93.5167" gradientUnits="userSpaceOnUse">
<stop stop-color="#FD4D1E"/>
<stop offset="1" stop-color="#AE1B06"/>
</linearGradient>
<linearGradient id="paint4_linear_1_4166" x1="131.418" y1="151.532" x2="131.418" y2="173.361" gradientUnits="userSpaceOnUse">
<stop stop-color="#FD4D1E"/>
<stop offset="1" stop-color="#AE1B06"/>
</linearGradient>
<linearGradient id="paint5_linear_1_4166" x1="87.3005" y1="111.765" x2="87.3005" y2="133.594" gradientUnits="userSpaceOnUse">
<stop stop-color="#FD4D1E"/>
<stop offset="1" stop-color="#AE1B06"/>
</linearGradient>
<linearGradient id="paint6_linear_1_4166" x1="87.3005" y1="191.299" x2="87.3005" y2="213.128" gradientUnits="userSpaceOnUse">
<stop stop-color="#FD4D1E"/>
<stop offset="1" stop-color="#AE1B06"/>
</linearGradient>
<linearGradient id="paint7_linear_1_4166" x1="131.418" y1="111.765" x2="131.418" y2="133.594" gradientUnits="userSpaceOnUse">
<stop stop-color="#FD4D1E"/>
<stop offset="1" stop-color="#AE1B06"/>
</linearGradient>
<linearGradient id="paint8_linear_1_4166" x1="109.359" y1="94.0565" x2="109.359" y2="115.886" gradientUnits="userSpaceOnUse">
<stop stop-color="#FD4D1E"/>
<stop offset="1" stop-color="#AE1B06"/>
</linearGradient>
<linearGradient id="paint9_linear_1_4166" x1="131.418" y1="191.299" x2="131.418" y2="213.128" gradientUnits="userSpaceOnUse">
<stop stop-color="#FD4D1E"/>
<stop offset="1" stop-color="#AE1B06"/>
</linearGradient>
<linearGradient id="paint10_linear_1_4166" x1="31.535" y1="7.76904" x2="31.535" y2="74.8759" gradientUnits="userSpaceOnUse">
<stop stop-color="#FD4D1E"/>
<stop offset="1" stop-color="#AE1B06"/>
</linearGradient>
</defs>
</svg>
