<svg width="160" height="240" viewBox="0 0 160 240" fill="none" xmlns="http://www.w3.org/2000/svg">
<path d="M160 234.586C160 237.382 157.515 239.868 154.719 239.868H5.28159C2.48547 239.868 0 237.382 0 234.586V5.30449C0 2.50838 2.48547 0.0229492 5.28159 0.0229492H154.719C157.515 0.0229492 160 2.50838 160 5.30449V234.586Z" fill="white"/>
<path d="M35.4179 5.92584H50.0198V54.0812C50.0198 60.2948 48.1557 65.2657 44.7382 69.3045C41.3208 73.0327 36.6605 74.8968 31.0683 74.8968C27.0294 74.8968 23.3013 73.654 20.1945 71.1686C17.0877 68.6831 14.6024 65.2656 12.7383 60.2948L23.3013 52.2171V52.5278C23.3013 52.5278 23.6121 53.4599 24.2335 54.7026C24.8548 56.256 25.7868 57.4987 26.7189 58.7414C27.6509 59.9841 28.5829 60.6055 29.8257 60.6055C31.3791 60.6055 32.6217 59.9841 33.8645 58.4307C34.7965 57.188 35.4179 55.3239 35.4179 53.1492V5.92584Z" fill="url(#paint0_linear_1_4288)"/>
<path d="M46.9118 194.197C45.3584 194.197 43.8049 194.508 42.5622 195.129C44.4263 192.955 45.3584 190.158 45.3584 187.052C45.3584 180.217 39.7662 174.625 32.9312 174.625C26.0963 174.625 20.504 180.217 20.504 187.052C20.504 190.158 21.7466 192.955 23.3 195.129C22.0573 194.508 20.504 194.197 18.9506 194.197C12.1157 194.197 6.52344 199.79 6.52344 206.624C6.52344 213.459 12.1157 219.052 18.9506 219.052C24.8535 219.052 29.8243 215.013 31.067 209.421C31.3777 215.323 31.6884 218.741 24.8534 224.955C28.8923 224.955 37.2807 224.955 40.6982 224.955C33.8632 218.741 34.4846 215.013 34.4846 209.421C35.7273 215.013 40.6981 219.362 46.601 219.362C53.4359 219.362 59.0282 213.77 59.0282 206.935C59.3389 199.479 53.7467 194.197 46.9118 194.197Z" fill="url(#paint1_linear_1_4288)"/>
<path d="M108.117 108.761C105.01 108.761 101.903 109.382 99.1068 110.625C102.835 106.275 105.01 100.683 105.01 94.4695C105.01 80.7996 93.8253 69.6152 80.1554 69.6152C66.4855 69.6152 55.301 80.7996 55.301 94.4695C55.301 100.683 57.4757 106.275 61.2038 110.625C58.4077 109.382 55.301 108.761 52.1942 108.761C38.5243 108.761 27.3398 119.945 27.3398 133.615C27.3398 147.285 38.5243 158.47 52.1942 158.47C64.3107 158.47 74.2524 150.081 76.7378 138.586C77.0485 150.392 77.9805 157.848 64.3106 170.275C72.699 170.275 89.7864 170.275 96.6214 170.275C82.6408 157.227 83.5728 150.081 84.1942 138.275C86.3689 149.771 96.6212 158.159 108.738 158.159C122.408 158.159 133.592 146.974 133.592 133.304C132.971 119.945 122.097 108.761 108.117 108.761Z" fill="url(#paint2_linear_1_4288)"/>
<defs>
<linearGradient id="paint0_linear_1_4288" x1="31.3791" y1="5.92584" x2="31.3791" y2="74.8968" gradientUnits="userSpaceOnUse">
<stop stop-color="#320807"/>
<stop offset="1"/>
</linearGradient>
<linearGradient id="paint1_linear_1_4288" x1="32.782" y1="174.625" x2="32.782" y2="224.955" gradientUnits="userSpaceOnUse">
<stop stop-color="#320807"/>
<stop offset="1"/>
</linearGradient>
<linearGradient id="paint2_linear_1_4288" x1="80.466" y1="69.6152" x2="80.466" y2="170.275" gradientUnits="userSpaceOnUse">
<stop stop-color="#320807"/>
<stop offset="1"/>
</linearGradient>
</defs>
</svg>
