<svg width="160" height="240" viewBox="0 0 160 240" fill="none" xmlns="http://www.w3.org/2000/svg">
<path d="M160 234.586C160 237.382 157.515 239.868 154.718 239.868H5.28159C2.48547 239.868 0 237.382 0 234.586V5.30449C0 2.50838 2.48547 0.0229492 5.28159 0.0229492H154.718C157.515 0.0229492 160 2.50838 160 5.30449V234.586Z" fill="white"/>
<path d="M46.9118 110.625C45.3584 110.625 43.805 110.936 42.5623 111.557C44.4264 109.382 45.3584 106.586 45.3584 103.479C45.3584 96.6445 39.7662 91.0522 32.9312 91.0522C26.0963 91.0522 20.504 96.6445 20.504 103.479C20.504 106.586 21.7467 109.382 23.3001 111.557C22.0574 110.936 20.504 110.625 18.9506 110.625C12.1157 110.625 6.52344 116.217 6.52344 123.052C6.52344 129.887 12.1157 135.479 18.9506 135.479C24.8535 135.479 29.8244 131.441 31.0671 125.848C31.3778 131.751 31.6885 135.169 24.8535 141.382C28.8923 141.382 37.2807 141.382 40.6982 141.382C33.8632 135.169 34.4846 131.441 34.4846 125.848C35.7273 131.441 40.6982 135.79 46.6011 135.79C53.436 135.79 59.0283 130.198 59.0283 123.363C59.0283 116.217 53.7467 110.625 46.9118 110.625Z" fill="url(#paint0_linear_1_4217)"/>
<path d="M92.8921 78.6252C92.2707 78.6252 91.6493 78.6251 91.028 78.9358C91.6493 78.0038 92.2707 76.7611 92.2707 75.5184C92.2707 72.7222 90.0959 70.2368 86.9891 70.2368C84.193 70.2368 81.7076 72.4116 81.7076 75.5184C81.7076 76.7611 82.0183 78.0038 82.9503 78.9358C82.329 78.6251 81.7076 78.6252 81.0862 78.6252C78.2901 78.6252 75.8047 80.7999 75.8047 83.9067C75.8047 86.7028 77.9794 89.1882 81.0862 89.1882C83.5717 89.1882 85.7464 87.3242 86.0571 85.1494C86.0571 87.6348 86.3678 89.1882 83.5717 91.6737C85.4358 91.6737 88.8532 91.6737 90.0959 91.6737C87.2998 88.8776 87.2998 87.6348 87.6105 85.1494C88.2319 87.6348 90.0959 89.1882 92.5814 89.1882C95.3775 89.1882 97.8629 87.0135 97.8629 83.9067C97.8629 80.7999 95.6882 78.6252 92.8921 78.6252Z" fill="url(#paint1_linear_1_4217)"/>
<path d="M114.951 117.771C114.329 117.771 113.708 117.771 113.087 118.081C113.708 117.149 114.329 115.907 114.329 114.664C114.329 111.868 112.155 109.382 109.048 109.382C105.941 109.382 103.766 111.557 103.766 114.664C103.766 115.907 104.077 117.149 105.009 118.081C104.388 117.771 103.766 117.771 103.145 117.771C100.349 117.771 97.8633 119.945 97.8633 123.052C97.8633 125.848 100.038 128.334 103.145 128.334C105.63 128.334 107.805 126.47 108.116 124.295C108.116 126.78 108.426 128.334 105.63 130.819C107.494 130.819 110.912 130.819 112.155 130.819C109.358 128.023 109.358 126.78 109.669 124.295C110.29 126.78 112.155 128.334 114.64 128.334C117.436 128.334 119.922 126.159 119.922 123.052C119.922 119.945 117.747 117.771 114.951 117.771Z" fill="url(#paint2_linear_1_4217)"/>
<path d="M92.8921 158.159C92.2707 158.159 91.6493 158.159 91.028 158.47C91.6493 157.538 92.2707 156.295 92.2707 155.053C92.2707 152.256 90.0959 149.771 86.9891 149.771C84.193 149.771 81.7076 151.946 81.7076 155.053C81.7076 156.295 82.0183 157.538 82.9503 158.47C82.329 158.159 81.7076 158.159 81.0862 158.159C78.2901 158.159 75.8047 160.334 75.8047 163.441C75.8047 166.237 77.9794 168.722 81.0862 168.722C83.5717 168.722 85.7464 166.858 86.0571 164.684C86.0571 167.169 86.3678 168.722 83.5717 171.208C85.4358 171.208 88.8532 171.208 90.0959 171.208C87.2998 168.412 87.2998 167.169 87.6105 164.684C88.2319 167.169 90.0959 168.722 92.5814 168.722C95.3775 168.722 97.8629 166.548 97.8629 163.441C97.8629 160.334 95.6882 158.159 92.8921 158.159Z" fill="url(#paint3_linear_1_4217)"/>
<path d="M137.009 78.6249C136.388 78.6249 135.767 78.6249 135.145 78.9356C135.767 78.0035 136.388 76.7608 136.388 75.5181C136.388 72.722 134.213 70.2366 131.106 70.2366C128.31 70.2366 125.825 72.4113 125.825 75.5181C125.825 76.7608 126.135 78.0035 127.068 78.9356C126.446 78.6249 125.825 78.6249 125.203 78.6249C122.407 78.6249 119.922 80.7997 119.922 83.9065C119.922 86.7026 122.097 89.188 125.203 89.188C127.689 89.188 129.864 87.3239 130.174 85.1492C130.174 87.6346 130.485 89.188 127.689 91.6734C129.553 91.6734 132.97 91.6734 134.213 91.6734C131.417 88.8773 131.417 87.6346 131.728 85.1492C132.349 87.6346 134.213 89.188 136.699 89.188C139.495 89.188 141.98 87.0132 141.98 83.9065C142.291 80.7997 139.805 78.6249 137.009 78.6249Z" fill="url(#paint4_linear_1_4217)"/>
<path d="M137.009 158.159C136.388 158.159 135.767 158.159 135.145 158.47C135.767 157.538 136.388 156.295 136.388 155.052C136.388 152.256 134.213 149.771 131.106 149.771C128.31 149.771 125.825 151.945 125.825 155.052C125.825 156.295 126.135 157.538 127.068 158.47C126.446 158.159 125.825 158.159 125.203 158.159C122.407 158.159 119.922 160.334 119.922 163.44C119.922 166.237 122.097 168.722 125.203 168.722C127.689 168.722 129.864 166.858 130.174 164.683C130.174 167.169 130.485 168.722 127.689 171.207C129.553 171.207 132.97 171.207 134.213 171.207C131.417 168.411 131.417 167.169 131.728 164.683C132.349 167.169 134.213 168.722 136.699 168.722C139.495 168.722 141.98 166.547 141.98 163.44C142.291 160.334 139.805 158.159 137.009 158.159Z" fill="url(#paint5_linear_1_4217)"/>
<path d="M17.7087 6.85791H50.3301V18.9744H30.4465L29.8252 26.7414C37.2815 26.7414 43.1844 28.9162 47.2233 33.2657C51.2621 37.6152 53.4369 42.8967 53.4369 48.7997C53.4369 55.6346 50.9514 61.5375 45.6699 66.5084C40.3883 71.4793 34.1747 73.9647 27.0291 73.9647C23.6116 73.9647 20.8155 73.3434 18.0194 72.4113C15.5339 71.4793 12.4271 69.9259 9.32031 67.7511L10.8737 52.5278C18.0193 57.188 23.6116 59.6734 27.9611 59.6734C30.7572 59.6734 33.5533 58.7414 35.7281 56.5666C37.9028 54.3919 39.1456 51.9065 39.1456 49.1104C39.1456 46.0036 37.9028 43.2074 35.7281 41.3434C33.5533 39.1686 30.7572 38.2366 27.3397 38.2366C23.3009 38.2366 19.2621 39.1686 14.6019 41.0327L17.7087 6.85791Z" fill="url(#paint6_linear_1_4217)"/>
<defs>
<linearGradient id="paint0_linear_1_4217" x1="32.7759" y1="91.0522" x2="32.7759" y2="141.382" gradientUnits="userSpaceOnUse">
<stop stop-color="#320807"/>
<stop offset="1"/>
</linearGradient>
<linearGradient id="paint1_linear_1_4217" x1="86.8338" y1="70.2368" x2="86.8338" y2="91.6737" gradientUnits="userSpaceOnUse">
<stop stop-color="#320807"/>
<stop offset="1"/>
</linearGradient>
<linearGradient id="paint2_linear_1_4217" x1="108.892" y1="109.382" x2="108.892" y2="130.819" gradientUnits="userSpaceOnUse">
<stop stop-color="#320807"/>
<stop offset="1"/>
</linearGradient>
<linearGradient id="paint3_linear_1_4217" x1="86.8338" y1="149.771" x2="86.8338" y2="171.208" gradientUnits="userSpaceOnUse">
<stop stop-color="#320807"/>
<stop offset="1"/>
</linearGradient>
<linearGradient id="paint4_linear_1_4217" x1="130.964" y1="70.2366" x2="130.964" y2="91.6734" gradientUnits="userSpaceOnUse">
<stop stop-color="#320807"/>
<stop offset="1"/>
</linearGradient>
<linearGradient id="paint5_linear_1_4217" x1="130.964" y1="149.771" x2="130.964" y2="171.207" gradientUnits="userSpaceOnUse">
<stop stop-color="#320807"/>
<stop offset="1"/>
</linearGradient>
<linearGradient id="paint6_linear_1_4217" x1="31.3786" y1="6.85791" x2="31.3786" y2="73.9647" gradientUnits="userSpaceOnUse">
<stop stop-color="#320807"/>
<stop offset="1"/>
</linearGradient>
</defs>
</svg>
