<svg width="160" height="242" viewBox="0 0 160 242" fill="none" xmlns="http://www.w3.org/2000/svg">
<path d="M160 235.953C160 238.755 157.51 241.245 154.708 241.245H5.29186C2.49031 241.245 0 238.755 0 235.953V6.22595C0 3.42439 2.49031 0.934082 5.29186 0.934082H154.708C157.51 0.934082 160 3.42439 160 6.22595V235.953Z" fill="white"/>
<path d="M47.0035 98.0548C37.0425 97.1209 33.9296 103.347 33.3071 105.526C32.3732 103.347 29.2604 97.1209 19.6106 98.0548C10.2721 99.6112 7.4705 108.016 8.40435 115.798C10.2721 128.249 29.2604 136.343 33.3071 143.814L33.6184 144.125L33.9297 143.814C37.9764 136.031 56.6534 127.938 58.8324 115.798C59.1437 108.016 56.0308 99.9225 47.0035 98.0548Z" fill="url(#paint0_linear_1_4138)"/>
<path d="M93.6966 110.195C89.0273 109.572 87.4709 112.685 87.1596 113.619C86.8483 112.685 85.292 109.572 80.6227 110.195C76.2648 111.129 74.7083 114.864 75.3309 118.599C76.2647 124.514 85.2919 128.249 87.1596 131.985C89.0273 128.249 98.0546 124.514 98.9885 118.599C99.611 114.864 98.0546 110.817 93.6966 110.195Z" fill="url(#paint1_linear_1_4138)"/>
<path d="M93.6966 163.424C89.0273 162.802 87.4709 165.915 87.1596 166.848C86.8483 165.915 85.292 162.802 80.6227 163.424C76.2648 164.358 74.7083 168.094 75.3309 171.829C76.2647 177.743 85.2919 181.479 87.1596 185.214C89.0273 181.479 98.0546 177.743 98.9885 171.829C99.611 168.094 98.0546 164.047 93.6966 163.424Z" fill="url(#paint2_linear_1_4138)"/>
<path d="M93.6966 56.9652C89.0273 56.3427 87.4709 59.4555 87.1596 60.3894C86.8483 59.4555 85.292 56.3427 80.6227 56.9652C76.2648 57.8991 74.7083 61.6345 75.3309 65.3699C76.2647 71.2843 85.2919 75.0197 87.1596 78.7551C89.0273 75.0197 98.0546 71.2843 98.9885 65.3699C99.611 61.6345 98.0546 57.8991 93.6966 56.9652Z" fill="url(#paint3_linear_1_4138)"/>
<path d="M137.9 110.194C133.23 109.572 131.674 112.685 131.363 113.619C131.051 112.685 129.495 109.572 124.826 110.194C120.468 111.128 118.911 114.864 119.534 118.599C120.468 124.514 129.495 128.249 131.363 131.984C133.23 128.249 142.258 124.514 143.192 118.599C143.814 114.864 142.258 110.817 137.9 110.194Z" fill="url(#paint4_linear_1_4138)"/>
<path d="M115.798 83.4239C111.129 82.8014 109.572 85.9142 109.261 86.8481C108.95 85.9142 107.393 82.8014 102.724 83.4239C98.3662 84.3578 96.8099 88.0932 97.4324 91.8286C98.3663 97.743 107.393 101.478 109.261 105.214C111.129 101.478 120.156 97.743 121.09 91.8286C121.713 88.0932 120.156 84.3578 115.798 83.4239Z" fill="url(#paint5_linear_1_4138)"/>
<path d="M115.798 136.654C111.129 136.032 109.572 139.145 109.261 140.079C108.95 139.145 107.393 136.032 102.724 136.654C98.3662 137.588 96.8099 141.324 97.4324 145.059C98.3663 150.973 107.393 154.709 109.261 158.444C111.129 154.709 120.156 150.973 121.09 145.059C121.713 141.324 120.156 137.588 115.798 136.654Z" fill="url(#paint6_linear_1_4138)"/>
<path d="M137.9 163.424C133.23 162.801 131.674 165.914 131.363 166.848C131.051 165.914 129.495 162.801 124.826 163.424C120.468 164.358 118.911 168.093 119.534 171.829C120.468 177.743 129.495 181.478 131.363 185.214C133.23 181.478 142.258 177.743 143.192 171.829C143.814 168.093 142.258 164.046 137.9 163.424Z" fill="url(#paint7_linear_1_4138)"/>
<path d="M137.9 56.9649C133.23 56.3424 131.674 59.4552 131.363 60.3891C131.051 59.4552 129.495 56.3424 124.826 56.9649C120.468 57.8988 118.911 61.6342 119.534 65.3696C120.468 71.284 129.495 75.0194 131.363 78.7548C133.23 75.0194 142.258 71.284 143.192 65.3696C143.814 61.6342 142.258 57.8988 137.9 56.9649Z" fill="url(#paint8_linear_1_4138)"/>
<path d="M43.8911 39.5334C50.428 43.5801 53.5409 49.1831 53.5409 56.0314C53.5409 61.6345 51.3619 66.3037 47.3152 70.0391C43.2685 73.4633 37.9767 75.331 31.4397 75.331C24.5915 75.331 19.2997 73.4633 15.253 70.0391C11.2063 66.615 9.02734 61.9458 9.02734 56.3427C9.02734 49.4944 12.1401 43.8913 18.6771 39.8446C15.8755 37.3543 14.0078 35.1753 12.4514 32.6851C11.2063 30.5061 10.5838 27.7045 10.5838 24.903C10.5838 20.2337 12.4514 15.8757 15.8755 12.4516C19.6109 9.0275 24.5915 7.15976 30.8172 7.15976C37.0429 7.15976 42.0234 8.71618 45.7588 11.829C49.4942 14.9419 51.3619 19.2998 51.3619 24.2804C51.9844 30.5061 49.1829 35.4867 43.8911 39.5334ZM39.5331 54.1636C39.5331 51.9847 38.5993 49.8057 37.0429 48.2493C35.4865 46.6929 33.3074 45.759 31.1284 45.759C28.9494 45.759 27.0818 46.6929 25.5254 48.2493C23.9689 50.117 23.0351 51.9847 23.0351 54.4749C23.0351 56.6539 23.9689 58.5216 25.5254 60.3893C27.0818 62.257 28.9494 62.8797 31.1284 62.8797C33.3074 62.8797 35.4865 61.9457 37.0429 60.3893C38.5993 58.5216 39.5331 56.6539 39.5331 54.1636ZM38.288 26.7707C38.288 24.5917 37.6654 22.724 36.4203 21.4788C35.1752 19.9224 33.3074 19.2999 31.4397 19.2999C29.572 19.2999 27.7043 19.9224 26.4592 21.1675C25.214 22.4127 24.5915 24.2804 24.5915 26.1481C24.5915 28.0158 25.214 29.8835 26.4592 31.1287C27.7043 32.3738 29.572 33.3077 31.4397 33.3077C33.3074 33.3077 34.8639 32.6851 36.4203 31.44C37.6654 29.8835 38.288 28.3271 38.288 26.7707Z" fill="url(#paint9_linear_1_4138)"/>
<defs>
<linearGradient id="paint0_linear_1_4138" x1="33.5439" y1="97.96" x2="33.5439" y2="144.125" gradientUnits="userSpaceOnUse">
<stop stop-color="#FD4D1E"/>
<stop offset="1" stop-color="#AE1B06"/>
</linearGradient>
<linearGradient id="paint1_linear_1_4138" x1="87.1597" y1="110.113" x2="87.1597" y2="131.985" gradientUnits="userSpaceOnUse">
<stop stop-color="#FD4D1E"/>
<stop offset="1" stop-color="#AE1B06"/>
</linearGradient>
<linearGradient id="paint2_linear_1_4138" x1="87.1597" y1="163.343" x2="87.1597" y2="185.214" gradientUnits="userSpaceOnUse">
<stop stop-color="#FD4D1E"/>
<stop offset="1" stop-color="#AE1B06"/>
</linearGradient>
<linearGradient id="paint3_linear_1_4138" x1="87.1597" y1="56.8836" x2="87.1597" y2="78.7551" gradientUnits="userSpaceOnUse">
<stop stop-color="#FD4D1E"/>
<stop offset="1" stop-color="#AE1B06"/>
</linearGradient>
<linearGradient id="paint4_linear_1_4138" x1="131.363" y1="110.113" x2="131.363" y2="131.984" gradientUnits="userSpaceOnUse">
<stop stop-color="#FD4D1E"/>
<stop offset="1" stop-color="#AE1B06"/>
</linearGradient>
<linearGradient id="paint5_linear_1_4138" x1="109.261" y1="83.3423" x2="109.261" y2="105.214" gradientUnits="userSpaceOnUse">
<stop stop-color="#FD4D1E"/>
<stop offset="1" stop-color="#AE1B06"/>
</linearGradient>
<linearGradient id="paint6_linear_1_4138" x1="109.261" y1="136.573" x2="109.261" y2="158.444" gradientUnits="userSpaceOnUse">
<stop stop-color="#FD4D1E"/>
<stop offset="1" stop-color="#AE1B06"/>
</linearGradient>
<linearGradient id="paint7_linear_1_4138" x1="131.363" y1="163.342" x2="131.363" y2="185.214" gradientUnits="userSpaceOnUse">
<stop stop-color="#FD4D1E"/>
<stop offset="1" stop-color="#AE1B06"/>
</linearGradient>
<linearGradient id="paint8_linear_1_4138" x1="131.363" y1="56.8833" x2="131.363" y2="78.7548" gradientUnits="userSpaceOnUse">
<stop stop-color="#FD4D1E"/>
<stop offset="1" stop-color="#AE1B06"/>
</linearGradient>
<linearGradient id="paint9_linear_1_4138" x1="31.2841" y1="7.15976" x2="31.2841" y2="75.331" gradientUnits="userSpaceOnUse">
<stop stop-color="#FD4D1E"/>
<stop offset="1" stop-color="#AE1B06"/>
</linearGradient>
</defs>
</svg>
