<svg width="160" height="241" viewBox="0 0 160 241" fill="none" xmlns="http://www.w3.org/2000/svg">
<path d="M160 235.354C160 238.155 157.51 240.646 154.708 240.646H5.29186C2.49031 240.646 0 238.155 0 235.354V5.62634C0 2.82478 2.49031 0.334473 5.29186 0.334473H154.708C157.51 0.334473 160 2.82478 160 5.62634V235.354Z" fill="white"/>
<path d="M115.176 71.6191C90.2732 69.1288 82.1798 85.3155 80.0009 90.6073C77.8219 85.3155 70.0398 68.8175 44.8258 71.6191C21.4795 75.9771 13.6974 96.5218 16.8103 116.133C21.4795 147.261 69.4172 167.806 79.3783 187.105L79.6896 187.728L80.0009 187.105C89.9619 167.806 137.9 147.261 142.569 116.133C145.993 96.5218 138.211 75.9771 115.176 71.6191Z" fill="url(#paint0_linear_1_4532)"/>
<path d="M26.7721 2.82471H36.7332L61.0133 62.2799H48.2506L43.5814 50.4511H20.8577L16.1884 62.2799H3.42578L26.7721 2.82471ZM31.7526 22.4356L24.9044 39.8675H38.9121L31.7526 22.4356Z" fill="url(#paint1_linear_1_4532)"/>
<defs>
<linearGradient id="paint0_linear_1_4532" x1="79.748" y1="71.3013" x2="79.748" y2="187.728" gradientUnits="userSpaceOnUse">
<stop stop-color="#FD4D1E"/>
<stop offset="1" stop-color="#AE1B06"/>
</linearGradient>
<linearGradient id="paint1_linear_1_4532" x1="32.2195" y1="2.82471" x2="32.2195" y2="62.2799" gradientUnits="userSpaceOnUse">
<stop stop-color="#FD4D1E"/>
<stop offset="1" stop-color="#AE1B06"/>
</linearGradient>
</defs>
</svg>
