<svg width="160" height="240" viewBox="0 0 160 240" fill="none" xmlns="http://www.w3.org/2000/svg">
<path d="M160 234.586C160 237.382 157.515 239.868 154.718 239.868H5.28154C2.48543 239.868 0 237.382 0 234.586V5.30449C0 2.50838 2.48543 0.0229492 5.28154 0.0229492H154.718C157.515 0.0229492 160 2.50838 160 5.30449V234.586Z" fill="white"/>
<path d="M46.9118 110.625C45.3584 110.625 43.805 110.936 42.5623 111.557C44.4264 109.382 45.3584 106.586 45.3584 103.479C45.3584 96.6445 39.7662 91.0522 32.9312 91.0522C26.0963 91.0522 20.504 96.6445 20.504 103.479C20.504 106.586 21.7468 109.382 23.3002 111.557C22.0574 110.936 20.504 110.625 18.9506 110.625C12.1157 110.625 6.52344 116.217 6.52344 123.052C6.52344 129.887 12.1157 135.479 18.9506 135.479C24.8535 135.479 29.8244 131.441 31.0672 125.848C31.3778 131.751 31.6885 135.169 24.8536 141.382C28.8924 141.382 37.2807 141.382 40.6982 141.382C33.8632 135.169 34.4846 131.441 34.4846 125.848C35.7273 131.441 40.6982 135.79 46.6011 135.79C53.4361 135.79 59.0283 130.198 59.0283 123.363C59.339 116.217 53.7467 110.625 46.9118 110.625Z" fill="url(#paint0_linear_1_4209)"/>
<path d="M92.8921 78.6252C92.2707 78.6252 91.6493 78.6251 91.028 78.9358C91.6493 78.0038 92.2707 76.7611 92.2707 75.5184C92.2707 72.7222 90.096 70.2368 86.9892 70.2368C84.1931 70.2368 81.7076 72.4116 81.7076 75.5184C81.7076 76.7611 82.0183 78.0038 82.9503 78.9358C82.329 78.6251 81.7076 78.6252 81.0862 78.6252C78.2901 78.6252 75.8047 80.7999 75.8047 83.9067C75.8047 86.7028 77.9794 89.1882 81.0862 89.1882C83.5717 89.1882 85.7464 87.3242 86.0571 85.1494C86.0571 87.6348 86.3678 89.1882 83.5717 91.6737C85.4358 91.6737 88.8532 91.6737 90.096 91.6737C87.2998 88.8776 87.2998 87.6348 87.6105 85.1494C88.2319 87.6348 90.0959 89.1882 92.5814 89.1882C95.3775 89.1882 97.863 87.0135 97.863 83.9067C97.863 80.7999 95.6882 78.6252 92.8921 78.6252Z" fill="url(#paint1_linear_1_4209)"/>
<path d="M92.8921 158.159C92.2707 158.159 91.6493 158.159 91.028 158.47C91.6493 157.538 92.2707 156.295 92.2707 155.053C92.2707 152.256 90.096 149.771 86.9892 149.771C84.1931 149.771 81.7076 151.946 81.7076 155.053C81.7076 156.295 82.0183 157.538 82.9503 158.47C82.329 158.159 81.7076 158.159 81.0862 158.159C78.2901 158.159 75.8047 160.334 75.8047 163.441C75.8047 166.237 77.9794 168.722 81.0862 168.722C83.5717 168.722 85.7464 166.858 86.0571 164.684C86.0571 167.169 86.3678 168.722 83.5717 171.208C85.4358 171.208 88.8532 171.208 90.096 171.208C87.2998 168.412 87.2998 167.169 87.6105 164.684C88.2319 167.169 90.0959 168.722 92.5814 168.722C95.3775 168.722 97.863 166.548 97.863 163.441C97.863 160.334 95.6882 158.159 92.8921 158.159Z" fill="url(#paint2_linear_1_4209)"/>
<path d="M137.009 78.6249C136.388 78.6249 135.767 78.6249 135.145 78.9356C135.767 78.0035 136.388 76.7608 136.388 75.5181C136.388 72.722 134.213 70.2366 131.106 70.2366C128 70.2366 125.825 72.4113 125.825 75.5181C125.825 76.7608 126.135 78.0035 127.068 78.9356C126.446 78.6249 125.825 78.6249 125.203 78.6249C122.407 78.6249 119.922 80.7997 119.922 83.9065C119.922 86.7026 122.097 89.188 125.203 89.188C127.689 89.188 129.864 87.3239 130.174 85.1492C130.174 87.6346 130.485 89.188 127.689 91.6734C129.553 91.6734 132.97 91.6734 134.213 91.6734C131.417 88.8773 131.417 87.6346 131.728 85.1492C132.349 87.6346 134.213 89.188 136.699 89.188C139.495 89.188 141.98 87.0132 141.98 83.9065C142.291 80.7997 139.805 78.6249 137.009 78.6249Z" fill="url(#paint3_linear_1_4209)"/>
<path d="M137.009 158.159C136.388 158.159 135.767 158.159 135.145 158.47C135.767 157.538 136.388 156.295 136.388 155.052C136.388 152.256 134.213 149.771 131.106 149.771C128 149.771 125.825 151.945 125.825 155.052C125.825 156.295 126.135 157.538 127.068 158.47C126.446 158.159 125.825 158.159 125.203 158.159C122.407 158.159 119.922 160.334 119.922 163.44C119.922 166.237 122.097 168.722 125.203 168.722C127.689 168.722 129.864 166.858 130.174 164.683C130.174 167.169 130.485 168.722 127.689 171.207C129.553 171.207 132.97 171.207 134.213 171.207C131.417 168.411 131.417 167.169 131.728 164.683C132.349 167.169 134.213 168.722 136.699 168.722C139.495 168.722 141.98 166.547 141.98 163.44C142.291 160.334 139.805 158.159 137.009 158.159Z" fill="url(#paint4_linear_1_4209)"/>
<path d="M36.6596 7.479H50.0188V45.6926H56.2324V57.8091H50.0188V73.6538H35.4169V57.8091H5.90234V45.6926L36.6596 7.479ZM35.4169 23.945L18.3295 45.6926H35.7276L35.4169 23.945Z" fill="url(#paint5_linear_1_4209)"/>
<defs>
<linearGradient id="paint0_linear_1_4209" x1="32.7821" y1="91.0522" x2="32.7821" y2="141.382" gradientUnits="userSpaceOnUse">
<stop stop-color="#320807"/>
<stop offset="1"/>
</linearGradient>
<linearGradient id="paint1_linear_1_4209" x1="86.8338" y1="70.2368" x2="86.8338" y2="91.6737" gradientUnits="userSpaceOnUse">
<stop stop-color="#320807"/>
<stop offset="1"/>
</linearGradient>
<linearGradient id="paint2_linear_1_4209" x1="86.8338" y1="149.771" x2="86.8338" y2="171.208" gradientUnits="userSpaceOnUse">
<stop stop-color="#320807"/>
<stop offset="1"/>
</linearGradient>
<linearGradient id="paint3_linear_1_4209" x1="130.964" y1="70.2366" x2="130.964" y2="91.6734" gradientUnits="userSpaceOnUse">
<stop stop-color="#320807"/>
<stop offset="1"/>
</linearGradient>
<linearGradient id="paint4_linear_1_4209" x1="130.964" y1="149.771" x2="130.964" y2="171.207" gradientUnits="userSpaceOnUse">
<stop stop-color="#320807"/>
<stop offset="1"/>
</linearGradient>
<linearGradient id="paint5_linear_1_4209" x1="31.0674" y1="7.479" x2="31.0674" y2="73.6538" gradientUnits="userSpaceOnUse">
<stop stop-color="#320807"/>
<stop offset="1"/>
</linearGradient>
</defs>
</svg>
