<svg width="160" height="240" viewBox="0 0 160 240" fill="none" xmlns="http://www.w3.org/2000/svg">
<path d="M160 234.586C160 237.382 157.515 239.868 154.718 239.868H5.28159C2.48547 239.868 0 237.382 0 234.586V5.30449C0 2.50838 2.48547 0.0229492 5.28159 0.0229492H154.718C157.515 0.0229492 160 2.50838 160 5.30449V234.586Z" fill="white"/>
<path d="M46.9118 110.625C45.3584 110.625 43.805 110.936 42.5623 111.557C44.4264 109.382 45.3584 106.586 45.3584 103.479C45.3584 96.6445 39.7662 91.0522 32.9312 91.0522C26.0963 91.0522 20.504 96.6445 20.504 103.479C20.504 106.586 21.7467 109.382 23.3001 111.557C22.0574 110.936 20.504 110.625 18.9506 110.625C12.1157 110.625 6.52344 116.217 6.52344 123.052C6.52344 129.887 12.1157 135.479 18.9506 135.479C24.8535 135.479 29.8244 131.441 31.0671 125.848C31.3778 131.751 31.6885 135.169 24.8535 141.382C28.8923 141.382 37.2807 141.382 40.6982 141.382C33.8632 135.169 34.4846 131.441 34.4846 125.848C35.7273 131.441 40.6982 135.79 46.6011 135.79C53.436 135.79 59.0283 130.198 59.0283 123.363C59.0283 116.217 53.7467 110.625 46.9118 110.625Z" fill="url(#paint0_linear_1_4236)"/>
<path d="M92.8921 64.6447C92.2707 64.6447 91.6493 64.6447 91.028 64.9553C91.6493 64.0233 92.2708 62.7806 92.2708 61.5379C92.2708 58.7418 90.096 56.2563 86.9892 56.2563C84.1931 56.2563 81.7076 58.4311 81.7076 61.5379C81.7076 62.7806 82.0183 64.0233 82.9504 64.9553C82.329 64.6447 81.7076 64.6447 81.0863 64.6447C78.2902 64.6447 75.8047 66.8194 75.8047 69.9262C75.8047 72.7224 77.9795 75.2078 81.0863 75.2078C83.5717 75.2078 85.7465 73.3437 86.0572 71.1689C86.0572 73.6544 86.3678 75.2078 83.5717 77.6932C85.4358 77.6932 88.8532 77.6932 90.096 77.6932C87.2998 74.8971 87.2999 73.6544 87.6106 71.1689C88.2319 73.6544 90.0959 75.2078 92.5814 75.2078C95.3775 75.2078 97.863 73.033 97.863 69.9262C97.863 66.8194 95.6882 64.6447 92.8921 64.6447Z" fill="url(#paint1_linear_1_4236)"/>
<path d="M92.8921 117.771C92.2707 117.771 91.6493 117.771 91.028 118.081C91.6493 117.149 92.2708 115.907 92.2708 114.664C92.2708 111.868 90.096 109.382 86.9892 109.382C84.1931 109.382 81.7076 111.557 81.7076 114.664C81.7076 115.907 82.0183 117.149 82.9504 118.081C82.329 117.771 81.7076 117.771 81.0863 117.771C78.2902 117.771 75.8047 119.945 75.8047 123.052C75.8047 125.848 77.9795 128.334 81.0863 128.334C83.5717 128.334 85.7465 126.47 86.0572 124.295C86.0572 126.78 86.3678 128.334 83.5717 130.819C85.4358 130.819 88.8532 130.819 90.096 130.819C87.2998 128.023 87.2999 126.78 87.6106 124.295C88.2319 126.78 90.0959 128.334 92.5814 128.334C95.3775 128.334 97.863 126.159 97.863 123.052C97.863 119.945 95.6882 117.771 92.8921 117.771Z" fill="url(#paint2_linear_1_4236)"/>
<path d="M92.8921 170.897C92.2707 170.897 91.6493 170.897 91.028 171.207C91.6493 170.275 92.2708 169.033 92.2708 167.79C92.2708 164.994 90.096 162.508 86.9892 162.508C84.1931 162.508 81.7076 164.683 81.7076 167.79C81.7076 169.033 82.0183 170.275 82.9504 171.207C82.329 170.897 81.7076 170.897 81.0863 170.897C78.2902 170.897 75.8047 173.071 75.8047 176.178C75.8047 178.974 77.9795 181.46 81.0863 181.46C83.5717 181.46 85.7465 179.596 86.0572 177.421C86.0572 179.906 86.3678 181.46 83.5717 183.945C85.4358 183.945 88.8532 183.945 90.096 183.945C87.2998 181.149 87.2999 179.906 87.6106 177.421C88.2319 179.906 90.0959 181.46 92.5814 181.46C95.3775 181.46 97.863 179.285 97.863 176.178C97.863 173.071 95.6882 170.897 92.8921 170.897Z" fill="url(#paint3_linear_1_4236)"/>
<path d="M137.009 64.6443C136.388 64.6443 135.767 64.6443 135.145 64.955C135.767 64.0229 136.388 62.7802 136.388 61.5375C136.388 58.7414 134.213 56.256 131.106 56.256C128.31 56.256 125.825 58.4307 125.825 61.5375C125.825 62.7802 126.135 64.0229 127.067 64.955C126.446 64.6443 125.825 64.6443 125.203 64.6443C122.407 64.6443 119.922 66.8191 119.922 69.9259C119.922 72.722 122.097 75.2074 125.203 75.2074C127.689 75.2074 129.864 73.3433 130.174 71.1686C130.174 73.654 130.485 75.2074 127.689 77.6929C129.553 77.6929 132.97 77.6929 134.213 77.6929C131.417 74.8967 131.417 73.654 131.728 71.1686C132.349 73.654 134.213 75.2074 136.699 75.2074C139.495 75.2074 141.98 73.0327 141.98 69.9259C141.98 66.8191 139.805 64.6443 137.009 64.6443Z" fill="url(#paint4_linear_1_4236)"/>
<path d="M137.009 117.771C136.388 117.771 135.767 117.771 135.145 118.081C135.767 117.149 136.388 115.906 136.388 114.664C136.388 111.868 134.213 109.382 131.106 109.382C128.31 109.382 125.825 111.557 125.825 114.664C125.825 115.906 126.135 117.149 127.067 118.081C126.446 117.771 125.825 117.771 125.203 117.771C122.407 117.771 119.922 119.945 119.922 123.052C119.922 125.848 122.097 128.334 125.203 128.334C127.689 128.334 129.864 126.47 130.174 124.295C130.174 126.78 130.485 128.334 127.689 130.819C129.553 130.819 132.97 130.819 134.213 130.819C131.417 128.023 131.417 126.78 131.728 124.295C132.349 126.78 134.213 128.334 136.699 128.334C139.495 128.334 141.98 126.159 141.98 123.052C141.98 119.945 139.805 117.771 137.009 117.771Z" fill="url(#paint5_linear_1_4236)"/>
<path d="M114.951 91.0519C114.329 91.0519 113.708 91.0519 113.087 91.3626C113.708 90.4305 114.329 89.1878 114.329 87.9451C114.329 85.149 112.155 82.6636 109.048 82.6636C106.252 82.6636 103.766 84.8383 103.766 87.9451C103.766 89.1878 104.077 90.4305 105.009 91.3626C104.388 91.0519 103.766 91.0519 103.145 91.0519C100.349 91.0519 97.8633 93.2267 97.8633 96.3335C97.8633 99.1296 100.038 101.615 103.145 101.615C105.63 101.615 107.805 99.7509 108.116 97.5762C108.116 100.062 108.426 101.615 105.63 104.1C107.494 104.1 110.912 104.1 112.155 104.1C109.358 101.304 109.358 100.062 109.669 97.5762C110.29 100.062 112.155 101.615 114.64 101.615C117.436 101.615 119.922 99.4403 119.922 96.3335C119.922 93.5373 117.747 91.0519 114.951 91.0519Z" fill="url(#paint6_linear_1_4236)"/>
<path d="M137.009 170.897C136.388 170.897 135.767 170.897 135.145 171.207C135.767 170.275 136.388 169.033 136.388 167.79C136.388 164.994 134.213 162.508 131.106 162.508C128.31 162.508 125.825 164.683 125.825 167.79C125.825 169.033 126.135 170.275 127.067 171.207C126.446 170.897 125.825 170.897 125.203 170.897C122.407 170.897 119.922 173.072 119.922 176.178C119.922 178.974 122.097 181.46 125.203 181.46C127.689 181.46 129.864 179.596 130.174 177.421C130.174 179.906 130.485 181.46 127.689 183.945C129.553 183.945 132.97 183.945 134.213 183.945C131.417 181.149 131.417 179.906 131.728 177.421C132.349 179.906 134.213 181.46 136.699 181.46C139.495 181.46 141.98 179.285 141.98 176.178C141.98 173.072 139.805 170.897 137.009 170.897Z" fill="url(#paint7_linear_1_4236)"/>
<path d="M10.2507 6.23682H62.445L20.1925 74.5863L8.38672 67.13L38.5226 18.3533H9.94012V6.23682H10.2507Z" fill="url(#paint8_linear_1_4236)"/>
<defs>
<linearGradient id="paint0_linear_1_4236" x1="32.7759" y1="91.0522" x2="32.7759" y2="141.382" gradientUnits="userSpaceOnUse">
<stop stop-color="#320807"/>
<stop offset="1"/>
</linearGradient>
<linearGradient id="paint1_linear_1_4236" x1="86.8338" y1="56.2563" x2="86.8338" y2="77.6932" gradientUnits="userSpaceOnUse">
<stop stop-color="#320807"/>
<stop offset="1"/>
</linearGradient>
<linearGradient id="paint2_linear_1_4236" x1="86.8338" y1="109.382" x2="86.8338" y2="130.819" gradientUnits="userSpaceOnUse">
<stop stop-color="#320807"/>
<stop offset="1"/>
</linearGradient>
<linearGradient id="paint3_linear_1_4236" x1="86.8338" y1="162.508" x2="86.8338" y2="183.945" gradientUnits="userSpaceOnUse">
<stop stop-color="#320807"/>
<stop offset="1"/>
</linearGradient>
<linearGradient id="paint4_linear_1_4236" x1="130.951" y1="56.256" x2="130.951" y2="77.6929" gradientUnits="userSpaceOnUse">
<stop stop-color="#320807"/>
<stop offset="1"/>
</linearGradient>
<linearGradient id="paint5_linear_1_4236" x1="130.951" y1="109.382" x2="130.951" y2="130.819" gradientUnits="userSpaceOnUse">
<stop stop-color="#320807"/>
<stop offset="1"/>
</linearGradient>
<linearGradient id="paint6_linear_1_4236" x1="108.892" y1="82.6636" x2="108.892" y2="104.1" gradientUnits="userSpaceOnUse">
<stop stop-color="#320807"/>
<stop offset="1"/>
</linearGradient>
<linearGradient id="paint7_linear_1_4236" x1="130.951" y1="162.508" x2="130.951" y2="183.945" gradientUnits="userSpaceOnUse">
<stop stop-color="#320807"/>
<stop offset="1"/>
</linearGradient>
<linearGradient id="paint8_linear_1_4236" x1="35.4158" y1="6.23682" x2="35.4158" y2="74.5863" gradientUnits="userSpaceOnUse">
<stop stop-color="#320807"/>
<stop offset="1"/>
</linearGradient>
</defs>
</svg>
