<svg width="160" height="240" viewBox="0 0 160 240" fill="none" xmlns="http://www.w3.org/2000/svg">
<path d="M160 234.563C160 237.36 157.515 239.845 154.719 239.845H5.28159C2.48547 239.845 0 237.36 0 234.563V5.28192C0 2.48581 2.48547 0.000366211 5.28159 0.000366211H154.719C157.515 0.000366211 160 2.48581 160 5.28192V234.563Z" fill="white"/>
<path d="M50.0183 190.137C49.0862 189.205 48.1542 188.583 46.9115 187.651C39.1445 181.438 33.2415 172.739 33.2415 172.739C33.2415 172.739 27.3387 181.127 19.5717 187.651C18.6397 188.583 17.397 189.205 16.4649 190.137C11.1834 194.176 7.14453 197.282 7.14453 203.496C7.14453 207.224 8.38721 210.642 11.1833 213.127C13.6688 215.612 17.397 217.166 21.1251 217.166C25.1639 217.166 28.5813 215.612 31.0667 212.816C30.756 214.68 30.1348 217.166 29.8241 218.409C27.6493 224.001 24.5425 226.176 24.5425 226.176H41.6299C41.9406 226.176 38.5231 223.69 36.3483 218.409C35.7269 216.855 35.4164 214.68 35.1057 212.816C37.5911 215.612 41.3191 217.166 45.0473 217.166C48.7754 217.166 52.193 215.612 54.9891 213.127C57.4745 210.642 59.0279 207.224 59.0279 203.496C59.0279 197.282 54.9892 194.176 50.0183 190.137Z" fill="url(#paint0_linear_1_4504)"/>
<path d="M113.089 101.283C111.225 99.7291 109.05 98.1758 107.186 96.3117C92.273 83.8845 80.1567 67.1078 80.1567 67.1078C80.1567 67.1078 68.3508 83.8845 53.1275 96.3117C50.9527 98.1758 49.0886 99.7291 47.2245 101.283C36.9721 109.36 28.8945 115.574 28.8945 127.69C28.8945 134.836 31.6906 141.36 36.9721 146.642C42.2537 151.613 49.0887 154.409 56.2343 154.719H56.5449C64.3119 154.719 71.1469 151.613 76.4285 146.331C75.4964 150.059 74.8751 154.719 73.9431 157.516C69.9042 168.389 63.0691 173.05 63.6905 173.05H97.5546C97.8653 173.05 91.3411 168.389 87.3023 157.516C86.3702 154.719 85.4382 150.059 84.8169 146.331C90.0984 151.613 96.9333 154.719 104.7 154.719H105.011C112.467 154.719 119.302 151.923 124.273 146.642C129.555 141.671 132.351 134.836 132.351 127.69C131.419 115.574 123.341 109.36 113.089 101.283Z" fill="url(#paint1_linear_1_4504)"/>
<path d="M35.4179 5.90271H50.0198V54.0581C50.0198 60.2717 48.1557 65.2425 44.7382 69.2814C41.3208 73.0095 36.6605 74.8736 31.0683 74.8736C27.0294 74.8736 23.3013 73.6309 20.1945 71.1454C17.0877 68.66 14.6024 65.2425 12.7383 60.2717L23.3013 52.194V52.5047C23.3013 52.5047 23.6121 53.4367 24.2335 54.6794C24.8548 55.9221 25.7868 57.4755 26.7189 58.7183C27.6509 59.961 28.5829 60.5823 29.8257 60.5823C31.3791 60.5823 32.6217 59.961 33.8645 58.4076C34.7965 57.1648 35.4179 55.3008 35.4179 53.126V5.90271Z" fill="url(#paint2_linear_1_4504)"/>
<defs>
<linearGradient id="paint0_linear_1_4504" x1="33.0862" y1="172.739" x2="33.0862" y2="226.176" gradientUnits="userSpaceOnUse">
<stop stop-color="#320807"/>
<stop offset="1"/>
</linearGradient>
<linearGradient id="paint1_linear_1_4504" x1="80.6227" y1="67.1078" x2="80.6227" y2="173.05" gradientUnits="userSpaceOnUse">
<stop stop-color="#320807"/>
<stop offset="1"/>
</linearGradient>
<linearGradient id="paint2_linear_1_4504" x1="31.3791" y1="5.90271" x2="31.3791" y2="74.8736" gradientUnits="userSpaceOnUse">
<stop stop-color="#320807"/>
<stop offset="1"/>
</linearGradient>
</defs>
</svg>
