<svg width="160" height="240" viewBox="0 0 160 240" fill="none" xmlns="http://www.w3.org/2000/svg">
<path d="M160 234.586C160 237.382 157.515 239.868 154.718 239.868H5.28159C2.48547 239.868 0 237.382 0 234.586V5.30449C0 2.50838 2.48547 0.0229492 5.28159 0.0229492H154.718C157.515 0.0229492 160 2.50838 160 5.30449V234.586Z" fill="white"/>
<path d="M46.9118 110.625C45.3584 110.625 43.805 110.936 42.5623 111.557C44.4264 109.382 45.3584 106.586 45.3584 103.479C45.3584 96.6445 39.7662 91.0522 32.9312 91.0522C26.0963 91.0522 20.504 96.6445 20.504 103.479C20.504 106.586 21.7467 109.382 23.3001 111.557C22.0574 110.936 20.504 110.625 18.9506 110.625C12.1157 110.625 6.52344 116.217 6.52344 123.052C6.52344 129.887 12.1157 135.479 18.9506 135.479C24.8535 135.479 29.8244 131.441 31.0671 125.848C31.3778 131.751 31.6885 135.169 24.8535 141.382C28.8924 141.382 37.2807 141.382 40.6982 141.382C33.8632 135.169 34.4846 131.441 34.4846 125.848C35.7273 131.441 40.6982 135.79 46.6011 135.79C53.436 135.79 59.0283 130.198 59.0283 123.363C59.339 116.217 53.7467 110.625 46.9118 110.625Z" fill="url(#paint0_linear_1_4259)"/>
<path d="M92.8921 78.6252C92.2707 78.6252 91.6492 78.6251 91.0279 78.9358C91.6492 78.0038 92.2707 76.7611 92.2707 75.5184C92.2707 72.7222 90.0959 70.2368 86.9891 70.2368C84.193 70.2368 81.7075 72.4116 81.7075 75.5184C81.7075 76.7611 82.0182 78.0038 82.9503 78.9358C82.3289 78.6251 81.7076 78.6252 81.0863 78.6252C78.2902 78.6252 75.8047 80.7999 75.8047 83.9067C75.8047 86.7028 77.9795 89.1882 81.0863 89.1882C83.5717 89.1882 85.7464 87.3242 86.0571 85.1494C86.0571 87.6348 86.3678 89.1882 83.5717 91.6737C85.4358 91.6737 88.8532 91.6737 90.0959 91.6737C87.2998 88.8776 87.2998 87.6348 87.6105 85.1494C88.2318 87.6348 90.0958 89.1882 92.5813 89.1882C95.3774 89.1882 97.8629 87.0135 97.8629 83.9067C98.1735 80.7999 95.6882 78.6252 92.8921 78.6252Z" fill="url(#paint1_linear_1_4259)"/>
<path d="M92.8921 158.159C92.2707 158.159 91.6492 158.159 91.0279 158.47C91.6492 157.538 92.2707 156.295 92.2707 155.053C92.2707 152.256 90.0959 149.771 86.9891 149.771C84.193 149.771 81.7075 151.946 81.7075 155.053C81.7075 156.295 82.0182 157.538 82.9503 158.47C82.3289 158.159 81.7076 158.159 81.0863 158.159C78.2902 158.159 75.8047 160.334 75.8047 163.441C75.8047 166.237 77.9795 168.722 81.0863 168.722C83.5717 168.722 85.7464 166.858 86.0571 164.684C86.0571 167.169 86.3678 168.722 83.5717 171.208C85.4358 171.208 88.8532 171.208 90.0959 171.208C87.2998 168.412 87.2998 167.169 87.6105 164.684C88.2318 167.169 90.0958 168.722 92.5813 168.722C95.3774 168.722 97.8629 166.548 97.8629 163.441C98.1735 160.334 95.6882 158.159 92.8921 158.159Z" fill="url(#paint2_linear_1_4259)"/>
<path d="M137.322 78.6252C136.7 78.6252 136.079 78.6251 135.458 78.9358C136.079 78.0038 136.7 76.7611 136.7 75.5184C136.7 72.7222 134.526 70.2368 131.419 70.2368C128.623 70.2368 126.137 72.4116 126.137 75.5184C126.137 76.7611 126.448 78.0038 127.38 78.9358C126.759 78.6251 126.137 78.6252 125.516 78.6252C122.72 78.6252 120.234 80.7999 120.234 83.9067C120.234 86.7028 122.409 89.1882 125.516 89.1882C128.001 89.1882 130.176 87.3242 130.487 85.1494C130.487 87.6348 130.797 89.1882 128.001 91.6737C129.865 91.6737 133.283 91.6737 134.526 91.6737C131.729 88.8776 131.729 87.6348 132.04 85.1494C132.662 87.6348 134.526 89.1882 137.011 89.1882C139.807 89.1882 142.293 87.0135 142.293 83.9067C142.293 80.7999 140.118 78.6252 137.322 78.6252Z" fill="url(#paint3_linear_1_4259)"/>
<path d="M137.322 158.159C136.7 158.159 136.079 158.159 135.458 158.47C136.079 157.538 136.7 156.295 136.7 155.053C136.7 152.256 134.526 149.771 131.419 149.771C128.623 149.771 126.137 151.946 126.137 155.053C126.137 156.295 126.448 157.538 127.38 158.47C126.759 158.159 126.137 158.159 125.516 158.159C122.72 158.159 120.234 160.334 120.234 163.441C120.234 166.237 122.409 168.722 125.516 168.722C128.001 168.722 130.176 166.858 130.487 164.684C130.487 167.169 130.797 168.722 128.001 171.208C129.865 171.208 133.283 171.208 134.526 171.208C131.729 168.412 131.729 167.169 132.04 164.684C132.662 167.169 134.526 168.722 137.011 168.722C139.807 168.722 142.293 166.548 142.293 163.441C142.293 160.334 140.118 158.159 137.322 158.159Z" fill="url(#paint4_linear_1_4259)"/>
<path d="M114.951 175.867C114.329 175.867 113.708 175.867 113.087 176.178C113.708 175.246 114.329 174.003 114.329 172.761C114.329 169.964 112.155 167.479 109.048 167.479C106.252 167.479 103.766 169.654 103.766 172.761C103.766 174.003 104.388 175.246 105.009 176.178C104.388 175.867 103.766 175.867 103.145 175.867C100.349 175.867 97.8633 178.042 97.8633 181.149C97.8633 183.945 100.038 186.43 103.145 186.43C105.63 186.43 107.805 184.566 108.116 182.392C108.116 184.877 108.426 186.43 105.63 188.916C107.494 188.916 110.912 188.916 112.155 188.916C109.359 186.12 109.358 184.877 109.669 182.392C110.29 184.877 112.155 186.43 114.64 186.43C117.436 186.43 119.922 184.256 119.922 181.149C120.232 178.042 117.747 175.867 114.951 175.867Z" fill="url(#paint5_linear_1_4259)"/>
<path d="M92.8921 118.392C92.2707 118.392 91.6492 118.392 91.0279 118.702C91.6492 117.77 92.2707 116.528 92.2707 115.285C92.2707 112.489 90.0959 110.003 86.9891 110.003C84.193 110.003 81.7075 112.178 81.7075 115.285C81.7075 116.528 82.0182 117.77 82.9503 118.702C82.3289 118.392 81.7076 118.392 81.0863 118.392C78.2902 118.392 75.8047 120.567 75.8047 123.673C75.8047 126.469 77.9795 128.955 81.0863 128.955C83.5717 128.955 85.7464 127.091 86.0571 124.916C86.0571 127.401 86.3678 128.955 83.5717 131.44C85.4358 131.44 88.8532 131.44 90.0959 131.44C87.2998 128.644 87.2998 127.401 87.6105 124.916C88.2318 127.401 90.0958 128.955 92.5813 128.955C95.3774 128.955 97.8629 126.78 97.8629 123.673C98.1735 120.567 95.6882 118.392 92.8921 118.392Z" fill="url(#paint6_linear_1_4259)"/>
<path d="M92.8921 197.926C92.2707 197.926 91.6492 197.926 91.0279 198.237C91.6492 197.305 92.2707 196.062 92.2707 194.819C92.2707 192.023 90.0959 189.538 86.9891 189.538C84.193 189.538 81.7075 191.712 81.7075 194.819C81.7075 196.062 82.0182 197.305 82.9503 198.237C82.3289 197.926 81.7076 197.926 81.0863 197.926C78.2902 197.926 75.8047 200.101 75.8047 203.207C75.8047 206.004 77.9795 208.489 81.0863 208.489C83.5717 208.489 85.7464 206.625 86.0571 204.45C86.0571 206.936 86.3678 208.489 83.5717 210.974C85.4358 210.974 88.8532 210.974 90.0959 210.974C87.2998 208.178 87.2998 206.936 87.6105 204.45C88.2318 206.936 90.0958 208.489 92.5813 208.489C95.3774 208.489 97.8629 206.314 97.8629 203.207C98.1735 200.101 95.6882 197.926 92.8921 197.926Z" fill="url(#paint7_linear_1_4259)"/>
<path d="M137.322 118.392C136.7 118.392 136.079 118.392 135.458 118.702C136.079 117.77 136.7 116.528 136.7 115.285C136.7 112.489 134.526 110.003 131.419 110.003C128.623 110.003 126.137 112.178 126.137 115.285C126.137 116.528 126.448 117.77 127.38 118.702C126.759 118.392 126.137 118.392 125.516 118.392C122.72 118.392 120.234 120.567 120.234 123.673C120.234 126.469 122.409 128.955 125.516 128.955C128.001 128.955 130.176 127.091 130.487 124.916C130.487 127.401 130.797 128.955 128.001 131.44C129.865 131.44 133.283 131.44 134.526 131.44C131.729 128.644 131.729 127.401 132.04 124.916C132.662 127.401 134.526 128.955 137.011 128.955C139.807 128.955 142.293 126.78 142.293 123.673C142.293 120.567 140.118 118.392 137.322 118.392Z" fill="url(#paint8_linear_1_4259)"/>
<path d="M114.951 100.683C114.329 100.683 113.708 100.683 113.087 100.993C113.708 100.061 114.329 98.8187 114.329 97.576C114.329 94.7799 112.155 92.2944 109.048 92.2944C106.252 92.2944 103.766 94.4692 103.766 97.576C103.766 98.8187 104.388 100.061 105.009 100.993C104.388 100.683 103.766 100.683 103.145 100.683C100.349 100.683 97.8633 102.858 97.8633 105.964C97.8633 108.76 100.038 111.246 103.145 111.246C105.63 111.246 107.805 109.382 108.116 107.207C108.116 109.692 108.426 111.246 105.63 113.731C107.494 113.731 110.912 113.731 112.155 113.731C109.359 110.935 109.358 109.692 109.669 107.207C110.29 109.692 112.155 111.246 114.64 111.246C117.436 111.246 119.922 109.071 119.922 105.964C120.232 102.858 117.747 100.683 114.951 100.683Z" fill="url(#paint9_linear_1_4259)"/>
<path d="M137.322 197.926C136.7 197.926 136.079 197.926 135.458 198.237C136.079 197.305 136.7 196.062 136.7 194.819C136.7 192.023 134.526 189.538 131.419 189.538C128.623 189.538 126.137 191.712 126.137 194.819C126.137 196.062 126.448 197.305 127.38 198.237C126.759 197.926 126.137 197.926 125.516 197.926C122.72 197.926 120.234 200.101 120.234 203.207C120.234 206.004 122.409 208.489 125.516 208.489C128.001 208.489 130.176 206.625 130.487 204.45C130.487 206.936 130.797 208.489 128.001 210.974C129.865 210.974 133.283 210.974 134.526 210.974C131.729 208.178 131.729 206.936 132.04 204.45C132.662 206.936 134.526 208.489 137.011 208.489C139.807 208.489 142.293 206.314 142.293 203.207C142.293 200.101 140.118 197.926 137.322 197.926Z" fill="url(#paint10_linear_1_4259)"/>
<path d="M6.52266 7.47937H27.9595V73.6541H13.3576V19.5959H3.72656L6.52266 7.47937Z" fill="url(#paint11_linear_1_4259)"/>
<path d="M59.6478 6.54736C67.4148 6.54736 73.6284 9.65414 78.2886 15.5571C82.9488 21.46 85.4342 29.5376 85.4342 39.7901C85.4342 51.5959 82.9488 60.2949 77.6672 65.8871C72.3857 71.4794 66.4828 74.2755 59.6478 74.2755C51.8809 74.2755 45.6672 71.1687 40.6964 65.2658C35.7255 59.0522 33.5508 51.2852 33.5508 41.3435C33.5508 30.7804 36.0362 22.392 40.6964 16.1784C45.3566 9.96481 51.5703 6.54736 59.3372 6.54736H59.6478ZM71.4536 41.0328C71.4536 34.1978 70.5216 28.9163 68.3468 25.1881C66.1721 21.46 63.376 19.2852 59.6478 19.2852C55.9197 19.2852 52.8129 21.1493 50.6382 25.1881C48.4634 28.9163 47.2207 34.5085 47.2207 41.3435C47.2207 47.5571 48.4634 52.5279 50.6382 56.2561C52.8129 59.9843 55.6091 61.8483 59.3372 61.8483C63.0654 61.8483 65.8615 59.9843 68.0362 56.2561C70.5217 52.2173 71.4536 47.2464 71.4536 41.0328Z" fill="url(#paint12_linear_1_4259)"/>
<defs>
<linearGradient id="paint0_linear_1_4259" x1="32.782" y1="91.0522" x2="32.782" y2="141.382" gradientUnits="userSpaceOnUse">
<stop stop-color="#320807"/>
<stop offset="1"/>
</linearGradient>
<linearGradient id="paint1_linear_1_4259" x1="86.8469" y1="70.2368" x2="86.8469" y2="91.6737" gradientUnits="userSpaceOnUse">
<stop stop-color="#320807"/>
<stop offset="1"/>
</linearGradient>
<linearGradient id="paint2_linear_1_4259" x1="86.8469" y1="149.771" x2="86.8469" y2="171.208" gradientUnits="userSpaceOnUse">
<stop stop-color="#320807"/>
<stop offset="1"/>
</linearGradient>
<linearGradient id="paint3_linear_1_4259" x1="131.263" y1="70.2368" x2="131.263" y2="91.6737" gradientUnits="userSpaceOnUse">
<stop stop-color="#320807"/>
<stop offset="1"/>
</linearGradient>
<linearGradient id="paint4_linear_1_4259" x1="131.263" y1="149.771" x2="131.263" y2="171.208" gradientUnits="userSpaceOnUse">
<stop stop-color="#320807"/>
<stop offset="1"/>
</linearGradient>
<linearGradient id="paint5_linear_1_4259" x1="108.906" y1="167.479" x2="108.906" y2="188.916" gradientUnits="userSpaceOnUse">
<stop stop-color="#320807"/>
<stop offset="1"/>
</linearGradient>
<linearGradient id="paint6_linear_1_4259" x1="86.8469" y1="110.003" x2="86.8469" y2="131.44" gradientUnits="userSpaceOnUse">
<stop stop-color="#320807"/>
<stop offset="1"/>
</linearGradient>
<linearGradient id="paint7_linear_1_4259" x1="86.8469" y1="189.538" x2="86.8469" y2="210.974" gradientUnits="userSpaceOnUse">
<stop stop-color="#320807"/>
<stop offset="1"/>
</linearGradient>
<linearGradient id="paint8_linear_1_4259" x1="131.263" y1="110.003" x2="131.263" y2="131.44" gradientUnits="userSpaceOnUse">
<stop stop-color="#320807"/>
<stop offset="1"/>
</linearGradient>
<linearGradient id="paint9_linear_1_4259" x1="108.906" y1="92.2944" x2="108.906" y2="113.731" gradientUnits="userSpaceOnUse">
<stop stop-color="#320807"/>
<stop offset="1"/>
</linearGradient>
<linearGradient id="paint10_linear_1_4259" x1="131.263" y1="189.538" x2="131.263" y2="210.974" gradientUnits="userSpaceOnUse">
<stop stop-color="#320807"/>
<stop offset="1"/>
</linearGradient>
<linearGradient id="paint11_linear_1_4259" x1="15.843" y1="7.47937" x2="15.843" y2="73.6541" gradientUnits="userSpaceOnUse">
<stop stop-color="#320807"/>
<stop offset="1"/>
</linearGradient>
<linearGradient id="paint12_linear_1_4259" x1="59.4925" y1="6.54736" x2="59.4925" y2="74.2755" gradientUnits="userSpaceOnUse">
<stop stop-color="#320807"/>
<stop offset="1"/>
</linearGradient>
</defs>
</svg>
