<svg width="160" height="240" viewBox="0 0 160 240" fill="none" xmlns="http://www.w3.org/2000/svg">
<path d="M160 234.586C160 237.382 157.515 239.868 154.718 239.868H5.28154C2.48543 239.868 0 237.382 0 234.586V5.30449C0 2.50838 2.48543 0.0229492 5.28154 0.0229492H154.718C157.515 0.0229492 160 2.50838 160 5.30449V234.586Z" fill="white"/>
<path d="M46.9118 110.625C45.3584 110.625 43.805 110.936 42.5623 111.557C44.4264 109.382 45.3584 106.586 45.3584 103.479C45.3584 96.6445 39.7661 91.0522 32.9312 91.0522C26.0962 91.0522 20.504 96.6445 20.504 103.479C20.504 106.586 21.7468 109.382 23.3002 111.557C22.0575 110.936 20.504 110.625 18.9506 110.625C12.1157 110.625 6.52344 116.217 6.52344 123.052C6.52344 129.887 12.1157 135.479 18.9506 135.479C24.8535 135.479 29.8245 131.441 31.0672 125.848C31.3779 131.751 31.6886 135.169 24.8536 141.382C28.8924 141.382 37.2807 141.382 40.6982 141.382C33.8632 135.169 34.4846 131.441 34.4846 125.848C35.7273 131.441 40.6983 135.79 46.6012 135.79C53.4361 135.79 59.0284 130.198 59.0284 123.363C59.0284 116.217 53.7467 110.625 46.9118 110.625Z" fill="url(#paint0_linear_1_4226)"/>
<path d="M92.8921 64.6447C92.2707 64.6447 91.6493 64.6447 91.028 64.9553C91.6493 64.0233 92.2707 62.7806 92.2707 61.5379C92.2707 58.7418 90.096 56.2563 86.9892 56.2563C84.1931 56.2563 81.7076 58.4311 81.7076 61.5379C81.7076 62.7806 82.0182 64.0233 82.9503 64.9553C82.3289 64.6447 81.7075 64.6447 81.0862 64.6447C78.2901 64.6447 75.8047 66.8194 75.8047 69.9262C75.8047 72.7223 77.9794 75.2078 81.0862 75.2078C83.5716 75.2078 85.7464 73.3437 86.0571 71.1689C86.0571 73.6544 86.3678 75.2078 83.5717 77.6932C85.4358 77.6932 88.8532 77.6932 90.096 77.6932C87.2998 74.8971 87.2998 73.6544 87.6105 71.1689C88.2318 73.6544 90.0959 75.2078 92.5814 75.2078C95.3775 75.2078 97.8629 73.033 97.8629 69.9262C97.8629 66.8194 95.6882 64.6447 92.8921 64.6447Z" fill="url(#paint1_linear_1_4226)"/>
<path d="M92.8921 117.771C92.2707 117.771 91.6493 117.771 91.028 118.081C91.6493 117.149 92.2707 115.907 92.2707 114.664C92.2707 111.868 90.096 109.382 86.9892 109.382C84.1931 109.382 81.7076 111.557 81.7076 114.664C81.7076 115.907 82.0182 117.149 82.9503 118.081C82.3289 117.771 81.7075 117.771 81.0862 117.771C78.2901 117.771 75.8047 119.945 75.8047 123.052C75.8047 125.848 77.9794 128.334 81.0862 128.334C83.5716 128.334 85.7464 126.47 86.0571 124.295C86.0571 126.78 86.3678 128.334 83.5717 130.819C85.4358 130.819 88.8532 130.819 90.096 130.819C87.2998 128.023 87.2998 126.78 87.6105 124.295C88.2318 126.78 90.0959 128.334 92.5814 128.334C95.3775 128.334 97.8629 126.159 97.8629 123.052C97.8629 119.945 95.6882 117.771 92.8921 117.771Z" fill="url(#paint2_linear_1_4226)"/>
<path d="M92.8921 170.897C92.2707 170.897 91.6493 170.897 91.028 171.207C91.6493 170.275 92.2707 169.033 92.2707 167.79C92.2707 164.994 90.096 162.508 86.9892 162.508C84.1931 162.508 81.7076 164.683 81.7076 167.79C81.7076 169.033 82.0182 170.275 82.9503 171.207C82.3289 170.897 81.7075 170.897 81.0862 170.897C78.2901 170.897 75.8047 173.071 75.8047 176.178C75.8047 178.974 77.9794 181.46 81.0862 181.46C83.5716 181.46 85.7464 179.596 86.0571 177.421C86.0571 179.906 86.3678 181.46 83.5717 183.945C85.4358 183.945 88.8532 183.945 90.096 183.945C87.2998 181.149 87.2998 179.906 87.6105 177.421C88.2318 179.906 90.0959 181.46 92.5814 181.46C95.3775 181.46 97.8629 179.285 97.8629 176.178C97.8629 173.071 95.6882 170.897 92.8921 170.897Z" fill="url(#paint3_linear_1_4226)"/>
<path d="M137.009 64.6443C136.388 64.6443 135.767 64.6443 135.145 64.955C135.767 64.0229 136.388 62.7802 136.388 61.5375C136.388 58.7414 134.213 56.256 131.106 56.256C128.31 56.256 125.825 58.4307 125.825 61.5375C125.825 62.7802 126.136 64.0229 127.068 64.955C126.446 64.6443 125.825 64.6443 125.203 64.6443C122.407 64.6443 119.922 66.8191 119.922 69.9259C119.922 72.722 122.097 75.2074 125.203 75.2074C127.689 75.2074 129.864 73.3433 130.174 71.1686C130.174 73.654 130.485 75.2074 127.689 77.6928C129.553 77.6928 132.97 77.6928 134.213 77.6928C131.417 74.8967 131.417 73.654 131.728 71.1686C132.349 73.654 134.213 75.2074 136.699 75.2074C139.495 75.2074 141.98 73.0327 141.98 69.9259C142.291 66.8191 139.805 64.6443 137.009 64.6443Z" fill="url(#paint4_linear_1_4226)"/>
<path d="M137.009 117.77C136.388 117.77 135.767 117.77 135.145 118.081C135.767 117.149 136.388 115.906 136.388 114.664C136.388 111.868 134.213 109.382 131.106 109.382C128.31 109.382 125.825 111.557 125.825 114.664C125.825 115.906 126.136 117.149 127.068 118.081C126.446 117.77 125.825 117.77 125.203 117.77C122.407 117.77 119.922 119.945 119.922 123.052C119.922 125.848 122.097 128.334 125.203 128.334C127.689 128.334 129.864 126.47 130.174 124.295C130.174 126.78 130.485 128.334 127.689 130.819C129.553 130.819 132.97 130.819 134.213 130.819C131.417 128.023 131.417 126.78 131.728 124.295C132.349 126.78 134.213 128.334 136.699 128.334C139.495 128.334 141.98 126.159 141.98 123.052C142.291 119.945 139.805 117.77 137.009 117.77Z" fill="url(#paint5_linear_1_4226)"/>
<path d="M137.009 170.897C136.388 170.897 135.767 170.897 135.145 171.207C135.767 170.275 136.388 169.033 136.388 167.79C136.388 164.994 134.213 162.508 131.106 162.508C128.31 162.508 125.825 164.683 125.825 167.79C125.825 169.033 126.136 170.275 127.068 171.207C126.446 170.897 125.825 170.897 125.203 170.897C122.407 170.897 119.922 173.071 119.922 176.178C119.922 178.974 122.097 181.46 125.203 181.46C127.689 181.46 129.864 179.596 130.174 177.421C130.174 179.906 130.485 181.46 127.689 183.945C129.553 183.945 132.97 183.945 134.213 183.945C131.417 181.149 131.417 179.906 131.728 177.421C132.349 179.906 134.213 181.46 136.699 181.46C139.495 181.46 141.98 179.285 141.98 176.178C142.291 173.071 139.805 170.897 137.009 170.897Z" fill="url(#paint6_linear_1_4226)"/>
<path d="M27.9624 6.85791H45.3604L28.8944 29.2268C31.0692 28.9161 33.2439 28.6055 35.108 28.6055C40.7002 28.6055 45.6711 30.7803 50.0206 35.1298C54.0594 39.4793 56.2342 44.4501 56.2342 50.353C56.2342 57.188 53.7488 62.7802 48.7779 67.4404C43.807 71.7899 37.5934 74.2754 30.1371 74.2754C23.3022 74.2754 17.3992 72.1006 13.0497 67.7511C8.38954 63.4016 6.21484 57.8093 6.21484 50.9744C6.21484 46.0035 7.45749 41.0327 9.63224 35.7511C11.807 30.4696 14.2925 26.12 17.0886 22.3919L27.9624 6.85791ZM41.0109 50.0424C41.0109 46.9356 40.0789 44.4501 38.2148 42.5861C36.3507 40.4113 33.8653 39.4793 31.0692 39.4793C27.9624 39.4793 25.477 40.4113 23.3022 42.5861C21.1275 44.7608 20.1954 47.2463 20.1954 50.0424C20.1954 52.8385 21.1275 55.3239 23.3022 57.4987C25.477 59.6734 27.9624 60.6055 31.0692 60.6055C33.8653 60.6055 36.04 59.6734 37.9041 57.4987C40.0789 55.6346 41.0109 53.1492 41.0109 50.0424Z" fill="url(#paint7_linear_1_4226)"/>
<defs>
<linearGradient id="paint0_linear_1_4226" x1="32.7759" y1="91.0522" x2="32.7759" y2="141.382" gradientUnits="userSpaceOnUse">
<stop stop-color="#320807"/>
<stop offset="1"/>
</linearGradient>
<linearGradient id="paint1_linear_1_4226" x1="86.8338" y1="56.2563" x2="86.8338" y2="77.6932" gradientUnits="userSpaceOnUse">
<stop stop-color="#320807"/>
<stop offset="1"/>
</linearGradient>
<linearGradient id="paint2_linear_1_4226" x1="86.8338" y1="109.382" x2="86.8338" y2="130.819" gradientUnits="userSpaceOnUse">
<stop stop-color="#320807"/>
<stop offset="1"/>
</linearGradient>
<linearGradient id="paint3_linear_1_4226" x1="86.8338" y1="162.508" x2="86.8338" y2="183.945" gradientUnits="userSpaceOnUse">
<stop stop-color="#320807"/>
<stop offset="1"/>
</linearGradient>
<linearGradient id="paint4_linear_1_4226" x1="130.964" y1="56.256" x2="130.964" y2="77.6928" gradientUnits="userSpaceOnUse">
<stop stop-color="#320807"/>
<stop offset="1"/>
</linearGradient>
<linearGradient id="paint5_linear_1_4226" x1="130.964" y1="109.382" x2="130.964" y2="130.819" gradientUnits="userSpaceOnUse">
<stop stop-color="#320807"/>
<stop offset="1"/>
</linearGradient>
<linearGradient id="paint6_linear_1_4226" x1="130.964" y1="162.508" x2="130.964" y2="183.945" gradientUnits="userSpaceOnUse">
<stop stop-color="#320807"/>
<stop offset="1"/>
</linearGradient>
<linearGradient id="paint7_linear_1_4226" x1="31.2245" y1="6.85791" x2="31.2245" y2="74.2754" gradientUnits="userSpaceOnUse">
<stop stop-color="#320807"/>
<stop offset="1"/>
</linearGradient>
</defs>
</svg>
