<svg width="160" height="241" viewBox="0 0 160 241" fill="none" xmlns="http://www.w3.org/2000/svg">
<path d="M160 234.874C160 237.67 157.515 240.156 154.718 240.156H5.28156C2.48544 240.156 0 237.67 0 234.874V5.5924C0 2.79628 2.48544 0.310852 5.28156 0.310852H154.718C157.515 0.310852 160 2.79628 160 5.5924V234.874Z" fill="white"/>
<path d="M35.1054 62.1369H54.0569V74.5641H7.76562L30.4452 45.9816C33.8627 41.6321 36.0375 38.2146 37.5909 35.7292C39.1443 32.9331 39.7656 30.4476 39.7656 28.2729C39.7656 25.7874 38.8336 23.6127 37.2802 22.0593C35.7268 20.5059 33.552 19.5738 31.0666 19.5738C28.2705 19.5738 26.0957 20.5059 24.853 22.6806C23.6103 24.8554 22.6782 27.9622 22.3676 32.6224H7.76562C7.76562 24.5447 9.94038 18.3311 14.9113 13.9816C19.5714 9.63209 25.4744 7.45734 32.62 7.45734C39.1443 7.45734 44.4258 9.32142 48.4647 13.0496C52.5035 16.7777 54.6782 21.7486 54.6782 27.6515C54.6782 33.5544 52.1928 39.768 47.5326 46.9137L43.4938 52.8166C41.9404 54.9913 40.0763 57.7874 37.5909 60.8942L35.1054 62.1369Z" fill="url(#paint0_linear_1_4303)"/>
<path d="M55.9217 120.232C48.4654 127.067 38.213 141.048 33.2421 151.3C28.2712 141.048 18.0188 127.067 10.5625 120.232C18.0188 113.397 28.2712 99.4168 33.2421 89.1644C38.213 99.4168 48.4654 113.397 55.9217 120.232Z" fill="url(#paint1_linear_1_4303)"/>
<path d="M105.32 160C102.214 162.796 98.1748 168.389 96.0001 172.738C93.8253 168.389 89.7865 162.796 86.6797 160C89.7865 157.204 93.8253 151.612 96.0001 147.262C98.1748 151.301 102.214 157.204 105.32 160Z" fill="url(#paint2_linear_1_4303)"/>
<path d="M105.32 80.4667C102.214 83.2628 98.1748 88.855 96.0001 93.2045C93.8253 88.855 89.7865 83.2628 86.6797 80.4667C89.7865 77.6706 93.8253 72.0783 96.0001 67.7288C98.1748 71.7677 102.214 77.3599 105.32 80.4667Z" fill="url(#paint3_linear_1_4303)"/>
<defs>
<linearGradient id="paint0_linear_1_4303" x1="31.2219" y1="7.45734" x2="31.2219" y2="74.5641" gradientUnits="userSpaceOnUse">
<stop stop-color="#FD4D1E"/>
<stop offset="1" stop-color="#AE1B06"/>
</linearGradient>
<linearGradient id="paint1_linear_1_4303" x1="33.2421" y1="89.1644" x2="33.2421" y2="151.3" gradientUnits="userSpaceOnUse">
<stop stop-color="#FD4D1E"/>
<stop offset="1" stop-color="#AE1B06"/>
</linearGradient>
<linearGradient id="paint2_linear_1_4303" x1="96.0001" y1="147.262" x2="96.0001" y2="172.738" gradientUnits="userSpaceOnUse">
<stop stop-color="#FD4D1E"/>
<stop offset="1" stop-color="#AE1B06"/>
</linearGradient>
<linearGradient id="paint3_linear_1_4303" x1="96.0001" y1="67.7288" x2="96.0001" y2="93.2045" gradientUnits="userSpaceOnUse">
<stop stop-color="#FD4D1E"/>
<stop offset="1" stop-color="#AE1B06"/>
</linearGradient>
</defs>
</svg>
