<svg width="160" height="241" viewBox="0 0 160 241" fill="none" xmlns="http://www.w3.org/2000/svg">
<path d="M160 235.497C160 238.293 157.515 240.779 154.718 240.779H5.28156C2.48544 240.779 0 238.293 0 235.497V6.21567C0 3.41956 2.48544 0.934082 5.28156 0.934082H154.718C157.515 0.934082 160 3.41956 160 6.21567V235.497Z" fill="white"/>
<path d="M35.1054 62.7592H54.0569V75.1864H7.76562L30.4452 46.6038C33.8627 42.2543 36.0375 38.8369 37.5909 36.3515C39.1443 33.5553 39.7656 31.0698 39.7656 28.8951C39.7656 26.4096 38.8336 24.2349 37.2802 22.6815C35.7268 21.1281 33.552 20.1961 31.0666 20.1961C28.2705 20.1961 26.0957 21.1281 24.853 23.3029C23.6103 25.4776 22.6782 28.5845 22.3676 33.2447H7.76562C7.76562 25.167 9.94038 18.9534 14.9113 14.6039C19.5714 10.2544 25.4744 8.07959 32.62 8.07959C39.1443 8.07959 44.4258 9.94363 48.4647 13.6718C52.5035 17.3999 54.6782 22.3709 54.6782 28.2738C54.6782 34.1767 52.1928 40.3902 47.5326 47.5358L43.4938 53.4388C41.9404 55.6136 40.0763 58.4096 37.5909 61.5164L35.1054 62.7592Z" fill="url(#paint0_linear_1_4086)"/>
<path d="M46.9127 97.8662C36.9709 96.9342 33.8641 103.148 33.2428 105.323C32.3107 103.148 29.2039 96.9342 19.5729 97.8662C10.2525 99.4196 7.45636 107.808 8.3884 115.575C10.2525 128.002 29.2039 136.08 33.2428 143.536L33.5534 143.847L33.8641 143.536C37.903 135.769 56.5437 127.691 58.7185 115.575C59.3399 107.808 56.2331 99.7303 46.9127 97.8662Z" fill="url(#paint1_linear_1_4086)"/>
<path d="M102.524 71.7691C97.8638 71.1478 96.3104 74.2546 95.9997 75.1866C95.689 74.2546 94.1356 71.1478 89.4754 71.7691C85.1259 72.7012 83.5725 76.4293 84.1939 80.1574C85.1259 86.0603 94.1356 89.7885 95.9997 93.5167C97.8638 89.7885 106.874 86.0603 107.806 80.1574C108.427 76.7399 106.874 72.7012 102.524 71.7691Z" fill="url(#paint2_linear_1_4086)"/>
<path d="M102.524 151.614C97.8638 150.992 96.3104 154.099 95.9997 155.031C95.689 154.099 94.1356 150.992 89.4754 151.614C85.1259 152.546 83.5725 156.274 84.1939 160.002C85.1259 165.905 94.1356 169.633 95.9997 173.361C97.8638 169.633 106.874 165.905 107.806 160.002C108.427 156.274 106.874 152.235 102.524 151.614Z" fill="url(#paint3_linear_1_4086)"/>
<defs>
<linearGradient id="paint0_linear_1_4086" x1="31.2219" y1="8.07959" x2="31.2219" y2="75.1864" gradientUnits="userSpaceOnUse">
<stop stop-color="#FD4D1E"/>
<stop offset="1" stop-color="#AE1B06"/>
</linearGradient>
<linearGradient id="paint1_linear_1_4086" x1="33.5068" y1="97.7717" x2="33.5068" y2="143.847" gradientUnits="userSpaceOnUse">
<stop stop-color="#FD4D1E"/>
<stop offset="1" stop-color="#AE1B06"/>
</linearGradient>
<linearGradient id="paint2_linear_1_4086" x1="95.9997" y1="71.6877" x2="95.9997" y2="93.5167" gradientUnits="userSpaceOnUse">
<stop stop-color="#FD4D1E"/>
<stop offset="1" stop-color="#AE1B06"/>
</linearGradient>
<linearGradient id="paint3_linear_1_4086" x1="95.9997" y1="151.532" x2="95.9997" y2="173.361" gradientUnits="userSpaceOnUse">
<stop stop-color="#FD4D1E"/>
<stop offset="1" stop-color="#AE1B06"/>
</linearGradient>
</defs>
</svg>
