<svg width="160" height="240" viewBox="0 0 160 240" fill="none" xmlns="http://www.w3.org/2000/svg">
<path d="M160 234.563C160 237.36 157.515 239.845 154.718 239.845H5.28154C2.48543 239.845 0 237.36 0 234.563V5.28192C0 2.48581 2.48543 0.000366211 5.28154 0.000366211H154.718C157.515 0.000366211 160 2.48581 160 5.28192V234.563Z" fill="white"/>
<path d="M49.7097 110.602C48.7777 109.67 47.8457 109.048 46.6029 108.116C38.8359 101.903 32.933 93.2035 32.933 93.2035C32.933 93.2035 27.0301 101.592 19.2631 108.116C18.3311 109.048 17.0884 109.67 16.1563 110.602C10.8748 114.64 6.83594 117.747 6.83594 123.961C6.83594 127.689 8.38934 131.106 10.8748 133.592C13.3602 136.077 17.0884 137.631 20.8165 137.631C24.8554 137.631 28.2728 136.077 30.7583 133.281C30.4476 135.145 29.8262 137.631 29.5156 138.873C27.3408 144.466 23.9233 146.64 24.234 146.64H41.3213C41.632 146.64 38.2146 144.155 36.0398 138.873C35.4184 137.32 35.1078 135.145 34.7971 133.281C37.2825 136.077 41.0107 137.631 44.7388 137.631C48.467 137.631 51.8845 136.077 54.6806 133.592C57.166 131.106 58.7194 127.689 58.7194 123.961C59.0301 117.747 54.9913 114.64 49.7097 110.602Z" fill="url(#paint0_linear_1_4425)"/>
<path d="M94.4473 155.65C94.1366 155.339 93.5153 155.029 93.2046 154.718C89.7871 151.922 87.3016 148.194 87.3016 148.194C87.3016 148.194 84.8162 151.922 81.3987 154.718C81.0881 155.029 80.4667 155.339 80.156 155.65C77.9812 157.514 76.1172 158.757 76.1172 161.553C76.1172 163.106 76.7385 164.66 77.9812 165.592C79.224 166.835 80.7774 167.456 82.3308 167.456C83.8842 167.456 85.4376 166.835 86.6803 165.592C86.3696 166.524 86.3696 167.456 86.0589 168.077C85.1269 170.563 83.5735 171.495 83.8842 171.495H91.3405C91.3405 171.495 90.0978 170.563 89.1657 168.077C88.855 167.456 88.8551 166.524 88.5444 165.592C89.7871 166.835 91.3405 167.456 92.8939 167.456C94.4473 167.456 96.0007 166.835 97.2434 165.592C98.4861 164.349 99.1075 163.106 99.1075 161.553C98.1754 158.757 96.622 157.514 94.4473 155.65Z" fill="url(#paint1_linear_1_4425)"/>
<path d="M94.4473 76.1168C94.1366 75.8062 93.5153 75.4955 93.2046 75.1848C89.7871 72.3887 87.3016 68.6605 87.3016 68.6605C87.3016 68.6605 84.8162 72.3887 81.3987 75.1848C81.0881 75.4955 80.4667 75.8062 80.156 76.1168C77.9812 77.9809 76.1172 79.2236 76.1172 82.0198C76.1172 83.5732 76.7385 85.1266 77.9812 86.0586C79.224 87.3013 80.7774 87.9227 82.3308 87.9227C83.8842 87.9227 85.4376 87.3013 86.6803 86.0586C86.3696 86.9906 86.3696 87.9227 86.0589 88.544C85.1269 91.0295 83.5735 91.9615 83.8842 91.9615H91.3405C91.3405 91.9615 90.0978 91.0295 89.1657 88.544C88.855 87.9227 88.8551 86.9906 88.5444 86.0586C89.7871 87.3013 91.3405 87.9227 92.8939 87.9227C94.4473 87.9227 96.0007 87.3013 97.2434 86.0586C98.4861 84.8159 99.1075 83.5732 99.1075 82.0198C98.1754 79.2236 96.622 77.6702 94.4473 76.1168Z" fill="url(#paint2_linear_1_4425)"/>
<path d="M138.564 155.65C138.254 155.339 137.632 155.029 137.322 154.718C133.904 151.922 131.419 148.194 131.419 148.194C131.419 148.194 128.933 151.922 125.516 154.718C125.205 155.029 124.584 155.339 124.273 155.65C122.098 157.514 120.234 158.757 120.234 161.553C120.234 163.106 120.856 164.66 122.098 165.592C123.341 166.835 124.895 167.456 126.448 167.456C128.001 167.456 129.555 166.835 130.797 165.592C130.487 166.524 130.487 167.456 130.176 168.077C129.244 170.563 127.691 171.495 128.001 171.495H135.458C135.458 171.495 134.215 170.563 133.283 168.077C132.972 167.456 132.972 166.524 132.662 165.592C133.904 166.835 135.458 167.456 137.011 167.456C138.564 167.456 140.118 166.835 141.361 165.592C142.603 164.349 143.225 163.106 143.225 161.553C142.603 158.757 140.739 157.514 138.564 155.65Z" fill="url(#paint3_linear_1_4425)"/>
<path d="M138.564 76.1168C138.254 75.8062 137.632 75.4955 137.322 75.1848C133.904 72.3887 131.419 68.6605 131.419 68.6605C131.419 68.6605 128.933 72.3887 125.516 75.1848C125.205 75.4955 124.584 75.8062 124.273 76.1168C122.098 77.9809 120.234 79.2236 120.234 82.0198C120.234 83.5732 120.856 85.1266 122.098 86.0586C123.341 87.3013 124.895 87.9227 126.448 87.9227C128.001 87.9227 129.555 87.3013 130.797 86.0586C130.487 86.9906 130.487 87.9227 130.176 88.544C129.244 91.0295 127.691 91.9615 128.001 91.9615H135.458C135.458 91.9615 134.215 91.0295 133.283 88.544C132.972 87.9227 132.972 86.9906 132.662 86.0586C133.904 87.3013 135.458 87.9227 137.011 87.9227C138.564 87.9227 140.118 87.3013 141.361 86.0586C142.603 84.8159 143.225 83.5732 143.225 82.0198C142.603 79.2236 140.739 77.6702 138.564 76.1168Z" fill="url(#paint4_linear_1_4425)"/>
<path d="M36.6596 7.14685H50.0188V45.3604H56.2324V57.4769H50.0188V73.3216H35.4169V57.4769H5.90234V45.3604L36.6596 7.14685ZM35.4169 23.9236L18.3295 45.6711H35.7276L35.4169 23.9236Z" fill="url(#paint5_linear_1_4425)"/>
<defs>
<linearGradient id="paint0_linear_1_4425" x1="32.7861" y1="93.2035" x2="32.7861" y2="146.64" gradientUnits="userSpaceOnUse">
<stop stop-color="#320807"/>
<stop offset="1"/>
</linearGradient>
<linearGradient id="paint1_linear_1_4425" x1="87.6123" y1="148.194" x2="87.6123" y2="171.495" gradientUnits="userSpaceOnUse">
<stop stop-color="#320807"/>
<stop offset="1"/>
</linearGradient>
<linearGradient id="paint2_linear_1_4425" x1="87.6123" y1="68.6605" x2="87.6123" y2="91.9615" gradientUnits="userSpaceOnUse">
<stop stop-color="#320807"/>
<stop offset="1"/>
</linearGradient>
<linearGradient id="paint3_linear_1_4425" x1="131.73" y1="148.194" x2="131.73" y2="171.495" gradientUnits="userSpaceOnUse">
<stop stop-color="#320807"/>
<stop offset="1"/>
</linearGradient>
<linearGradient id="paint4_linear_1_4425" x1="131.73" y1="68.6605" x2="131.73" y2="91.9615" gradientUnits="userSpaceOnUse">
<stop stop-color="#320807"/>
<stop offset="1"/>
</linearGradient>
<linearGradient id="paint5_linear_1_4425" x1="31.0674" y1="7.14685" x2="31.0674" y2="73.3216" gradientUnits="userSpaceOnUse">
<stop stop-color="#320807"/>
<stop offset="1"/>
</linearGradient>
</defs>
</svg>
