<svg width="160" height="241" viewBox="0 0 160 241" fill="none" xmlns="http://www.w3.org/2000/svg">
<path d="M160 234.874C160 237.67 157.515 240.156 154.718 240.156H5.28159C2.48547 240.156 0 237.67 0 234.874V5.5924C0 2.79628 2.48547 0.310852 5.28159 0.310852H154.718C157.515 0.310852 160 2.79628 160 5.5924V234.874Z" fill="white"/>
<path d="M55.9217 120.232C48.4654 127.067 38.213 141.048 33.2422 151.3C28.2713 141.048 18.0188 127.067 10.5625 120.232C18.0188 113.397 28.2713 99.4168 33.2422 89.1644C38.213 99.4168 48.1548 113.397 55.9217 120.232Z" fill="url(#paint0_linear_1_4343)"/>
<path d="M96.3088 173.359C93.202 176.155 89.1631 181.748 86.9884 186.097C84.8136 181.748 80.7748 176.155 77.668 173.359C80.7748 170.563 84.8136 164.971 86.9884 160.621C89.1631 164.66 93.202 170.252 96.3088 173.359Z" fill="url(#paint1_linear_1_4343)"/>
<path d="M96.3088 67.1073C93.202 69.9034 89.1631 75.4957 86.9884 79.8452C84.8136 75.4957 80.7748 69.9034 77.668 67.1073C80.7748 64.3112 84.8136 58.719 86.9884 54.3694C89.1631 58.719 93.202 64.3112 96.3088 67.1073Z" fill="url(#paint2_linear_1_4343)"/>
<path d="M96.3088 120.233C93.202 123.029 89.1631 128.622 86.9884 132.971C84.8136 128.622 80.7748 123.029 77.668 120.233C80.7748 117.437 84.8136 111.845 86.9884 107.495C89.1631 111.534 93.202 117.437 96.3088 120.233Z" fill="url(#paint3_linear_1_4343)"/>
<path d="M140.426 173.359C137.319 176.155 133.28 181.748 131.106 186.097C128.931 181.748 124.892 176.155 121.785 173.359C124.892 170.563 128.931 164.971 131.106 160.621C133.28 164.66 137.319 170.252 140.426 173.359Z" fill="url(#paint4_linear_1_4343)"/>
<path d="M140.426 67.1073C137.319 69.9034 133.28 75.4957 131.106 79.8452C128.931 75.4957 124.892 69.9034 121.785 67.1073C124.892 64.3112 128.931 58.719 131.106 54.3694C133.28 58.719 137.319 64.3112 140.426 67.1073Z" fill="url(#paint5_linear_1_4343)"/>
<path d="M140.426 120.233C137.319 123.029 133.28 128.622 131.106 132.971C128.931 128.622 124.892 123.029 121.785 120.233C124.892 117.437 128.931 111.845 131.106 107.495C133.28 111.534 137.319 117.437 140.426 120.233Z" fill="url(#paint6_linear_1_4343)"/>
<path d="M118.367 93.5155C115.261 96.3116 111.222 101.904 109.047 106.253C106.872 101.904 102.833 96.3116 99.7266 93.5155C102.833 90.7194 106.872 85.1272 109.047 80.7776C111.222 85.1272 115.261 90.7194 118.367 93.5155Z" fill="url(#paint7_linear_1_4343)"/>
<path d="M10.2507 6.52374H62.445L20.1925 74.8733L8.38672 67.4169L38.5226 18.6402H9.94012V6.52374H10.2507Z" fill="url(#paint8_linear_1_4343)"/>
<defs>
<linearGradient id="paint0_linear_1_4343" x1="33.2421" y1="89.1644" x2="33.2421" y2="151.3" gradientUnits="userSpaceOnUse">
<stop stop-color="#FD4D1E"/>
<stop offset="1" stop-color="#AE1B06"/>
</linearGradient>
<linearGradient id="paint1_linear_1_4343" x1="86.9884" y1="160.621" x2="86.9884" y2="186.097" gradientUnits="userSpaceOnUse">
<stop stop-color="#FD4D1E"/>
<stop offset="1" stop-color="#AE1B06"/>
</linearGradient>
<linearGradient id="paint2_linear_1_4343" x1="86.9884" y1="54.3694" x2="86.9884" y2="79.8452" gradientUnits="userSpaceOnUse">
<stop stop-color="#FD4D1E"/>
<stop offset="1" stop-color="#AE1B06"/>
</linearGradient>
<linearGradient id="paint3_linear_1_4343" x1="86.9884" y1="107.495" x2="86.9884" y2="132.971" gradientUnits="userSpaceOnUse">
<stop stop-color="#FD4D1E"/>
<stop offset="1" stop-color="#AE1B06"/>
</linearGradient>
<linearGradient id="paint4_linear_1_4343" x1="131.106" y1="160.621" x2="131.106" y2="186.097" gradientUnits="userSpaceOnUse">
<stop stop-color="#FD4D1E"/>
<stop offset="1" stop-color="#AE1B06"/>
</linearGradient>
<linearGradient id="paint5_linear_1_4343" x1="131.106" y1="54.3694" x2="131.106" y2="79.8452" gradientUnits="userSpaceOnUse">
<stop stop-color="#FD4D1E"/>
<stop offset="1" stop-color="#AE1B06"/>
</linearGradient>
<linearGradient id="paint6_linear_1_4343" x1="131.106" y1="107.495" x2="131.106" y2="132.971" gradientUnits="userSpaceOnUse">
<stop stop-color="#FD4D1E"/>
<stop offset="1" stop-color="#AE1B06"/>
</linearGradient>
<linearGradient id="paint7_linear_1_4343" x1="109.047" y1="80.7776" x2="109.047" y2="106.253" gradientUnits="userSpaceOnUse">
<stop stop-color="#FD4D1E"/>
<stop offset="1" stop-color="#AE1B06"/>
</linearGradient>
<linearGradient id="paint8_linear_1_4343" x1="35.4158" y1="6.52374" x2="35.4158" y2="74.8733" gradientUnits="userSpaceOnUse">
<stop stop-color="#FD4D1E"/>
<stop offset="1" stop-color="#AE1B06"/>
</linearGradient>
</defs>
</svg>
