<svg width="160" height="241" viewBox="0 0 160 241" fill="none" xmlns="http://www.w3.org/2000/svg">
<path d="M160 234.874C160 237.67 157.515 240.156 154.718 240.156H5.28154C2.48543 240.156 0 237.67 0 234.874V5.5924C0 2.79628 2.48543 0.310852 5.28154 0.310852H154.718C157.515 0.310852 160 2.79628 160 5.5924V234.874Z" fill="white"/>
<path d="M55.9217 120.232C48.4654 127.067 38.213 141.048 33.2421 151.3C28.2712 141.048 18.0188 127.067 10.5625 120.232C18.0188 113.397 28.2712 99.4168 33.2421 89.1644C38.213 99.4168 48.4654 113.397 55.9217 120.232Z" fill="url(#paint0_linear_1_4309)"/>
<path d="M105.32 173.359C102.214 176.156 98.1748 181.748 96.0001 186.097C93.8253 181.748 89.7865 176.156 86.6797 173.359C89.7865 170.563 93.8253 164.971 96.0001 160.622C98.1748 164.66 102.214 170.253 105.32 173.359Z" fill="url(#paint1_linear_1_4309)"/>
<path d="M105.32 67.107C102.214 69.9031 98.1748 75.4953 96.0001 79.8448C93.8253 75.4953 89.7865 69.9031 86.6797 67.107C89.7865 64.3108 93.8253 58.7186 96.0001 54.3691C98.1748 58.7186 102.214 64.3108 105.32 67.107Z" fill="url(#paint2_linear_1_4309)"/>
<path d="M105.32 120.233C102.214 123.029 98.1748 128.622 96.0001 132.971C93.8253 128.622 89.7865 123.029 86.6797 120.233C89.7865 117.437 93.8253 111.845 96.0001 107.495C98.1748 111.534 102.214 117.437 105.32 120.233Z" fill="url(#paint3_linear_1_4309)"/>
<path d="M22.3673 26.4074H9.00807C9.31875 20.5045 11.4935 15.5336 15.5324 11.8054C19.5712 8.07728 24.2314 6.2132 30.1343 6.2132C36.3479 6.2132 41.6294 8.07729 45.9789 11.4948C50.3285 14.9122 52.5032 19.2617 52.5032 24.2326C52.5032 29.5142 49.7071 34.485 44.4255 38.8346C47.843 41.0093 50.3285 43.1841 51.8819 45.6695C53.4353 48.155 54.3673 50.6404 54.3673 54.0579C54.3673 60.2715 52.1926 65.2423 48.1537 68.9705C44.1149 72.6986 38.5226 74.5627 31.6877 74.5627C25.4741 74.5627 20.1925 72.6986 16.1537 69.2812C12.1149 65.553 9.62944 60.8928 8.38672 54.3685H22.0566C23.61 60.5821 26.7168 63.6889 31.377 63.6889C33.5518 63.6889 35.7265 62.7569 37.2799 61.2035C38.8333 59.6501 39.7654 57.4753 39.7654 54.9899C39.7654 51.8831 38.8333 49.7084 36.9692 47.5336C35.1052 45.6695 32.6197 44.7375 29.5129 44.7375H27.0275V33.553H28.5809C31.6877 33.553 34.1731 32.9317 36.0372 31.3783C37.9013 29.8249 38.8333 27.6501 38.8333 25.1647C38.8333 22.9899 38.212 20.8152 36.6586 19.2618C35.1052 17.7084 33.2411 16.7763 31.0663 16.7763C26.0955 17.087 23.2993 20.1938 22.3673 26.4074Z" fill="url(#paint4_linear_1_4309)"/>
<defs>
<linearGradient id="paint0_linear_1_4309" x1="33.2421" y1="89.1644" x2="33.2421" y2="151.3" gradientUnits="userSpaceOnUse">
<stop stop-color="#FD4D1E"/>
<stop offset="1" stop-color="#AE1B06"/>
</linearGradient>
<linearGradient id="paint1_linear_1_4309" x1="96.0001" y1="160.622" x2="96.0001" y2="186.097" gradientUnits="userSpaceOnUse">
<stop stop-color="#FD4D1E"/>
<stop offset="1" stop-color="#AE1B06"/>
</linearGradient>
<linearGradient id="paint2_linear_1_4309" x1="96.0001" y1="54.3691" x2="96.0001" y2="79.8448" gradientUnits="userSpaceOnUse">
<stop stop-color="#FD4D1E"/>
<stop offset="1" stop-color="#AE1B06"/>
</linearGradient>
<linearGradient id="paint3_linear_1_4309" x1="96.0001" y1="107.495" x2="96.0001" y2="132.971" gradientUnits="userSpaceOnUse">
<stop stop-color="#FD4D1E"/>
<stop offset="1" stop-color="#AE1B06"/>
</linearGradient>
<linearGradient id="paint4_linear_1_4309" x1="31.377" y1="6.2132" x2="31.377" y2="74.5627" gradientUnits="userSpaceOnUse">
<stop stop-color="#FD4D1E"/>
<stop offset="1" stop-color="#AE1B06"/>
</linearGradient>
</defs>
</svg>
