<svg width="160" height="240" viewBox="0 0 160 240" fill="none" xmlns="http://www.w3.org/2000/svg">
<path d="M160 234.563C160 237.36 157.515 239.845 154.718 239.845H5.28154C2.48543 239.845 0 237.36 0 234.563V5.28192C0 2.48581 2.48543 0.000366211 5.28154 0.000366211H154.718C157.515 0.000366211 160 2.48581 160 5.28192V234.563Z" fill="white"/>
<path d="M49.7097 110.602C48.7777 109.67 47.8457 109.048 46.6029 108.116C38.8359 101.903 32.933 93.2035 32.933 93.2035C32.933 93.2035 27.0301 101.592 19.2631 108.116C18.3311 109.048 17.0884 109.67 16.1563 110.602C10.8748 114.64 6.83594 117.747 6.83594 123.961C6.83594 127.689 8.38934 131.106 10.8748 133.592C13.3602 136.077 17.0884 137.631 20.8165 137.631C24.8554 137.631 28.2728 136.077 30.7583 133.281C30.4476 135.145 29.8262 137.631 29.5156 138.873C27.3408 144.466 23.9233 146.64 24.234 146.64H41.3214C41.632 146.64 38.2146 144.155 36.0398 138.873C35.4185 137.32 35.1078 135.145 34.7971 133.281C37.2825 136.077 41.0107 137.631 44.7388 137.631C48.467 137.631 51.8845 136.077 54.6806 133.592C57.166 131.106 58.7194 127.689 58.7194 123.961C59.0301 117.747 54.9913 114.64 49.7097 110.602Z" fill="url(#paint0_linear_1_4418)"/>
<path d="M103.147 169.009C102.836 168.699 102.214 168.388 101.904 168.077C98.4863 165.281 96.0009 161.553 96.0009 161.553C96.0009 161.553 93.5155 165.281 90.098 168.077C89.7873 168.388 89.1659 168.699 88.8553 169.009C86.6805 170.873 84.8164 172.116 84.8164 174.912C84.8164 176.466 85.4378 178.019 86.6805 178.951C87.9232 180.194 89.4766 180.815 91.03 180.815C92.5834 180.815 94.1368 180.194 95.3795 178.951C95.0688 179.883 95.0689 180.815 94.7582 181.437C93.8261 183.922 92.2727 184.854 92.5834 184.854H100.04C100.04 184.854 98.797 183.922 97.865 181.437C97.5543 180.815 97.5543 179.883 97.2436 178.951C98.4863 180.194 100.04 180.815 101.593 180.815C103.147 180.815 104.7 180.194 105.943 178.951C107.185 177.708 107.807 176.466 107.807 174.912C107.185 172.116 105.321 170.563 103.147 169.009Z" fill="url(#paint1_linear_1_4418)"/>
<path d="M103.147 62.7575C102.836 62.4468 102.214 62.1361 101.904 61.8254C98.4863 59.0293 96.0009 55.3011 96.0009 55.3011C96.0009 55.3011 93.5155 59.0293 90.098 61.8254C89.7873 62.1361 89.1659 62.4468 88.8553 62.7575C86.6805 64.6215 84.8164 65.8643 84.8164 68.6604C84.8164 70.2138 85.4378 71.7672 86.6805 72.6992C87.9232 73.9419 89.4766 74.5633 91.03 74.5633C92.5834 74.5633 94.1368 73.9419 95.3795 72.6992C95.0688 73.6313 95.0689 74.5633 94.7582 75.1847C93.8261 77.6701 92.2727 78.6021 92.5834 78.6021H100.04C100.04 78.6021 98.797 77.6701 97.865 75.1847C97.5543 74.5633 97.5543 73.6313 97.2436 72.6992C98.4863 73.9419 100.04 74.5633 101.593 74.5633C103.147 74.5633 104.7 73.9419 105.943 72.6992C107.185 71.4565 107.807 70.2138 107.807 68.6604C107.185 65.8643 105.321 64.6215 103.147 62.7575Z" fill="url(#paint2_linear_1_4418)"/>
<path d="M103.147 115.884C102.836 115.574 102.214 115.263 101.904 114.952C98.4863 112.156 96.0009 108.428 96.0009 108.428C96.0009 108.428 93.5155 112.156 90.098 114.952C89.7873 115.263 89.1659 115.574 88.8553 115.884C86.6805 117.748 84.8164 118.991 84.8164 121.787C84.8164 123.341 85.4378 124.894 86.6805 125.826C87.9232 127.069 89.4766 127.69 91.03 127.69C92.5834 127.69 94.1368 127.069 95.3795 125.826C95.0688 126.758 95.0689 127.69 94.7582 128.312C93.8261 130.797 92.2727 131.729 92.5834 131.729H100.04C100.04 131.729 98.797 130.797 97.865 128.312C97.5543 127.69 97.5543 126.758 97.2436 125.826C98.4863 127.069 100.04 127.69 101.593 127.69C103.147 127.69 104.7 127.069 105.943 125.826C107.185 124.583 107.807 123.341 107.807 121.787C107.185 118.991 105.321 117.748 103.147 115.884Z" fill="url(#paint3_linear_1_4418)"/>
<path d="M22.3673 26.4074H9.00807C9.31875 20.5045 11.4935 15.5336 15.5324 11.8055C19.5712 8.07733 24.2314 6.21326 30.1343 6.21326C36.3479 6.21326 41.6294 8.07734 45.9789 11.4948C50.3285 14.9123 52.5032 19.2618 52.5032 24.2327C52.5032 29.5142 49.7071 34.4851 44.4255 38.8346C47.843 41.0094 50.3285 43.1841 51.8819 45.6696C53.4353 48.155 54.3673 50.6404 54.3673 54.0579C54.3673 60.2715 52.1926 65.2424 48.1537 68.9705C44.1149 72.6987 38.5226 74.5628 31.6877 74.5628C25.4741 74.5628 20.1925 72.6987 16.1537 69.2812C12.1149 65.5531 9.62944 60.8929 8.38672 54.3686H22.0566C23.61 60.5822 26.7168 63.689 31.377 63.689C33.5518 63.689 35.7265 62.7569 37.2799 61.2035C38.8333 59.6502 39.7654 57.4754 39.7654 54.99C39.7654 51.8832 38.8333 49.7084 36.9692 47.5336C35.1052 45.6696 32.6197 44.7375 29.5129 44.7375H27.0275V33.5531H28.5809C31.6877 33.5531 34.1731 32.9317 36.0372 31.3783C37.9013 29.8249 38.8333 27.6501 38.8333 25.1647C38.8333 22.99 38.212 20.8152 36.6586 19.2618C35.1052 17.7084 33.2411 16.7764 31.0663 16.7764C26.0955 16.7764 23.2993 19.8832 22.3673 26.4074Z" fill="url(#paint4_linear_1_4418)"/>
<defs>
<linearGradient id="paint0_linear_1_4418" x1="32.7861" y1="93.2035" x2="32.7861" y2="146.64" gradientUnits="userSpaceOnUse">
<stop stop-color="#320807"/>
<stop offset="1"/>
</linearGradient>
<linearGradient id="paint1_linear_1_4418" x1="96.3116" y1="161.553" x2="96.3116" y2="184.854" gradientUnits="userSpaceOnUse">
<stop stop-color="#320807"/>
<stop offset="1"/>
</linearGradient>
<linearGradient id="paint2_linear_1_4418" x1="96.3116" y1="55.3011" x2="96.3116" y2="78.6021" gradientUnits="userSpaceOnUse">
<stop stop-color="#320807"/>
<stop offset="1"/>
</linearGradient>
<linearGradient id="paint3_linear_1_4418" x1="96.3116" y1="108.428" x2="96.3116" y2="131.729" gradientUnits="userSpaceOnUse">
<stop stop-color="#320807"/>
<stop offset="1"/>
</linearGradient>
<linearGradient id="paint4_linear_1_4418" x1="31.377" y1="6.21326" x2="31.377" y2="74.5628" gradientUnits="userSpaceOnUse">
<stop stop-color="#320807"/>
<stop offset="1"/>
</linearGradient>
</defs>
</svg>
