<svg width="160" height="241" viewBox="0 0 160 241" fill="none" xmlns="http://www.w3.org/2000/svg">
<path d="M160 235.497C160 238.293 157.515 240.779 154.718 240.779H5.28159C2.48547 240.779 0 238.293 0 235.497V6.21567C0 3.41956 2.48547 0.934082 5.28159 0.934082H154.718C157.515 0.934082 160 3.41956 160 6.21567V235.497Z" fill="white"/>
<path d="M46.9127 97.8662C36.9709 96.9342 33.8641 103.148 33.2428 105.323C32.3107 103.148 29.204 96.9342 19.5729 97.8662C10.2525 99.4196 7.45636 107.808 8.3884 115.575C10.2525 128.002 29.2039 136.08 33.2428 143.536L33.5535 143.847L33.8642 143.536C37.903 135.769 56.5438 127.691 58.7185 115.575C59.3399 107.808 56.233 99.7303 46.9127 97.8662Z" fill="url(#paint0_linear_1_4150)"/>
<path d="M93.8248 71.7691C89.1646 71.1478 87.6113 74.2546 87.3006 75.1866C86.99 74.2546 85.4365 71.1478 80.7763 71.7691C76.4267 72.7012 74.8733 76.4293 75.4947 80.1574C76.4267 86.0603 85.4366 89.7885 87.3006 93.5167C89.1647 89.7885 98.1744 86.0603 99.1064 80.1574C99.4171 76.7399 98.1744 72.7012 93.8248 71.7691Z" fill="url(#paint1_linear_1_4150)"/>
<path d="M93.8248 151.614C89.1646 150.992 87.6113 154.099 87.3006 155.031C86.99 154.099 85.4365 150.992 80.7763 151.614C76.4267 152.546 74.8733 156.274 75.4947 160.002C76.4267 165.905 85.4366 169.633 87.3006 173.361C89.1647 169.633 98.1744 165.905 99.1064 160.002C99.4171 156.274 98.1744 152.235 93.8248 151.614Z" fill="url(#paint2_linear_1_4150)"/>
<path d="M137.942 71.7691C133.282 71.1478 131.728 74.2546 131.418 75.1866C131.107 74.2546 129.554 71.1478 124.893 71.7691C120.544 72.7012 118.99 76.4293 119.612 80.1574C120.544 86.0603 129.554 89.7885 131.418 93.5167C133.282 89.7885 142.292 86.0603 143.224 80.1574C143.845 76.7399 142.292 72.7012 137.942 71.7691Z" fill="url(#paint3_linear_1_4150)"/>
<path d="M137.942 151.614C133.282 150.992 131.728 154.099 131.418 155.031C131.107 154.099 129.554 150.992 124.893 151.614C120.544 152.546 118.99 156.274 119.612 160.002C120.544 165.905 129.554 169.633 131.418 173.361C133.282 169.633 142.292 165.905 143.224 160.002C143.845 156.274 142.292 152.235 137.942 151.614Z" fill="url(#paint4_linear_1_4150)"/>
<path d="M115.883 169.322C111.223 168.701 109.67 171.808 109.359 172.74C109.048 171.808 107.495 168.701 102.835 169.322C98.4853 170.255 96.9319 173.983 97.5533 177.711C98.4853 183.614 107.495 187.342 109.359 191.07C111.223 187.342 120.233 183.614 121.165 177.711C121.786 173.983 120.233 169.944 115.883 169.322Z" fill="url(#paint5_linear_1_4150)"/>
<path d="M93.8248 111.847C89.1646 111.225 87.6113 114.332 87.3006 115.264C86.99 114.332 85.4365 111.225 80.7763 111.847C76.4267 112.779 74.8733 116.507 75.4947 120.235C76.4267 126.138 85.4366 129.866 87.3006 133.594C89.1647 129.866 98.1744 126.138 99.1064 120.235C99.4171 116.507 98.1744 112.468 93.8248 111.847Z" fill="url(#paint6_linear_1_4150)"/>
<path d="M93.8248 191.381C89.1646 190.759 87.6113 193.866 87.3006 194.798C86.99 193.866 85.4365 190.759 80.7763 191.381C76.4267 192.313 74.8733 196.041 75.4947 199.769C76.4267 205.672 85.4366 209.4 87.3006 213.128C89.1647 209.4 98.1744 205.672 99.1064 199.769C99.4171 196.041 98.1744 192.002 93.8248 191.381Z" fill="url(#paint7_linear_1_4150)"/>
<path d="M137.942 111.847C133.282 111.225 131.728 114.332 131.418 115.264C131.107 114.332 129.554 111.225 124.893 111.847C120.544 112.779 118.99 116.507 119.612 120.235C120.544 126.138 129.554 129.866 131.418 133.594C133.282 129.866 142.292 126.138 143.224 120.235C143.845 116.507 142.292 112.468 137.942 111.847Z" fill="url(#paint8_linear_1_4150)"/>
<path d="M115.883 94.138C111.223 93.5167 109.67 96.6235 109.359 97.5555C109.048 96.6235 107.495 93.5167 102.835 94.138C98.4853 95.0701 96.9319 98.7983 97.5533 102.526C98.4853 108.429 107.495 112.157 109.359 115.886C111.223 112.157 120.233 108.429 121.165 102.526C121.786 98.7983 120.233 94.7594 115.883 94.138Z" fill="url(#paint9_linear_1_4150)"/>
<path d="M137.942 191.381C133.282 190.759 131.728 193.866 131.418 194.798C131.107 193.866 129.554 190.759 124.893 191.381C120.544 192.313 118.99 196.041 119.612 199.769C120.544 205.672 129.554 209.4 131.418 213.128C133.282 209.4 142.292 205.672 143.224 199.769C143.845 196.041 142.292 192.002 137.942 191.381Z" fill="url(#paint10_linear_1_4150)"/>
<path d="M6.52266 8.39111H27.9595V74.5658H13.3576V20.5076H3.72656L6.52266 8.39111Z" fill="url(#paint11_linear_1_4150)"/>
<path d="M59.6478 7.4585C67.4148 7.4585 73.6284 10.5653 78.2886 16.4682C82.9488 22.3711 85.4342 30.4488 85.4342 40.7013C85.4342 52.5071 82.9488 61.2061 77.6672 66.7983C72.3857 72.3905 66.4828 75.1867 59.6478 75.1867C51.8809 75.1867 45.6672 72.0798 40.6964 66.1769C35.7255 59.9633 33.5508 52.1964 33.5508 42.2547C33.5508 31.6915 36.0362 23.3032 40.6964 17.0896C45.3566 10.876 51.5703 7.4585 59.3372 7.4585H59.6478ZM71.4536 41.6333C71.4536 34.7983 70.5216 29.5167 68.3468 25.7886C66.1721 22.0604 63.376 19.8857 59.6478 19.8857C55.9197 19.8857 52.8129 21.7497 50.6382 25.7886C48.4634 29.5167 47.2207 35.109 47.2207 41.944C47.2207 48.1575 48.4634 53.1284 50.6382 56.8565C52.8129 60.5847 55.6091 62.4488 59.3372 62.4488C63.0654 62.4488 65.8615 60.5847 68.0362 56.8565C70.5217 53.1284 71.4536 48.1575 71.4536 41.6333Z" fill="url(#paint12_linear_1_4150)"/>
<defs>
<linearGradient id="paint0_linear_1_4150" x1="33.5068" y1="97.7717" x2="33.5068" y2="143.847" gradientUnits="userSpaceOnUse">
<stop stop-color="#FD4D1E"/>
<stop offset="1" stop-color="#AE1B06"/>
</linearGradient>
<linearGradient id="paint1_linear_1_4150" x1="87.2574" y1="71.6877" x2="87.2574" y2="93.5167" gradientUnits="userSpaceOnUse">
<stop stop-color="#FD4D1E"/>
<stop offset="1" stop-color="#AE1B06"/>
</linearGradient>
<linearGradient id="paint2_linear_1_4150" x1="87.2574" y1="151.532" x2="87.2574" y2="173.361" gradientUnits="userSpaceOnUse">
<stop stop-color="#FD4D1E"/>
<stop offset="1" stop-color="#AE1B06"/>
</linearGradient>
<linearGradient id="paint3_linear_1_4150" x1="131.418" y1="71.6877" x2="131.418" y2="93.5167" gradientUnits="userSpaceOnUse">
<stop stop-color="#FD4D1E"/>
<stop offset="1" stop-color="#AE1B06"/>
</linearGradient>
<linearGradient id="paint4_linear_1_4150" x1="131.418" y1="151.532" x2="131.418" y2="173.361" gradientUnits="userSpaceOnUse">
<stop stop-color="#FD4D1E"/>
<stop offset="1" stop-color="#AE1B06"/>
</linearGradient>
<linearGradient id="paint5_linear_1_4150" x1="109.359" y1="169.241" x2="109.359" y2="191.07" gradientUnits="userSpaceOnUse">
<stop stop-color="#FD4D1E"/>
<stop offset="1" stop-color="#AE1B06"/>
</linearGradient>
<linearGradient id="paint6_linear_1_4150" x1="87.2574" y1="111.765" x2="87.2574" y2="133.594" gradientUnits="userSpaceOnUse">
<stop stop-color="#FD4D1E"/>
<stop offset="1" stop-color="#AE1B06"/>
</linearGradient>
<linearGradient id="paint7_linear_1_4150" x1="87.2574" y1="191.299" x2="87.2574" y2="213.128" gradientUnits="userSpaceOnUse">
<stop stop-color="#FD4D1E"/>
<stop offset="1" stop-color="#AE1B06"/>
</linearGradient>
<linearGradient id="paint8_linear_1_4150" x1="131.418" y1="111.765" x2="131.418" y2="133.594" gradientUnits="userSpaceOnUse">
<stop stop-color="#FD4D1E"/>
<stop offset="1" stop-color="#AE1B06"/>
</linearGradient>
<linearGradient id="paint9_linear_1_4150" x1="109.359" y1="94.0565" x2="109.359" y2="115.886" gradientUnits="userSpaceOnUse">
<stop stop-color="#FD4D1E"/>
<stop offset="1" stop-color="#AE1B06"/>
</linearGradient>
<linearGradient id="paint10_linear_1_4150" x1="131.418" y1="191.299" x2="131.418" y2="213.128" gradientUnits="userSpaceOnUse">
<stop stop-color="#FD4D1E"/>
<stop offset="1" stop-color="#AE1B06"/>
</linearGradient>
<linearGradient id="paint11_linear_1_4150" x1="15.843" y1="8.39111" x2="15.843" y2="74.5658" gradientUnits="userSpaceOnUse">
<stop stop-color="#FD4D1E"/>
<stop offset="1" stop-color="#AE1B06"/>
</linearGradient>
<linearGradient id="paint12_linear_1_4150" x1="59.4925" y1="7.4585" x2="59.4925" y2="75.1867" gradientUnits="userSpaceOnUse">
<stop stop-color="#FD4D1E"/>
<stop offset="1" stop-color="#AE1B06"/>
</linearGradient>
</defs>
</svg>
