<svg width="160" height="241" viewBox="0 0 160 241" fill="none" xmlns="http://www.w3.org/2000/svg">
<path d="M160 234.874C160 237.67 157.515 240.156 154.718 240.156H5.28159C2.48547 240.156 0 237.67 0 234.874V5.5924C0 2.79628 2.48547 0.310852 5.28159 0.310852H154.718C157.515 0.310852 160 2.79628 160 5.5924V234.874Z" fill="white"/>
<path d="M55.9217 120.232C48.4654 127.067 38.213 141.048 33.2422 151.3C28.2713 141.048 18.0188 127.067 10.5625 120.232C18.0188 113.397 28.2713 99.4168 33.2422 89.1644C38.213 99.4168 48.4654 113.397 55.9217 120.232Z" fill="url(#paint0_linear_1_4382)"/>
<path d="M96.6213 160C93.5145 162.796 89.4756 168.389 87.3009 172.738C85.1261 168.389 81.0873 162.796 77.9805 160C81.0873 157.204 85.1261 151.612 87.3009 147.262C89.1649 151.301 93.5145 157.204 96.6213 160Z" fill="url(#paint1_linear_1_4382)"/>
<path d="M96.6213 80.4667C93.5145 83.2628 89.4756 88.855 87.3009 93.2045C85.1261 88.855 81.0873 83.2628 77.9805 80.4667C81.0873 77.6706 85.1261 72.0783 87.3009 67.7288C89.1649 71.7677 93.5145 77.3599 96.6213 80.4667Z" fill="url(#paint2_linear_1_4382)"/>
<path d="M140.738 160C137.632 162.796 133.593 168.388 131.418 172.738C129.243 168.388 125.204 162.796 122.098 160C125.204 157.204 129.243 151.612 131.418 147.262C133.593 151.301 137.632 157.204 140.738 160Z" fill="url(#paint3_linear_1_4382)"/>
<path d="M140.738 80.4667C137.632 83.2628 133.593 88.855 131.418 93.2045C129.243 88.855 125.204 83.2628 122.098 80.4667C125.204 77.6706 129.243 72.0783 131.418 67.7288C133.593 71.7677 137.632 77.3599 140.738 80.4667Z" fill="url(#paint4_linear_1_4382)"/>
<path d="M96.6213 199.767C93.5145 202.563 89.4756 208.156 87.3009 212.505C85.1261 208.156 81.0873 202.563 77.9805 199.767C81.0873 196.971 85.1261 191.379 87.3009 187.029C89.1649 191.379 93.5145 196.971 96.6213 199.767Z" fill="url(#paint5_linear_1_4382)"/>
<path d="M96.6213 120.233C93.5145 123.029 89.4756 128.622 87.3009 132.971C85.1261 128.622 81.0873 123.029 77.9805 120.233C81.0873 117.437 85.1261 111.845 87.3009 107.495C89.1649 111.534 93.5145 117.437 96.6213 120.233Z" fill="url(#paint6_linear_1_4382)"/>
<path d="M140.738 199.767C137.632 202.564 133.593 208.156 131.418 212.505C129.243 208.156 125.204 202.564 122.098 199.767C125.204 196.971 129.243 191.379 131.418 187.03C133.593 191.379 137.632 196.971 140.738 199.767Z" fill="url(#paint7_linear_1_4382)"/>
<path d="M140.738 120.233C137.632 123.029 133.593 128.622 131.418 132.971C129.243 128.622 125.204 123.029 122.098 120.233C125.204 117.437 129.243 111.845 131.418 107.495C133.593 111.534 137.632 117.437 140.738 120.233Z" fill="url(#paint8_linear_1_4382)"/>
<path d="M118.68 102.525C115.573 105.321 111.534 110.914 109.359 115.263C107.185 110.914 103.146 105.321 100.039 102.525C103.146 99.7291 107.185 94.1369 109.359 89.7874C111.534 93.8262 115.573 99.7291 118.68 102.525Z" fill="url(#paint9_linear_1_4382)"/>
<path d="M34.7971 74.2516H17.0883L33.5543 51.8827C30.4475 52.1934 28.5835 52.5041 27.6514 52.5041C21.7485 52.5041 16.7777 50.3293 12.7388 45.9798C8.7 41.6303 6.83594 36.3487 6.83594 30.1351C6.83594 23.6109 9.32136 18.0186 14.2922 13.6691C19.2631 9.31959 25.4767 7.14484 32.6223 7.14484C39.4573 7.14484 45.3602 9.31958 49.7097 13.9798C54.0592 18.3293 56.234 24.2322 56.234 31.3779C56.234 36.6594 54.9912 41.6303 52.5058 46.9118C50.0203 52.1934 47.8456 55.9215 45.9815 58.407L34.7971 74.2516ZM42.2534 30.7565C42.2534 27.9604 41.3214 25.4749 39.1466 23.3002C36.9718 21.1254 34.4864 20.1934 31.6903 20.1934C28.8942 20.1934 26.7194 21.1254 24.8553 23.3002C22.9912 25.4749 22.0592 27.9604 22.0592 30.7565C22.0592 33.5526 22.9912 36.038 24.8553 37.9021C26.7194 39.7662 29.2048 41.0089 32.0009 41.0089C34.797 41.0089 37.2825 40.0769 39.4573 37.9021C41.3214 36.038 42.2534 33.5526 42.2534 30.7565Z" fill="url(#paint10_linear_1_4382)"/>
<defs>
<linearGradient id="paint0_linear_1_4382" x1="33.2421" y1="89.1644" x2="33.2421" y2="151.3" gradientUnits="userSpaceOnUse">
<stop stop-color="#FD4D1E"/>
<stop offset="1" stop-color="#AE1B06"/>
</linearGradient>
<linearGradient id="paint1_linear_1_4382" x1="87.3009" y1="147.262" x2="87.3009" y2="172.738" gradientUnits="userSpaceOnUse">
<stop stop-color="#FD4D1E"/>
<stop offset="1" stop-color="#AE1B06"/>
</linearGradient>
<linearGradient id="paint2_linear_1_4382" x1="87.3009" y1="67.7288" x2="87.3009" y2="93.2045" gradientUnits="userSpaceOnUse">
<stop stop-color="#FD4D1E"/>
<stop offset="1" stop-color="#AE1B06"/>
</linearGradient>
<linearGradient id="paint3_linear_1_4382" x1="131.418" y1="147.262" x2="131.418" y2="172.738" gradientUnits="userSpaceOnUse">
<stop stop-color="#FD4D1E"/>
<stop offset="1" stop-color="#AE1B06"/>
</linearGradient>
<linearGradient id="paint4_linear_1_4382" x1="131.418" y1="67.7288" x2="131.418" y2="93.2045" gradientUnits="userSpaceOnUse">
<stop stop-color="#FD4D1E"/>
<stop offset="1" stop-color="#AE1B06"/>
</linearGradient>
<linearGradient id="paint5_linear_1_4382" x1="87.3009" y1="187.029" x2="87.3009" y2="212.505" gradientUnits="userSpaceOnUse">
<stop stop-color="#FD4D1E"/>
<stop offset="1" stop-color="#AE1B06"/>
</linearGradient>
<linearGradient id="paint6_linear_1_4382" x1="87.3009" y1="107.495" x2="87.3009" y2="132.971" gradientUnits="userSpaceOnUse">
<stop stop-color="#FD4D1E"/>
<stop offset="1" stop-color="#AE1B06"/>
</linearGradient>
<linearGradient id="paint7_linear_1_4382" x1="131.418" y1="187.03" x2="131.418" y2="212.505" gradientUnits="userSpaceOnUse">
<stop stop-color="#FD4D1E"/>
<stop offset="1" stop-color="#AE1B06"/>
</linearGradient>
<linearGradient id="paint8_linear_1_4382" x1="131.418" y1="107.495" x2="131.418" y2="132.971" gradientUnits="userSpaceOnUse">
<stop stop-color="#FD4D1E"/>
<stop offset="1" stop-color="#AE1B06"/>
</linearGradient>
<linearGradient id="paint9_linear_1_4382" x1="109.359" y1="89.7874" x2="109.359" y2="115.263" gradientUnits="userSpaceOnUse">
<stop stop-color="#FD4D1E"/>
<stop offset="1" stop-color="#AE1B06"/>
</linearGradient>
<linearGradient id="paint10_linear_1_4382" x1="31.535" y1="7.14484" x2="31.535" y2="74.2516" gradientUnits="userSpaceOnUse">
<stop stop-color="#FD4D1E"/>
<stop offset="1" stop-color="#AE1B06"/>
</linearGradient>
</defs>
</svg>
