<svg width="110" height="110" viewBox="0 0 110 110" fill="none" xmlns="http://www.w3.org/2000/svg">
<g filter="url(#filter0_d_1_3179)">
<path d="M55.2907 94.304C79.2711 94.304 98.7112 74.874 98.7112 50.906C98.7112 26.938 79.2711 7.50806 55.2907 7.50806C31.3102 7.50806 11.8701 26.938 11.8701 50.906C11.8701 74.874 31.3102 94.304 55.2907 94.304Z" fill="url(#paint0_radial_1_3179)"/>
<path d="M55.2907 97.9223C81.2677 97.9223 102.33 76.8742 102.33 50.906C102.33 24.9378 81.2677 3.88968 55.2907 3.88968C29.3136 3.88968 8.25174 24.9378 8.25174 50.906C8.25174 76.8742 29.3136 97.9223 55.2907 97.9223Z" fill="url(#paint1_radial_1_3179)" stroke="url(#paint2_radial_1_3179)" stroke-width="7.23678"/>
<path d="M84.1046 48.5782C85.4615 64.5134 73.2494 78.4144 57.3059 79.7706C41.3623 81.1268 27.4541 68.9211 26.0972 52.9858C24.7403 37.0505 36.9524 23.1495 52.8959 21.7933C68.8395 20.7762 83.087 32.6429 84.1046 48.5782Z" stroke="white" stroke-width="1.80919" stroke-miterlimit="10" stroke-dasharray="10.81 10.81"/>
<path d="M51.8748 7.55219C45.7688 7.89123 40.0019 9.58647 34.9136 12.2989L40.0019 20.7751C43.7334 18.7408 48.1433 17.3846 52.8925 17.0455C52.8925 17.0455 52.8925 17.0455 53.2317 17.0455V7.55219C52.5532 7.55219 52.214 7.55219 51.8748 7.55219Z" fill="white"/>
<path d="M13.2031 40.1023L23.0406 41.7976C24.3975 37.0509 26.4329 32.9823 29.4859 29.2528L21.3445 23.489C17.6131 28.5747 14.8992 33.9995 13.2031 40.1023Z" fill="white"/>
<path d="M28.1274 70.2767C25.0744 66.2081 23.039 61.4614 22.3606 56.3757L12.8623 58.749C14.2192 65.53 16.933 71.2938 20.6645 76.7186L28.1274 70.2767Z" fill="white"/>
<path d="M35.9312 89.6026C42.0372 92.654 48.4825 94.3492 55.6062 94.3492V84.5168C50.1786 84.5168 44.751 83.1606 40.0019 80.7873L35.9312 89.6026Z" fill="white"/>
<path d="M88.1725 78.7539L81.0488 71.9729C77.9958 75.7024 73.9251 78.7539 69.5151 81.1272L73.2466 90.2815C79.3527 87.5691 84.441 83.5006 88.1725 78.7539Z" fill="white"/>
<path d="M98.3497 47.5606C98.0105 44.5091 97.6712 41.7967 96.9928 39.0844L87.1553 40.7796C87.8337 43.1529 88.5122 45.5263 88.5122 47.8996C88.8514 50.612 88.5122 53.3244 88.173 56.0368L97.6713 58.4101C98.3497 55.0196 98.6889 51.2901 98.3497 47.5606Z" fill="white"/>
<path d="M73.2462 11.6227L68.4971 20.099C72.907 22.1332 76.9777 24.8456 80.0307 28.5752L88.1721 22.8113C84.1014 18.0647 79.013 13.9961 73.2462 11.6227Z" fill="white"/>
<path d="M58.8447 42.2716V37.798H49.092L48.3924 47.2751C50.2723 45.7062 52.456 44.9217 54.9437 44.9217C56.9366 44.9217 58.6681 45.4023 60.138 46.3634C61.6221 47.3104 62.7529 48.5825 63.5303 50.1797C64.3218 51.7628 64.7175 53.5154 64.7175 55.4377C64.7175 57.572 64.2723 59.4589 63.3818 61.0985C62.5055 62.7381 61.2334 64.0101 59.5656 64.9147C57.8977 65.8052 55.9543 66.2504 53.7352 66.2504C50.4843 66.2504 47.926 65.3317 46.0602 63.4942C44.1945 61.6426 43.1627 58.9854 42.9648 55.5225H47.0779C47.3465 57.7133 48.0602 59.4306 49.2193 60.6744C50.3783 61.9183 51.8977 62.5402 53.7776 62.5402C55.6574 62.5402 57.191 61.8971 58.3783 60.6108C59.5656 59.3246 60.1592 57.6285 60.1592 55.5225C60.1592 53.3458 59.6009 51.6709 58.4843 50.4977C57.3677 49.3246 55.9401 48.738 54.2016 48.738C51.6574 48.738 49.5302 50.0313 47.82 52.6179C46.873 51.685 45.7634 50.8864 44.4913 50.2221L45.7846 33.8122H62.8094V42.2716H58.8447Z" fill="white"/>
</g>
<defs>
<filter id="filter0_d_1_3179" x="0.630859" y="0.271301" width="109.317" height="109.315" filterUnits="userSpaceOnUse" color-interpolation-filters="sRGB">
<feFlood flood-opacity="0" result="BackgroundImageFix"/>
<feColorMatrix in="SourceAlpha" type="matrix" values="0 0 0 0 0 0 0 0 0 0 0 0 0 0 0 0 0 0 127 0" result="hardAlpha"/>
<feOffset dy="4"/>
<feGaussianBlur stdDeviation="2"/>
<feComposite in2="hardAlpha" operator="out"/>
<feColorMatrix type="matrix" values="0 0 0 0 0 0 0 0 0 0 0 0 0 0 0 0 0 0 0.25 0"/>
<feBlend mode="normal" in2="BackgroundImageFix" result="effect1_dropShadow_1_3179"/>
<feBlend mode="normal" in="SourceGraphic" in2="effect1_dropShadow_1_3179" result="shape"/>
</filter>
<radialGradient id="paint0_radial_1_3179" cx="0" cy="0" r="1" gradientUnits="userSpaceOnUse" gradientTransform="translate(55.28 50.8953) scale(43.4234 43.4008)">
<stop offset="0.723958"/>
<stop offset="0.859375" stop-color="#8F45D9"/>
<stop offset="1" stop-color="#320A45"/>
</radialGradient>
<radialGradient id="paint1_radial_1_3179" cx="0" cy="0" r="1" gradientUnits="userSpaceOnUse" gradientTransform="translate(55.28 50.8953) scale(43.4234 43.4008)">
<stop offset="0.723958"/>
<stop offset="0.859375" stop-color="#8F45D9"/>
<stop offset="1" stop-color="#320A45"/>
</radialGradient>
<radialGradient id="paint2_radial_1_3179" cx="0" cy="0" r="1" gradientUnits="userSpaceOnUse" gradientTransform="translate(55.2906 50.9245) rotate(119.2) scale(49.7368 49.7181)">
<stop offset="0.625" stop-color="#8F45D9"/>
<stop offset="1"/>
</radialGradient>
</defs>
</svg>
