<svg width="160" height="241" viewBox="0 0 160 241" fill="none" xmlns="http://www.w3.org/2000/svg">
<path d="M160 235.02C160 237.821 157.51 240.312 154.708 240.312H5.29186C2.49031 240.312 0 237.821 0 235.02V5.29219C0 2.49064 2.49031 0.000366211 5.29186 0.000366211H154.708C157.51 0.000366211 160 2.49064 160 5.29219V235.02Z" fill="white"/>
<path d="M49.8048 110.817C48.8709 109.883 47.9371 109.261 46.692 108.327C38.9099 102.101 32.9955 93.3851 32.9955 93.3851C32.9955 93.3851 27.0811 101.79 19.299 108.327C18.3652 109.261 17.12 109.883 16.1862 110.817C10.8943 114.864 6.84766 117.977 6.84766 124.202C6.84766 127.938 8.09275 131.362 10.8943 133.852C13.3846 136.342 17.12 137.899 20.8554 137.899C24.9021 137.899 28.3263 136.342 30.8166 133.541C30.5053 135.408 29.8826 137.899 29.5713 139.144C27.3924 144.747 23.9683 146.926 24.2796 146.926H41.4002C41.7115 146.926 38.2873 144.436 36.1083 139.144C35.4858 137.587 35.1745 135.408 34.8632 133.541C37.3535 136.342 41.0889 137.899 44.8243 137.899C48.5597 137.899 51.9838 136.342 54.7854 133.852C57.2756 131.362 58.8321 127.938 58.8321 124.202C59.1434 117.977 54.7853 114.864 49.8048 110.817Z" fill="url(#paint0_linear_1_4463)"/>
<path d="M94.3189 169.339C94.0076 169.027 93.385 168.716 93.0737 168.405C89.6496 165.603 87.1593 161.868 87.1593 161.868C87.1593 161.868 84.669 165.603 81.2449 168.405C80.9336 168.716 80.3111 169.027 79.9998 169.339C77.8208 171.206 75.9531 172.452 75.9531 175.253C75.9531 176.81 76.5756 178.366 77.8208 179.3C79.0659 180.545 80.6224 181.168 82.1788 181.168C83.7352 181.168 85.2916 180.545 86.5368 179.3C86.2255 180.234 86.2254 181.168 85.9142 181.79C84.9803 184.28 83.4239 185.214 83.7352 185.214H91.206C91.206 185.214 89.9608 184.28 89.027 181.79C88.7157 181.168 88.7158 180.234 88.4045 179.3C89.6496 180.545 91.206 181.168 92.7624 181.168C94.3189 181.168 95.8753 180.545 97.1204 179.3C98.3655 178.055 98.9881 176.81 98.9881 175.253C98.3656 172.452 96.4979 170.895 94.3189 169.339Z" fill="url(#paint1_linear_1_4463)"/>
<path d="M94.3189 62.8796C94.0076 62.5683 93.385 62.2571 93.0737 61.9458C89.6496 59.1442 87.1593 55.4088 87.1593 55.4088C87.1593 55.4088 84.669 59.1442 81.2449 61.9458C80.9336 62.2571 80.3111 62.5683 79.9998 62.8796C77.8208 64.7473 75.9531 65.9925 75.9531 68.794C75.9531 70.3504 76.5756 71.9069 77.8208 72.8407C79.0659 74.0859 80.6224 74.7084 82.1788 74.7084C83.7352 74.7084 85.2916 74.0859 86.5368 72.8407C86.2255 73.7746 86.2254 74.7084 85.9142 75.331C84.9803 77.8213 83.4239 78.7551 83.7352 78.7551H91.206C91.206 78.7551 89.9608 77.8213 89.027 75.331C88.7157 74.7084 88.7158 73.7746 88.4045 72.8407C89.6496 74.0859 91.206 74.7084 92.7624 74.7084C94.3189 74.7084 95.8753 74.0859 97.1204 72.8407C98.3655 71.5956 98.9881 70.3504 98.9881 68.794C98.3656 65.9925 96.4979 64.7473 94.3189 62.8796Z" fill="url(#paint2_linear_1_4463)"/>
<path d="M94.3189 116.11C94.0076 115.799 93.385 115.487 93.0737 115.176C89.6496 112.374 87.1593 108.639 87.1593 108.639C87.1593 108.639 84.669 112.374 81.2449 115.176C80.9336 115.487 80.3111 115.799 79.9998 116.11C77.8208 117.978 75.9531 119.223 75.9531 122.024C75.9531 123.581 76.5756 125.137 77.8208 126.071C79.0659 127.316 80.6224 127.939 82.1788 127.939C83.7352 127.939 85.2916 127.316 86.5368 126.071C86.2255 127.005 86.2254 127.939 85.9142 128.561C84.9803 131.051 83.4239 131.985 83.7352 131.985H91.206C91.206 131.985 89.9608 131.051 89.027 128.561C88.7157 127.939 88.7158 127.005 88.4045 126.071C89.6496 127.316 91.206 127.939 92.7624 127.939C94.3189 127.939 95.8753 127.316 97.1204 126.071C98.3655 124.826 98.9881 123.581 98.9881 122.024C98.3656 119.223 96.4979 117.978 94.3189 116.11Z" fill="url(#paint3_linear_1_4463)"/>
<path d="M138.522 169.338C138.211 169.027 137.588 168.716 137.277 168.405C133.853 165.603 131.362 161.868 131.362 161.868C131.362 161.868 128.872 165.603 125.448 168.405C125.137 168.716 124.514 169.027 124.203 169.338C122.024 171.206 120.156 172.451 120.156 175.253C120.156 176.809 120.779 178.366 122.024 179.299C123.269 180.545 124.826 181.167 126.382 181.167C127.938 181.167 129.495 180.545 130.74 179.299C130.429 180.233 130.429 181.167 130.117 181.79C129.184 184.28 127.627 185.214 127.938 185.214H135.409C135.409 185.214 134.164 184.28 133.23 181.79C132.919 181.167 132.919 180.233 132.608 179.299C133.853 180.545 135.409 181.167 136.966 181.167C138.522 181.167 140.078 180.545 141.324 179.299C142.569 178.054 143.191 176.809 143.191 175.253C142.569 172.451 141.012 170.895 138.522 169.338Z" fill="url(#paint4_linear_1_4463)"/>
<path d="M138.522 62.8794C138.211 62.5681 137.588 62.2568 137.277 61.9455C133.853 59.144 131.362 55.4086 131.362 55.4086C131.362 55.4086 128.872 59.144 125.448 61.9455C125.137 62.2568 124.514 62.5681 124.203 62.8794C122.024 64.7471 120.156 65.9922 120.156 68.7938C120.156 70.3502 120.779 71.9066 122.024 72.8405C123.269 74.0856 124.826 74.7082 126.382 74.7082C127.938 74.7082 129.495 74.0856 130.74 72.8405C130.429 73.7743 130.429 74.7082 130.117 75.3307C129.184 77.821 127.627 78.7549 127.938 78.7549H135.409C135.409 78.7549 134.164 77.821 133.23 75.3307C132.919 74.7082 132.919 73.7743 132.608 72.8405C133.853 74.0856 135.409 74.7082 136.966 74.7082C138.522 74.7082 140.078 74.0856 141.324 72.8405C142.569 71.5953 143.191 70.3502 143.191 68.7938C142.569 65.9922 141.012 64.7471 138.522 62.8794Z" fill="url(#paint5_linear_1_4463)"/>
<path d="M138.522 116.11C138.211 115.799 137.588 115.487 137.277 115.176C133.853 112.374 131.362 108.639 131.362 108.639C131.362 108.639 128.872 112.374 125.448 115.176C125.137 115.487 124.514 115.799 124.203 116.11C122.024 117.978 120.156 119.223 120.156 122.024C120.156 123.581 120.779 125.137 122.024 126.071C123.269 127.316 124.826 127.939 126.382 127.939C127.938 127.939 129.495 127.316 130.74 126.071C130.429 127.005 130.429 127.939 130.117 128.561C129.184 131.051 127.627 131.985 127.938 131.985H135.409C135.409 131.985 134.164 131.051 133.23 128.561C132.919 127.939 132.919 127.005 132.608 126.071C133.853 127.316 135.409 127.939 136.966 127.939C138.522 127.939 140.078 127.316 141.324 126.071C142.569 124.826 143.191 123.581 143.191 122.024C142.569 119.223 141.012 117.978 138.522 116.11Z" fill="url(#paint6_linear_1_4463)"/>
<path d="M116.421 89.3387C116.109 89.0275 115.487 88.7162 115.175 88.4049C111.751 85.6033 109.261 81.8679 109.261 81.8679C109.261 81.8679 106.771 85.6033 103.347 88.4049C103.035 88.7162 102.413 89.0275 102.101 89.3387C99.9224 91.2064 98.0547 92.4516 98.0547 95.2531C98.0547 96.8095 98.6773 98.366 99.9224 99.2998C101.168 100.545 102.724 101.168 104.28 101.168C105.837 101.168 107.393 100.545 108.638 99.2998C108.327 100.234 108.327 101.168 108.016 101.79C107.082 104.28 105.526 105.214 105.837 105.214H113.308C113.308 105.214 112.063 104.28 111.129 101.79C110.817 101.168 110.817 100.234 110.506 99.2998C111.751 100.545 113.308 101.168 114.864 101.168C116.421 101.168 117.977 100.545 119.222 99.2998C120.467 98.0547 121.09 96.8095 121.09 95.2531C120.467 92.7629 118.6 91.2064 116.421 89.3387Z" fill="url(#paint7_linear_1_4463)"/>
<path d="M116.421 142.568C116.109 142.257 115.487 141.946 115.175 141.634C111.751 138.833 109.261 135.098 109.261 135.098C109.261 135.098 106.771 138.833 103.347 141.634C103.035 141.946 102.413 142.257 102.101 142.568C99.9224 144.436 98.0547 145.681 98.0547 148.483C98.0547 150.039 98.6773 151.596 99.9224 152.529C101.168 153.775 102.724 154.397 104.28 154.397C105.837 154.397 107.393 153.775 108.638 152.529C108.327 153.463 108.327 154.397 108.016 155.02C107.082 157.51 105.526 158.444 105.837 158.444H113.308C113.308 158.444 112.063 157.51 111.129 155.02C110.817 154.397 110.817 153.463 110.506 152.529C111.751 153.775 113.308 154.397 114.864 154.397C116.421 154.397 117.977 153.775 119.222 152.529C120.467 151.284 121.09 150.039 121.09 148.483C120.467 145.681 118.6 144.436 116.421 142.568Z" fill="url(#paint8_linear_1_4463)"/>
<path d="M43.8911 38.6005C50.428 42.6471 53.5409 48.2503 53.5409 55.0985C53.5409 60.7016 51.3619 65.3709 47.3152 69.1063C43.2685 72.5304 37.9767 74.3981 31.4397 74.3981C24.5915 74.3981 19.2997 72.5304 15.253 69.1063C11.2063 65.6822 9.02734 61.0129 9.02734 55.4098C9.02734 48.5615 12.1401 42.9584 18.6771 38.9117C15.8755 36.4215 14.0078 34.2425 12.4514 31.7522C11.2063 29.5732 10.5838 26.7717 10.5838 23.9701C10.5838 19.3009 12.4514 14.9429 15.8755 11.5188C19.6109 8.09463 24.5915 6.22693 30.8172 6.22693C37.0429 6.22693 42.0234 7.78335 45.7588 10.8962C49.4942 14.009 51.3619 18.367 51.3619 23.3475C51.9844 29.5732 49.1829 34.865 43.8911 38.6005ZM39.5331 53.2308C39.5331 51.0518 38.5993 48.8728 37.0429 47.3164C35.4865 45.76 33.3074 44.8261 31.1284 44.8261C28.9494 44.8261 27.0818 45.76 25.5254 47.3164C23.9689 49.1841 23.0351 51.0518 23.0351 53.5421C23.0351 55.7211 23.9689 57.5888 25.5254 59.4565C27.0818 61.3242 28.9494 61.9467 31.1284 61.9467C33.3074 61.9467 35.4865 61.0129 37.0429 59.4565C38.5993 57.5888 39.5331 55.7211 39.5331 53.2308ZM38.288 25.8378C38.288 23.6588 37.6654 21.7911 36.4203 20.546C35.1752 18.9896 33.3074 18.367 31.4397 18.367C29.572 18.367 27.7043 18.9896 26.4592 20.2347C25.214 21.4798 24.5915 23.3475 24.5915 25.2152C24.5915 27.0829 25.214 28.9507 26.4592 30.1958C27.7043 31.4409 29.572 32.3748 31.4397 32.3748C33.3074 32.3748 34.8639 31.7522 36.4203 30.5071C37.6654 28.9506 38.288 27.3942 38.288 25.8378Z" fill="url(#paint9_linear_1_4463)"/>
<defs>
<linearGradient id="paint0_linear_1_4463" x1="32.8477" y1="93.3851" x2="32.8477" y2="146.926" gradientUnits="userSpaceOnUse">
<stop stop-color="#320807"/>
<stop offset="1"/>
</linearGradient>
<linearGradient id="paint1_linear_1_4463" x1="87.4706" y1="161.868" x2="87.4706" y2="185.214" gradientUnits="userSpaceOnUse">
<stop stop-color="#320807"/>
<stop offset="1"/>
</linearGradient>
<linearGradient id="paint2_linear_1_4463" x1="87.4706" y1="55.4088" x2="87.4706" y2="78.7551" gradientUnits="userSpaceOnUse">
<stop stop-color="#320807"/>
<stop offset="1"/>
</linearGradient>
<linearGradient id="paint3_linear_1_4463" x1="87.4706" y1="108.639" x2="87.4706" y2="131.985" gradientUnits="userSpaceOnUse">
<stop stop-color="#320807"/>
<stop offset="1"/>
</linearGradient>
<linearGradient id="paint4_linear_1_4463" x1="131.674" y1="161.868" x2="131.674" y2="185.214" gradientUnits="userSpaceOnUse">
<stop stop-color="#320807"/>
<stop offset="1"/>
</linearGradient>
<linearGradient id="paint5_linear_1_4463" x1="131.674" y1="55.4086" x2="131.674" y2="78.7549" gradientUnits="userSpaceOnUse">
<stop stop-color="#320807"/>
<stop offset="1"/>
</linearGradient>
<linearGradient id="paint6_linear_1_4463" x1="131.674" y1="108.639" x2="131.674" y2="131.985" gradientUnits="userSpaceOnUse">
<stop stop-color="#320807"/>
<stop offset="1"/>
</linearGradient>
<linearGradient id="paint7_linear_1_4463" x1="109.572" y1="81.8679" x2="109.572" y2="105.214" gradientUnits="userSpaceOnUse">
<stop stop-color="#320807"/>
<stop offset="1"/>
</linearGradient>
<linearGradient id="paint8_linear_1_4463" x1="109.572" y1="135.098" x2="109.572" y2="158.444" gradientUnits="userSpaceOnUse">
<stop stop-color="#320807"/>
<stop offset="1"/>
</linearGradient>
<linearGradient id="paint9_linear_1_4463" x1="31.2841" y1="6.22693" x2="31.2841" y2="74.3981" gradientUnits="userSpaceOnUse">
<stop stop-color="#320807"/>
<stop offset="1"/>
</linearGradient>
</defs>
</svg>
