<svg width="160" height="241" viewBox="0 0 160 241" fill="none" xmlns="http://www.w3.org/2000/svg">
<path d="M160 235.02C160 237.821 157.51 240.312 154.708 240.312H5.29186C2.49031 240.312 0 237.821 0 235.02V5.29235C0 2.4908 2.49031 0.000488281 5.29186 0.000488281H154.708C157.51 0.000488281 160 2.4908 160 5.29235V235.02Z" fill="white"/>
<path d="M122.336 96.1865C119.846 94.3188 117.355 92.1398 114.554 89.9608C95.2542 73.774 80.0012 52.2954 80.0012 52.2954C80.0012 52.2954 64.7483 73.774 45.4487 89.9608C42.6472 92.1398 40.1569 94.3188 37.6666 96.1865C24.5927 106.459 14.3203 114.552 14.3203 130.116C14.3203 139.144 17.7445 147.86 24.5927 154.396C31.1297 160.933 40.1569 164.669 49.4955 164.669H49.8067C59.7677 164.669 68.4837 160.622 75.332 153.774C74.0868 158.755 73.4643 164.358 71.9078 168.093C66.616 182.101 58.2114 188.326 58.5227 188.326H102.102C102.725 188.326 94.009 182.412 88.7171 168.093C87.472 164.358 86.5382 158.443 85.2931 153.774C91.8301 160.622 100.857 164.669 110.818 164.669H111.13C120.468 164.669 129.495 160.933 136.032 154.396C142.569 147.86 146.305 139.144 146.305 130.116C145.993 114.552 135.41 106.459 122.336 96.1865Z" fill="url(#paint0_linear_1_4520)"/>
<path d="M26.7721 2.49072H36.7332L61.0133 61.946H48.2506L43.5814 50.1171H20.8577L16.1884 61.946H3.42578L26.7721 2.49072ZM31.7526 22.1016L24.9044 39.5335H38.9121L31.7526 22.1016Z" fill="url(#paint1_linear_1_4520)"/>
<defs>
<linearGradient id="paint0_linear_1_4520" x1="80.3125" y1="52.2954" x2="80.3125" y2="188.326" gradientUnits="userSpaceOnUse">
<stop stop-color="#320807"/>
<stop offset="1"/>
</linearGradient>
<linearGradient id="paint1_linear_1_4520" x1="32.2195" y1="2.49072" x2="32.2195" y2="61.946" gradientUnits="userSpaceOnUse">
<stop stop-color="#320807"/>
<stop offset="1"/>
</linearGradient>
</defs>
</svg>
