<svg width="160" height="241" viewBox="0 0 160 241" fill="none" xmlns="http://www.w3.org/2000/svg">
<path d="M160 234.874C160 237.67 157.515 240.156 154.718 240.156H5.28159C2.48547 240.156 0 237.67 0 234.874V5.59246C0 2.79634 2.48547 0.310913 5.28159 0.310913H154.718C157.515 0.310913 160 2.79634 160 5.59246V234.874Z" fill="white"/>
<path d="M55.9217 120.232C48.4654 127.067 38.213 141.048 33.2421 151.3C28.2712 141.048 18.0188 127.067 10.5625 120.232C18.0188 113.397 28.2712 99.4169 33.2421 89.1644C38.213 99.4169 48.1547 113.397 55.9217 120.232Z" fill="url(#paint0_linear_1_4324)"/>
<path d="M96.3088 160C93.202 162.796 89.1631 168.388 86.9884 172.738C84.8136 168.388 80.7748 162.796 77.668 160C80.7748 157.204 84.8136 151.612 86.9884 147.262C89.1631 151.301 93.202 157.204 96.3088 160Z" fill="url(#paint1_linear_1_4324)"/>
<path d="M96.3088 80.4668C93.202 83.2629 89.1631 88.8551 86.9884 93.2046C84.8136 88.8551 80.7748 83.2629 77.668 80.4668C80.7748 77.6706 84.8136 72.0784 86.9884 67.7289C89.1631 71.7677 93.202 77.36 96.3088 80.4668Z" fill="url(#paint2_linear_1_4324)"/>
<path d="M118.367 120.233C115.261 123.029 111.222 128.622 109.047 132.971C106.872 128.622 102.833 123.029 99.7266 120.233C102.833 117.437 106.872 111.845 109.047 107.495C111.222 111.534 115.261 117.437 118.367 120.233Z" fill="url(#paint3_linear_1_4324)"/>
<path d="M140.738 160C137.632 162.796 133.593 168.388 131.418 172.738C129.243 168.388 125.204 162.796 122.098 160C125.204 157.204 129.243 151.612 131.418 147.262C133.282 151.301 137.632 157.204 140.738 160Z" fill="url(#paint4_linear_1_4324)"/>
<path d="M140.738 80.4668C137.632 83.2629 133.593 88.8551 131.418 93.2046C129.243 88.8551 125.204 83.2629 122.098 80.4668C125.204 77.6706 129.243 72.0784 131.418 67.7289C133.282 71.7677 137.632 77.36 140.738 80.4668Z" fill="url(#paint5_linear_1_4324)"/>
<path d="M17.7087 6.83435H50.3301V18.9509H30.4465L29.8252 26.7178C37.2815 26.7178 43.1844 28.8926 47.2233 33.2421C51.2621 37.5916 53.4369 42.8732 53.4369 48.7761C53.4369 55.611 50.9514 61.514 45.6699 66.4848C40.3883 71.4557 34.1747 73.9411 27.0291 73.9411C23.6116 73.9411 20.8155 73.3198 18.0194 72.3877C15.5339 71.4557 12.4271 69.9023 9.32031 67.7275L10.8737 52.5043C18.0193 57.1645 23.6116 59.6499 27.9611 59.6499C30.7572 59.6499 33.5533 58.7178 35.7281 56.5431C37.9028 54.3683 39.1456 51.8829 39.1456 49.0868C39.1456 45.98 37.9028 43.1839 35.7281 41.3198C33.5533 39.4557 30.7572 38.213 27.3397 38.213C23.3009 38.213 19.2621 39.145 14.6019 41.0091L17.7087 6.83435Z" fill="url(#paint6_linear_1_4324)"/>
<defs>
<linearGradient id="paint0_linear_1_4324" x1="33.2421" y1="89.1644" x2="33.2421" y2="151.3" gradientUnits="userSpaceOnUse">
<stop stop-color="#FD4D1E"/>
<stop offset="1" stop-color="#AE1B06"/>
</linearGradient>
<linearGradient id="paint1_linear_1_4324" x1="86.9884" y1="147.262" x2="86.9884" y2="172.738" gradientUnits="userSpaceOnUse">
<stop stop-color="#FD4D1E"/>
<stop offset="1" stop-color="#AE1B06"/>
</linearGradient>
<linearGradient id="paint2_linear_1_4324" x1="86.9884" y1="67.7289" x2="86.9884" y2="93.2046" gradientUnits="userSpaceOnUse">
<stop stop-color="#FD4D1E"/>
<stop offset="1" stop-color="#AE1B06"/>
</linearGradient>
<linearGradient id="paint3_linear_1_4324" x1="109.047" y1="107.495" x2="109.047" y2="132.971" gradientUnits="userSpaceOnUse">
<stop stop-color="#FD4D1E"/>
<stop offset="1" stop-color="#AE1B06"/>
</linearGradient>
<linearGradient id="paint4_linear_1_4324" x1="131.418" y1="147.262" x2="131.418" y2="172.738" gradientUnits="userSpaceOnUse">
<stop stop-color="#FD4D1E"/>
<stop offset="1" stop-color="#AE1B06"/>
</linearGradient>
<linearGradient id="paint5_linear_1_4324" x1="131.418" y1="67.7289" x2="131.418" y2="93.2046" gradientUnits="userSpaceOnUse">
<stop stop-color="#FD4D1E"/>
<stop offset="1" stop-color="#AE1B06"/>
</linearGradient>
<linearGradient id="paint6_linear_1_4324" x1="31.3786" y1="6.83435" x2="31.3786" y2="73.9411" gradientUnits="userSpaceOnUse">
<stop stop-color="#FD4D1E"/>
<stop offset="1" stop-color="#AE1B06"/>
</linearGradient>
</defs>
</svg>
