<svg width="160" height="241" viewBox="0 0 160 241" fill="none" xmlns="http://www.w3.org/2000/svg">
<path d="M160 235.497C160 238.293 157.515 240.779 154.719 240.779H5.28159C2.48547 240.779 0 238.293 0 235.497V6.21567C0 3.41956 2.48547 0.934082 5.28159 0.934082H154.719C157.515 0.934082 160 3.41956 160 6.21567V235.497Z" fill="white"/>
<path d="M35.4179 6.83707H50.0198V54.9924C50.0198 61.206 48.1557 66.1768 44.7382 70.2157C41.3208 73.9438 36.6605 75.8079 31.0683 75.8079C27.0294 75.8079 23.3013 74.5652 20.1945 72.0798C17.0877 69.5943 14.6024 66.1769 12.7383 61.206L23.3013 53.1283V53.439C23.3013 53.439 23.6121 54.371 24.2335 55.6137C24.8548 57.1671 25.7868 58.4099 26.7189 59.6526C27.6509 60.8953 28.5829 61.5166 29.8257 61.5166C31.3791 61.5166 32.6217 60.8953 33.8645 59.6526C34.7965 58.4099 35.4179 56.5458 35.4179 54.371V6.83707Z" fill="url(#paint0_linear_1_4179)"/>
<path d="M46.9127 177.4C36.971 176.468 33.8641 182.682 33.2428 184.856C32.3107 182.682 29.204 176.468 19.573 177.4C10.2526 178.954 7.45635 187.342 8.38839 195.109C10.2525 207.536 29.2039 215.614 33.2428 223.07L33.5536 223.381L33.8642 223.07C37.903 215.303 56.5438 207.225 58.7185 195.109C59.3399 187.342 56.2331 179.264 46.9127 177.4Z" fill="url(#paint1_linear_1_4179)"/>
<path d="M107.804 82.0217C87.9205 79.8469 81.707 92.8955 80.1536 96.9344C78.6002 92.5849 72.0759 79.8469 52.5031 82.0217C34.173 85.4392 27.9595 101.594 30.4449 117.439C34.1731 141.983 72.076 158.449 80.1536 173.672L80.4642 174.294L80.7749 173.672C88.8525 158.449 126.445 141.983 130.484 117.439C132.348 101.594 126.134 85.4392 107.804 82.0217Z" fill="url(#paint2_linear_1_4179)"/>
<defs>
<linearGradient id="paint0_linear_1_4179" x1="31.3791" y1="6.83707" x2="31.3791" y2="75.8079" gradientUnits="userSpaceOnUse">
<stop stop-color="#FD4D1E"/>
<stop offset="1" stop-color="#AE1B06"/>
</linearGradient>
<linearGradient id="paint1_linear_1_4179" x1="33.5068" y1="177.306" x2="33.5068" y2="223.381" gradientUnits="userSpaceOnUse">
<stop stop-color="#FD4D1E"/>
<stop offset="1" stop-color="#AE1B06"/>
</linearGradient>
<linearGradient id="paint2_linear_1_4179" x1="80.3611" y1="81.7739" x2="80.3611" y2="174.294" gradientUnits="userSpaceOnUse">
<stop stop-color="#FD4D1E"/>
<stop offset="1" stop-color="#AE1B06"/>
</linearGradient>
</defs>
</svg>
