<svg width="160" height="241" viewBox="0 0 160 241" fill="none" xmlns="http://www.w3.org/2000/svg">
<path d="M160 235.497C160 238.293 157.515 240.779 154.718 240.779H5.2814C2.48529 240.779 0 238.293 0 235.497V6.21567C0 3.41956 2.48529 0.934082 5.2814 0.934082H154.718C157.515 0.934082 160 3.41956 160 6.21567V235.497Z" fill="white"/>
<path d="M46.9127 177.4C36.971 176.468 33.8641 182.682 33.2428 184.856C32.3107 182.682 29.204 176.468 19.573 177.4C10.2526 178.954 7.45635 187.342 8.38839 195.109C10.2525 207.536 29.2039 215.614 33.2428 223.07L33.5536 223.381L33.8642 223.07C37.903 215.303 56.5438 207.225 58.7185 195.109C59.3399 187.342 56.2331 179.264 46.9127 177.4Z" fill="url(#paint0_linear_1_4184)"/>
<path d="M107.804 82.0217C87.9205 79.8469 81.707 92.8955 80.1536 96.9344C78.6002 92.5849 72.0759 79.8469 52.5031 82.0217C34.173 85.4392 27.9595 101.594 30.4449 117.439C34.1731 141.983 72.076 158.449 80.1536 173.672L80.4642 174.294L80.775 173.672C88.8527 158.449 126.445 141.983 130.484 117.439C132.348 101.594 126.134 85.4392 107.804 82.0217Z" fill="url(#paint1_linear_1_4184)"/>
<path d="M69.9025 70.2157L64.9315 64.3128C71.4557 57.4778 74.5627 49.0895 74.5627 39.1477C74.5627 29.5166 71.1451 21.1283 64.6209 14.604C58.0966 8.07978 49.7082 4.66226 40.0771 4.66226C29.8247 4.66226 21.4363 8.07972 15.2227 15.2253C9.00914 22.0603 5.90234 30.138 5.90234 38.5263C5.90234 49.0894 9.00925 57.4778 15.5335 64.3128C22.0578 71.1477 30.1355 74.2545 40.3879 74.2545C45.0481 74.2545 50.019 73.3224 55.9219 71.1477L61.2033 77.3613L69.9025 70.2157ZM55.3005 53.1283L48.7761 45.3613L39.1451 51.5749L46.2907 59.9632C43.4946 60.2739 41.3198 60.5846 39.4557 60.5846C34.1742 60.5846 30.1354 58.7205 26.7179 54.6817C23.3004 50.6429 21.7471 45.672 21.7471 39.1477C21.7471 32.9341 23.611 27.9632 27.0285 24.235C30.446 20.5069 35.1063 18.3321 40.6985 18.3321C46.2907 18.3321 50.951 20.1962 54.3685 24.235C57.786 28.2739 59.6499 33.5554 59.6499 40.0797C59.0285 45.6719 57.7859 50.0215 55.3005 53.1283Z" fill="url(#paint2_linear_1_4184)"/>
<defs>
<linearGradient id="paint0_linear_1_4184" x1="33.5068" y1="177.306" x2="33.5068" y2="223.381" gradientUnits="userSpaceOnUse">
<stop stop-color="#FD4D1E"/>
<stop offset="1" stop-color="#AE1B06"/>
</linearGradient>
<linearGradient id="paint1_linear_1_4184" x1="80.3612" y1="81.7739" x2="80.3612" y2="174.294" gradientUnits="userSpaceOnUse">
<stop stop-color="#FD4D1E"/>
<stop offset="1" stop-color="#AE1B06"/>
</linearGradient>
<linearGradient id="paint2_linear_1_4184" x1="40.2325" y1="4.66226" x2="40.2325" y2="77.3613" gradientUnits="userSpaceOnUse">
<stop stop-color="#FD4D1E"/>
<stop offset="1" stop-color="#AE1B06"/>
</linearGradient>
</defs>
</svg>
