<svg width="160" height="241" viewBox="0 0 160 241" fill="none" xmlns="http://www.w3.org/2000/svg">
<path d="M160 235.497C160 238.293 157.515 240.779 154.718 240.779H5.28159C2.48547 240.779 0 238.293 0 235.497V6.21567C0 3.41956 2.48547 0.934082 5.28159 0.934082H154.718C157.515 0.934082 160 3.41956 160 6.21567V235.497Z" fill="white"/>
<path d="M46.9126 177.4C36.9708 176.468 33.8641 182.682 33.2428 184.856C32.3107 182.682 29.2039 176.468 19.5728 177.4C10.2524 178.954 7.45636 187.342 8.3884 195.109C10.2525 207.536 29.2039 215.614 33.2428 223.07L33.5534 223.381L33.864 223.07C37.9028 215.303 56.5436 207.225 58.7183 195.109C59.029 187.342 56.2329 179.264 46.9126 177.4Z" fill="url(#paint0_linear_1_4189)"/>
<path d="M107.804 82.0217C87.9207 79.8469 81.707 92.8955 80.1536 96.9344C78.6002 92.5849 72.0759 79.8469 52.5031 82.0217C34.173 85.4392 27.9595 101.594 30.4449 117.439C34.1731 141.983 72.076 158.449 80.1536 173.672L80.4642 174.294L80.775 173.672C88.8527 158.449 126.445 141.983 130.484 117.439C132.348 101.594 126.134 85.4392 107.804 82.0217Z" fill="url(#paint1_linear_1_4189)"/>
<path d="M7.45703 7.14795H22.059V36.0412H22.3698L44.7386 7.14795H62.7582L36.9716 39.7693L64.0008 75.1869H46.292L22.3698 43.1868H22.059V75.1869H7.45703V7.14795Z" fill="url(#paint2_linear_1_4189)"/>
<defs>
<linearGradient id="paint0_linear_1_4189" x1="33.48" y1="177.306" x2="33.48" y2="223.381" gradientUnits="userSpaceOnUse">
<stop stop-color="#FD4D1E"/>
<stop offset="1" stop-color="#AE1B06"/>
</linearGradient>
<linearGradient id="paint1_linear_1_4189" x1="80.3612" y1="81.7739" x2="80.3612" y2="174.294" gradientUnits="userSpaceOnUse">
<stop stop-color="#FD4D1E"/>
<stop offset="1" stop-color="#AE1B06"/>
</linearGradient>
<linearGradient id="paint2_linear_1_4189" x1="35.7289" y1="7.14795" x2="35.7289" y2="75.1869" gradientUnits="userSpaceOnUse">
<stop stop-color="#FD4D1E"/>
<stop offset="1" stop-color="#AE1B06"/>
</linearGradient>
</defs>
</svg>
