<svg width="110" height="110" viewBox="0 0 110 110" fill="none" xmlns="http://www.w3.org/2000/svg">
<g filter="url(#filter0_d_1_3151)">
<path d="M54.9054 98.2991C80.8822 98.2991 101.943 77.2493 101.943 51.2797C101.943 25.3102 80.8822 4.26037 54.9054 4.26037C28.9285 4.26037 7.86755 25.3102 7.86755 51.2797C7.86755 77.2493 28.9285 98.2991 54.9054 98.2991Z" fill="#B0008A" stroke="url(#paint0_radial_1_3151)" stroke-width="7.23678"/>
<circle cx="54.9065" cy="51.2993" r="43.4206" fill="url(#paint1_radial_1_3151)"/>
<path d="M83.7241 48.9428C85.0811 64.8799 72.8687 78.7826 56.9247 80.1389C40.9808 81.4953 27.0723 69.2881 25.7153 53.3509C24.3584 37.4138 36.5708 23.5111 52.5147 22.1548C68.4587 21.1375 82.7064 33.0056 83.7241 48.9428Z" stroke="white" stroke-width="1.80919" stroke-miterlimit="10" stroke-dasharray="10.81 10.81"/>
<path d="M51.4963 7.91394C45.3901 8.25303 39.6232 9.94847 34.5347 12.6612L39.6232 21.4775C43.3547 19.443 47.7647 18.0866 52.514 17.7475C52.514 17.7475 52.514 17.7475 52.8532 17.7475V7.91394C52.1748 7.91394 51.8355 7.91394 51.4963 7.91394Z" fill="white"/>
<path d="M12.8262 40.4653L22.6639 42.1607C24.0208 37.4135 26.0562 33.3445 29.1093 29.6145L20.9678 23.85C17.2362 28.9363 14.5223 34.3617 12.8262 40.4653Z" fill="white"/>
<path d="M27.7508 70.6452C24.6977 66.5761 22.6623 61.8289 21.9839 56.7426L12.4854 59.1162C13.8423 65.8979 16.5561 71.6624 20.2877 77.0879L27.7508 70.6452Z" fill="white"/>
<path d="M35.5527 89.9723C41.6589 93.0241 48.1043 94.7195 55.2282 94.7195V84.886C49.8005 84.886 44.3728 83.5296 39.6235 81.156L35.5527 89.9723Z" fill="white"/>
<path d="M87.794 79.122L80.6701 72.3403C77.617 76.0702 73.5463 79.122 69.1362 81.4957L72.8678 90.6511C78.974 87.9383 84.0625 83.8693 87.794 79.122Z" fill="white"/>
<path d="M97.971 47.9248C97.6318 44.873 97.2926 42.1603 96.6141 39.4476L86.7764 41.1431C87.4548 43.5167 88.1333 45.8903 88.1333 48.2639C88.4725 50.9767 88.1333 53.6894 87.7941 56.4021L97.2926 58.7757C97.971 55.3848 98.3103 51.6548 97.971 47.9248Z" fill="white"/>
<path d="M72.8679 11.9845L68.1187 20.4617C72.5287 22.4962 76.5995 25.2089 79.6526 28.9389L87.7941 23.1744C83.7234 18.4272 78.6349 14.3581 72.8679 11.9845Z" fill="white"/>
<path d="M60.5614 62.1915V66.0925H47.6496V62.1915H52.0384V38.0006H47.6496V34.1843H56.4271V62.1915H60.5614Z" fill="white"/>
</g>
<defs>
<filter id="filter0_d_1_3151" x="-3.36914" y="0.641846" width="112.933" height="109.315" filterUnits="userSpaceOnUse" color-interpolation-filters="sRGB">
<feFlood flood-opacity="0" result="BackgroundImageFix"/>
<feColorMatrix in="SourceAlpha" type="matrix" values="0 0 0 0 0 0 0 0 0 0 0 0 0 0 0 0 0 0 127 0" result="hardAlpha"/>
<feOffset dy="4"/>
<feGaussianBlur stdDeviation="2"/>
<feComposite in2="hardAlpha" operator="out"/>
<feColorMatrix type="matrix" values="0 0 0 0 0 0 0 0 0 0 0 0 0 0 0 0 0 0 0.25 0"/>
<feBlend mode="normal" in2="BackgroundImageFix" result="effect1_dropShadow_1_3151"/>
<feBlend mode="normal" in="SourceGraphic" in2="effect1_dropShadow_1_3151" result="shape"/>
</filter>
<radialGradient id="paint0_radial_1_3151" cx="0" cy="0" r="1" gradientUnits="userSpaceOnUse" gradientTransform="translate(54.9054 51.2982) rotate(119.197) scale(49.7392 49.7181)">
<stop offset="0.625" stop-color="#D945B9"/>
<stop offset="1"/>
</radialGradient>
<radialGradient id="paint1_radial_1_3151" cx="0" cy="0" r="1" gradientUnits="userSpaceOnUse" gradientTransform="translate(54.8958 51.2886) scale(43.4235)">
<stop offset="0.682292"/>
<stop offset="0.859375" stop-color="#B0008A"/>
<stop offset="1" stop-color="#450A38"/>
</radialGradient>
</defs>
</svg>
