<svg width="160" height="241" viewBox="0 0 160 241" fill="none" xmlns="http://www.w3.org/2000/svg">
<path d="M160 234.874C160 237.67 157.515 240.156 154.718 240.156H5.2814C2.48529 240.156 0 237.67 0 234.874V5.5924C0 2.79628 2.48529 0.310852 5.2814 0.310852H154.718C157.515 0.310852 160 2.79628 160 5.5924V234.874Z" fill="white"/>
<path d="M55.9218 199.767C48.4655 206.602 38.2129 220.583 33.2421 230.835C28.2712 220.583 18.0188 206.602 10.5625 199.767C18.0188 192.933 28.2712 178.952 33.2421 168.7C38.2129 178.952 48.4655 192.933 55.9218 199.767Z" fill="url(#paint0_linear_1_4401)"/>
<path d="M125.203 120.234C110.29 133.903 90.0958 161.243 80.154 181.748C70.2123 161.243 50.0181 133.903 35.1055 120.234C50.0181 106.564 70.2123 79.2239 80.154 58.7191C90.0958 79.2239 109.979 106.564 125.203 120.234Z" fill="url(#paint1_linear_1_4401)"/>
<path d="M69.9025 69.5925L64.9315 63.6895C71.4557 56.8546 74.5627 48.4662 74.5627 38.5245C74.5627 28.8934 71.1451 20.5051 64.6209 13.9808C58.0966 7.45653 49.7082 4.03906 40.0771 4.03906C29.8247 4.03906 21.4363 7.45654 15.2227 14.6022C9.00914 21.4371 5.90234 29.5148 5.90234 37.9031C5.90234 48.4662 9.00925 56.8546 15.5335 63.6895C22.0578 70.5245 30.1355 73.6313 40.3879 73.6313C45.0481 73.6313 50.019 72.6992 55.9219 70.5245L61.2033 76.7381L69.9025 69.5925ZM55.3005 52.5051L48.7761 44.7381L39.1451 50.9517L46.2907 59.34C43.4946 59.6507 41.3198 59.9614 39.4557 59.9614C34.1742 59.9614 30.1354 58.0973 26.7179 54.0585C23.3004 50.0197 21.7471 45.0488 21.7471 38.5245C21.7471 32.3109 23.611 27.34 27.0285 23.6119C30.446 19.8837 35.1063 17.709 40.6985 17.709C46.2907 17.709 50.951 19.5731 54.3685 23.6119C57.786 27.6507 59.6499 32.6216 59.6499 39.4565C59.0285 45.0488 57.7859 49.3983 55.3005 52.5051Z" fill="url(#paint2_linear_1_4401)"/>
<defs>
<linearGradient id="paint0_linear_1_4401" x1="33.2422" y1="168.7" x2="33.2422" y2="230.835" gradientUnits="userSpaceOnUse">
<stop stop-color="#FD4D1E"/>
<stop offset="1" stop-color="#AE1B06"/>
</linearGradient>
<linearGradient id="paint1_linear_1_4401" x1="80.154" y1="58.7191" x2="80.154" y2="181.748" gradientUnits="userSpaceOnUse">
<stop stop-color="#FD4D1E"/>
<stop offset="1" stop-color="#AE1B06"/>
</linearGradient>
<linearGradient id="paint2_linear_1_4401" x1="40.2325" y1="4.03906" x2="40.2325" y2="76.7381" gradientUnits="userSpaceOnUse">
<stop stop-color="#FD4D1E"/>
<stop offset="1" stop-color="#AE1B06"/>
</linearGradient>
</defs>
</svg>
