<svg width="160" height="241" viewBox="0 0 160 241" fill="none" xmlns="http://www.w3.org/2000/svg">
<path d="M160 234.874C160 237.67 157.515 240.155 154.718 240.155H5.28154C2.48543 240.155 0 237.67 0 234.874V5.59246C0 2.79634 2.48543 0.310913 5.28154 0.310913H154.718C157.515 0.310913 160 2.79634 160 5.59246V234.874Z" fill="white"/>
<path d="M55.9217 120.232C48.4654 127.067 38.2129 141.048 33.2421 151.3C28.2712 141.048 18.0188 127.067 10.5625 120.232C18.0188 113.397 28.2712 99.4169 33.2421 89.1644C38.2129 99.4169 48.1547 113.397 55.9217 120.232Z" fill="url(#paint0_linear_1_4333)"/>
<path d="M96.3127 173.359C93.2059 176.155 89.167 181.748 86.9923 186.097C84.8175 181.748 80.7787 176.155 77.6719 173.359C80.7787 170.563 84.8175 164.971 86.9923 160.621C89.167 164.66 93.2059 170.253 96.3127 173.359Z" fill="url(#paint1_linear_1_4333)"/>
<path d="M96.3127 67.1074C93.2059 69.9035 89.167 75.4957 86.9923 79.8452C84.8175 75.4957 80.7787 69.9035 77.6719 67.1074C80.7787 64.3113 84.8175 58.719 86.9923 54.3695C89.167 58.719 93.2059 64.3113 96.3127 67.1074Z" fill="url(#paint2_linear_1_4333)"/>
<path d="M96.3127 120.233C93.2059 123.029 89.167 128.622 86.9923 132.971C84.8175 128.622 80.7787 123.029 77.6719 120.233C80.7787 117.437 84.8175 111.845 86.9923 107.495C89.167 111.534 93.2059 117.437 96.3127 120.233Z" fill="url(#paint3_linear_1_4333)"/>
<path d="M140.426 173.359C137.319 176.155 133.28 181.748 131.106 186.097C128.931 181.748 124.892 176.155 121.785 173.359C124.892 170.563 128.931 164.971 131.106 160.621C133.28 164.66 137.319 170.253 140.426 173.359Z" fill="url(#paint4_linear_1_4333)"/>
<path d="M140.426 67.1074C137.319 69.9035 133.28 75.4957 131.106 79.8452C128.931 75.4957 124.892 69.9035 121.785 67.1074C124.892 64.3113 128.931 58.719 131.106 54.3695C133.28 58.719 137.319 64.3113 140.426 67.1074Z" fill="url(#paint5_linear_1_4333)"/>
<path d="M140.426 120.233C137.319 123.029 133.28 128.622 131.106 132.971C128.931 128.622 124.892 123.029 121.785 120.233C124.892 117.437 128.931 111.845 131.106 107.495C133.28 111.534 137.319 117.437 140.426 120.233Z" fill="url(#paint6_linear_1_4333)"/>
<path d="M27.9624 7.1449H45.3604L28.8944 29.5138C31.0692 29.2031 33.2439 28.8925 35.108 28.8925C40.7002 28.8925 45.6711 31.0672 50.0206 35.4167C54.0594 39.7662 56.2342 44.7371 56.2342 50.64C56.2342 57.475 53.7488 63.0672 48.7779 67.7274C43.807 72.0769 37.5934 74.5623 30.1371 74.5623C23.3022 74.5623 17.3992 72.3876 13.0497 68.0381C8.38954 63.6886 6.21484 58.0963 6.21484 51.2614C6.21484 46.2905 7.45749 41.3197 9.63224 36.0381C11.807 30.7566 14.2925 26.407 17.0886 22.6789L27.9624 7.1449ZM41.0109 50.3293C41.0109 47.2225 40.0789 44.7371 38.2148 42.873C36.3507 40.6983 33.8653 39.7662 31.0692 39.7662C27.9624 39.7662 25.477 40.6983 23.3022 42.873C21.1275 45.0478 20.1954 47.5332 20.1954 50.3293C20.1954 53.1255 21.1275 55.6109 23.3022 57.7857C25.477 59.9604 27.9624 60.8925 31.0692 60.8925C33.8653 60.8925 36.04 59.9604 37.9041 57.7857C40.0789 55.6109 41.0109 53.1255 41.0109 50.3293Z" fill="url(#paint7_linear_1_4333)"/>
<defs>
<linearGradient id="paint0_linear_1_4333" x1="33.2421" y1="89.1644" x2="33.2421" y2="151.3" gradientUnits="userSpaceOnUse">
<stop stop-color="#FD4D1E"/>
<stop offset="1" stop-color="#AE1B06"/>
</linearGradient>
<linearGradient id="paint1_linear_1_4333" x1="86.9923" y1="160.621" x2="86.9923" y2="186.097" gradientUnits="userSpaceOnUse">
<stop stop-color="#FD4D1E"/>
<stop offset="1" stop-color="#AE1B06"/>
</linearGradient>
<linearGradient id="paint2_linear_1_4333" x1="86.9923" y1="54.3695" x2="86.9923" y2="79.8452" gradientUnits="userSpaceOnUse">
<stop stop-color="#FD4D1E"/>
<stop offset="1" stop-color="#AE1B06"/>
</linearGradient>
<linearGradient id="paint3_linear_1_4333" x1="86.9923" y1="107.495" x2="86.9923" y2="132.971" gradientUnits="userSpaceOnUse">
<stop stop-color="#FD4D1E"/>
<stop offset="1" stop-color="#AE1B06"/>
</linearGradient>
<linearGradient id="paint4_linear_1_4333" x1="131.106" y1="160.621" x2="131.106" y2="186.097" gradientUnits="userSpaceOnUse">
<stop stop-color="#FD4D1E"/>
<stop offset="1" stop-color="#AE1B06"/>
</linearGradient>
<linearGradient id="paint5_linear_1_4333" x1="131.106" y1="54.3695" x2="131.106" y2="79.8452" gradientUnits="userSpaceOnUse">
<stop stop-color="#FD4D1E"/>
<stop offset="1" stop-color="#AE1B06"/>
</linearGradient>
<linearGradient id="paint6_linear_1_4333" x1="131.106" y1="107.495" x2="131.106" y2="132.971" gradientUnits="userSpaceOnUse">
<stop stop-color="#FD4D1E"/>
<stop offset="1" stop-color="#AE1B06"/>
</linearGradient>
<linearGradient id="paint7_linear_1_4333" x1="31.2245" y1="7.1449" x2="31.2245" y2="74.5623" gradientUnits="userSpaceOnUse">
<stop stop-color="#FD4D1E"/>
<stop offset="1" stop-color="#AE1B06"/>
</linearGradient>
</defs>
</svg>
