<svg width="160" height="241" viewBox="0 0 160 241" fill="none" xmlns="http://www.w3.org/2000/svg">
<path d="M160 235.497C160 238.293 157.515 240.779 154.718 240.779H5.28159C2.48547 240.779 0 238.293 0 235.497V6.21567C0 3.41956 2.48547 0.934082 5.28159 0.934082H154.718C157.515 0.934082 160 3.41956 160 6.21567V235.497Z" fill="white"/>
<path d="M46.9127 97.8662C36.9709 96.9342 33.8641 103.148 33.2428 105.323C32.3107 103.148 29.2039 96.9342 19.5728 97.8662C10.2524 99.4196 7.45636 107.808 8.3884 115.575C10.2525 128.002 29.2039 136.08 33.2428 143.536L33.5534 143.847L33.8641 143.536C37.9029 135.769 56.5437 127.691 58.7184 115.575C59.0291 107.808 55.9224 99.7303 46.9127 97.8662Z" fill="url(#paint0_linear_1_4127)"/>
<path d="M93.5162 109.982C88.856 109.361 87.3026 112.468 86.9919 113.4C86.6812 112.468 85.1278 109.361 80.4676 109.982C76.1181 110.914 74.5647 114.643 75.1861 118.371C76.1181 124.274 85.1278 128.002 86.9919 131.73C88.8559 128.002 97.8656 124.274 98.7977 118.371C99.419 114.643 97.8657 110.604 93.5162 109.982Z" fill="url(#paint1_linear_1_4127)"/>
<path d="M93.5162 163.109C88.856 162.488 87.3026 165.595 86.9919 166.527C86.6812 165.595 85.1278 162.488 80.4676 163.109C76.1181 164.041 74.5647 167.77 75.1861 171.498C76.1181 177.401 85.1278 181.129 86.9919 184.857C88.8559 181.129 97.8656 177.401 98.7977 171.498C99.419 167.77 97.8657 163.731 93.5162 163.109Z" fill="url(#paint2_linear_1_4127)"/>
<path d="M93.5162 56.8564C88.856 56.235 87.3026 59.3418 86.9919 60.2739C86.6812 59.3418 85.1278 56.235 80.4676 56.8564C76.1181 57.7884 74.5647 61.5166 75.1861 65.2448C76.1181 71.1477 85.1278 74.8758 86.9919 78.6039C88.8559 74.8758 97.8656 71.1477 98.7977 65.2448C99.419 61.5166 97.8657 57.7884 93.5162 56.8564Z" fill="url(#paint3_linear_1_4127)"/>
<path d="M137.629 109.982C132.969 109.361 131.416 112.468 131.105 113.4C130.795 112.468 129.241 109.361 124.581 109.982C120.231 110.914 118.678 114.643 119.299 118.371C120.231 124.274 129.241 128.002 131.105 131.73C132.969 128.002 141.979 124.274 142.911 118.371C143.532 114.643 141.979 110.604 137.629 109.982Z" fill="url(#paint4_linear_1_4127)"/>
<path d="M115.571 83.2646C110.911 82.6432 109.357 85.75 109.047 86.6821C108.736 85.75 107.183 82.6432 102.522 83.2646C98.1728 84.1966 96.6194 87.9248 97.2408 91.653C98.1728 97.5559 107.183 101.284 109.047 105.012C110.911 101.284 119.92 97.5559 120.852 91.653C121.474 87.9248 119.92 84.1966 115.571 83.2646Z" fill="url(#paint5_linear_1_4127)"/>
<path d="M137.629 163.109C132.969 162.488 131.416 165.595 131.105 166.527C130.795 165.595 129.241 162.488 124.581 163.109C120.231 164.041 118.678 167.77 119.299 171.498C120.231 177.401 129.241 181.129 131.105 184.857C132.969 181.129 141.979 177.401 142.911 171.498C143.532 167.77 141.979 163.731 137.629 163.109Z" fill="url(#paint6_linear_1_4127)"/>
<path d="M137.629 56.8564C132.969 56.235 131.416 59.3418 131.105 60.2739C130.795 59.3418 129.241 56.235 124.581 56.8564C120.231 57.7884 118.678 61.5166 119.299 65.2448C120.231 71.1477 129.241 74.8758 131.105 78.6039C132.969 74.8758 141.979 71.1477 142.911 65.2448C143.532 61.5166 141.979 57.7884 137.629 56.8564Z" fill="url(#paint7_linear_1_4127)"/>
<path d="M10.2507 7.14795H62.445L20.1925 75.4975L8.38672 68.0412L38.5226 19.2645H9.94012V7.14795H10.2507Z" fill="url(#paint8_linear_1_4127)"/>
<defs>
<linearGradient id="paint0_linear_1_4127" x1="33.4791" y1="97.7717" x2="33.4791" y2="143.847" gradientUnits="userSpaceOnUse">
<stop stop-color="#FD4D1E"/>
<stop offset="1" stop-color="#AE1B06"/>
</linearGradient>
<linearGradient id="paint1_linear_1_4127" x1="86.9919" y1="109.901" x2="86.9919" y2="131.73" gradientUnits="userSpaceOnUse">
<stop stop-color="#FD4D1E"/>
<stop offset="1" stop-color="#AE1B06"/>
</linearGradient>
<linearGradient id="paint2_linear_1_4127" x1="86.9919" y1="163.028" x2="86.9919" y2="184.857" gradientUnits="userSpaceOnUse">
<stop stop-color="#FD4D1E"/>
<stop offset="1" stop-color="#AE1B06"/>
</linearGradient>
<linearGradient id="paint3_linear_1_4127" x1="86.9919" y1="56.7749" x2="86.9919" y2="78.6039" gradientUnits="userSpaceOnUse">
<stop stop-color="#FD4D1E"/>
<stop offset="1" stop-color="#AE1B06"/>
</linearGradient>
<linearGradient id="paint4_linear_1_4127" x1="131.105" y1="109.901" x2="131.105" y2="131.73" gradientUnits="userSpaceOnUse">
<stop stop-color="#FD4D1E"/>
<stop offset="1" stop-color="#AE1B06"/>
</linearGradient>
<linearGradient id="paint5_linear_1_4127" x1="109.047" y1="83.1831" x2="109.047" y2="105.012" gradientUnits="userSpaceOnUse">
<stop stop-color="#FD4D1E"/>
<stop offset="1" stop-color="#AE1B06"/>
</linearGradient>
<linearGradient id="paint6_linear_1_4127" x1="131.105" y1="163.028" x2="131.105" y2="184.857" gradientUnits="userSpaceOnUse">
<stop stop-color="#FD4D1E"/>
<stop offset="1" stop-color="#AE1B06"/>
</linearGradient>
<linearGradient id="paint7_linear_1_4127" x1="131.105" y1="56.7749" x2="131.105" y2="78.6039" gradientUnits="userSpaceOnUse">
<stop stop-color="#FD4D1E"/>
<stop offset="1" stop-color="#AE1B06"/>
</linearGradient>
<linearGradient id="paint8_linear_1_4127" x1="35.4158" y1="7.14795" x2="35.4158" y2="75.4975" gradientUnits="userSpaceOnUse">
<stop stop-color="#FD4D1E"/>
<stop offset="1" stop-color="#AE1B06"/>
</linearGradient>
</defs>
</svg>
